<svg width="489" height="465" viewBox="0 0 489 465" fill="none" xmlns="http://www.w3.org/2000/svg">
<g clip-path="url(#clip0_142_3307)">
<path d="M469.88 464.563H88.0104C77.6232 464.563 69.1728 454.732 69.1728 442.647V143.997C69.1287 141.719 69.6869 139.473 70.7854 137.508C71.8839 135.544 73.4794 133.94 75.3941 132.873L219.697 41.0025C227.607 36.8734 236.317 34.7204 245.148 34.711C253.978 34.7016 262.692 36.8361 270.61 40.9483L482.458 132.864C484.382 133.926 485.987 135.532 487.093 137.5C488.198 139.468 488.761 141.721 488.717 144.006V442.647C488.717 454.732 480.267 464.563 469.88 464.563Z" fill="#F2F2F2"/>
<path d="M413.494 464.24H85.5729C76.6164 464.24 69.3296 457.301 69.3296 448.77V240.011C69.3717 238.272 69.9104 236.585 70.8757 235.172C71.841 233.758 73.1882 232.683 74.7423 232.085L227.429 167.852C241.459 162.014 257.075 162.006 271.111 167.829L424.315 232.088C425.871 232.684 427.221 233.76 428.188 235.174C429.155 236.588 429.695 238.276 429.737 240.018V448.77C429.737 457.301 422.45 464.24 413.494 464.24Z" fill="#24BA63"/>
<path d="M172.967 320.778V299.187C172.967 296.371 171.904 293.67 170.01 291.679C168.117 289.688 165.549 288.569 162.871 288.569H111.064C108.387 288.569 105.819 289.688 103.925 291.679C102.032 293.67 100.968 296.371 100.968 299.187V320.778H172.967Z" fill="white"/>
<path d="M100.968 324.169V357.626C100.968 360.442 102.032 363.143 103.925 365.134C105.819 367.125 108.387 368.244 111.064 368.244H162.871C165.549 368.244 168.117 367.125 170.01 365.134C171.904 363.143 172.967 360.442 172.967 357.626V324.169H100.968Z" fill="white"/>
<path d="M417.266 261.515L261.726 201.552C252.273 197.907 241.896 197.907 232.443 201.552L76.9033 261.515C73.6251 262.778 70.1052 263.191 66.6428 262.718C63.1804 262.245 59.8777 260.9 57.0153 258.798C54.1529 256.695 51.8154 253.897 50.2014 250.641C48.5874 247.385 47.7446 243.767 47.7446 240.095C47.7446 235.422 49.1091 230.862 51.6534 227.032C54.1977 223.201 57.7992 220.284 61.971 218.676L232.443 152.956C241.896 149.312 252.273 149.312 261.726 152.956L432.198 218.676C436.37 220.284 439.971 223.201 442.516 227.032C445.06 230.862 446.424 235.422 446.424 240.095C446.424 243.767 445.582 247.385 443.968 250.641C442.354 253.897 440.016 256.695 437.154 258.798C434.292 260.9 430.989 262.245 427.526 262.718C424.064 263.191 420.544 262.778 417.266 261.515Z" fill="#3F3D56"/>
<path d="M272.199 465.239H230.629C226.217 465.234 221.987 463.389 218.868 460.108C215.748 456.827 213.993 452.379 213.988 447.739V341.863C213.993 337.224 215.748 332.775 218.868 329.495C221.987 326.214 226.217 324.369 230.629 324.363H272.199C276.611 324.369 280.841 326.214 283.96 329.495C287.08 332.775 288.835 337.224 288.84 341.863V447.739C288.835 452.379 287.08 456.827 283.96 460.108C280.841 463.389 276.611 465.234 272.199 465.239ZM230.629 327.363C226.973 327.368 223.469 328.897 220.884 331.615C218.299 334.333 216.845 338.019 216.841 341.863V447.739C216.845 451.584 218.299 455.269 220.884 457.987C223.469 460.706 226.973 462.235 230.629 462.239H272.199C275.855 462.235 279.359 460.706 281.944 457.987C284.529 455.269 285.983 451.584 285.987 447.739V341.863C285.983 338.019 284.529 334.333 281.944 331.615C279.359 328.897 275.855 327.368 272.199 327.363H230.629Z" fill="#3F3D56"/>
<path d="M276.232 99.1816C275.562 91.3103 272.116 83.9875 266.571 78.6542C261.025 73.3209 253.783 70.3633 246.269 70.3633C238.754 70.3633 231.512 73.3209 225.966 78.6542C220.421 83.9875 216.975 91.3103 216.305 99.1816H276.232Z" fill="white"/>
<path d="M216.192 102.572C216.331 110.865 219.561 118.768 225.186 124.581C230.811 130.394 238.382 133.651 246.268 133.651C254.154 133.651 261.725 130.394 267.35 124.581C272.975 118.768 276.205 110.865 276.343 102.572H216.192Z" fill="white"/>
<path d="M271.521 137.541H221.015C218.609 137.541 216.301 136.536 214.6 134.746C212.898 132.957 211.942 130.53 211.942 128C211.942 125.47 212.898 123.043 214.6 121.253C216.301 119.464 218.609 118.459 221.015 118.459H271.521C273.927 118.459 276.235 119.464 277.936 121.253C279.638 123.043 280.594 125.47 280.594 128C280.594 130.53 279.638 132.957 277.936 134.746C276.235 136.536 273.927 137.541 271.521 137.541Z" fill="#CCCCCC"/>
<path d="M101.506 357.442C99.3518 357.442 97.286 358.342 95.763 359.944C94.2399 361.546 93.3843 363.718 93.3843 365.983C93.3843 368.249 94.2399 370.421 95.763 372.023C97.286 373.625 99.3518 374.524 101.506 374.524H172.43C174.584 374.524 176.65 373.625 178.173 372.023C179.696 370.421 180.551 368.249 180.551 365.983C180.551 363.718 179.696 361.546 178.173 359.944C176.65 358.342 174.584 357.442 172.43 357.442H101.506Z" fill="#CCCCCC"/>
<path d="M321.8 324.169V357.626C321.8 360.442 322.863 363.143 324.757 365.134C326.65 367.125 329.218 368.244 331.896 368.244H383.703C386.38 368.244 388.948 367.125 390.842 365.134C392.735 363.143 393.799 360.442 393.799 357.626V324.169H321.8Z" fill="white"/>
<path d="M393.799 320.778V299.187C393.799 296.371 392.735 293.67 390.842 291.679C388.948 289.688 386.38 288.569 383.703 288.569H331.896C329.218 288.569 326.65 289.688 324.757 291.679C322.863 293.67 321.8 296.371 321.8 299.187V320.778H393.799Z" fill="white"/>
<path d="M276.129 398.192C279.393 398.192 282.039 395.409 282.039 391.976C282.039 388.544 279.393 385.761 276.129 385.761C272.865 385.761 270.219 388.544 270.219 391.976C270.219 395.409 272.865 398.192 276.129 398.192Z" fill="#3F3D56"/>
<path d="M77.6 395.977L54.3198 357.893L55.3972 357.164L77.4878 393.303L95.4888 357.216L96.6222 357.841L77.6 395.977Z" fill="#3F3D56"/>
<path d="M96.5573 345.409H41.1763V344.399C41.1763 342.763 40.8699 341.143 40.2747 339.632C39.6794 338.121 38.8069 336.748 37.7071 335.591C36.6072 334.434 35.3015 333.517 33.8645 332.891C32.4274 332.265 30.8872 331.942 29.3317 331.942C27.7763 331.942 26.2361 332.265 24.799 332.891C23.362 333.517 22.0563 334.434 20.9564 335.591C19.8566 336.748 18.9841 338.121 18.3888 339.632C17.7936 341.143 17.4872 342.763 17.4872 344.399V345.409H12.0452C8.90384 345.409 5.89115 346.721 3.66988 349.057C1.44861 351.393 0.200684 354.562 0.200684 357.865C0.200684 361.169 1.44861 364.337 3.66988 366.673C5.89115 369.009 8.90384 370.322 12.0452 370.322H17.4872V464.457C41.0882 463.96 17.3164 464.96 41.1763 464.457V370.322H96.5573C99.6986 370.322 102.711 369.009 104.933 366.673C107.154 364.337 108.402 361.169 108.402 357.865C108.402 354.562 107.154 351.393 104.933 349.057C102.711 346.721 99.6986 345.409 96.5573 345.409Z" fill="#3F3D56"/>
<path d="M29.0115 362.242C31.4867 362.242 33.4932 360.132 33.4932 357.529C33.4932 354.926 31.4867 352.815 29.0115 352.815C26.5363 352.815 24.5298 354.926 24.5298 357.529C24.5298 360.132 26.5363 362.242 29.0115 362.242Z" fill="white"/>
<path d="M103.595 419.974H52.3844C49.9656 419.971 47.6466 418.959 45.9363 417.161C44.226 415.362 43.2639 412.923 43.2612 410.379V392.882C43.264 390.339 44.2261 387.9 45.9364 386.101C47.6467 384.303 49.9656 383.291 52.3844 383.288H103.595C106.014 383.291 108.333 384.303 110.043 386.101C111.753 387.9 112.715 390.339 112.718 392.882V410.379C112.715 412.923 111.753 415.362 110.043 417.161C108.333 418.959 106.014 419.971 103.595 419.974Z" fill="#CCCCCC"/>
<path d="M93.996 397.255H61.3436C59.3988 397.255 57.8223 398.913 57.8223 400.958C57.8223 403.003 59.3988 404.661 61.3436 404.661H93.996C95.9408 404.661 97.5173 403.003 97.5173 400.958C97.5173 398.913 95.9408 397.255 93.996 397.255Z" fill="#24BA63"/>
<path d="M392.724 375.524H321.8C319.394 375.524 317.086 374.519 315.385 372.73C313.683 370.941 312.728 368.514 312.728 365.983C312.728 363.453 313.683 361.026 315.385 359.237C317.086 357.448 319.394 356.442 321.8 356.442H392.724C395.13 356.442 397.438 357.448 399.139 359.237C400.84 361.026 401.796 363.453 401.796 365.983C401.796 368.514 400.84 370.941 399.139 372.73C397.438 374.519 395.13 375.524 392.724 375.524Z" fill="#CCCCCC"/>
<path d="M487.997 153.959C487.997 153.959 470.798 152.676 435.699 150.959C393.861 73.9595 257.883 55.3994 257.883 0.000137329L425.014 0C441.736 0 457.773 6.98596 469.597 19.4211C481.421 31.8561 488.064 48.7217 488.064 66.3076L487.997 153.959Z" fill="#CCCCCC"/>
<path d="M343.042 20.2441C342.664 20.2446 342.301 20.4027 342.034 20.684C341.767 20.9652 341.616 21.3464 341.616 21.7441V71.8242C341.616 72.2219 341.767 72.6032 342.034 72.8844C342.301 73.1656 342.664 73.3238 343.042 73.3242H372.705C373.083 73.3238 373.445 73.1656 373.713 72.8844C373.98 72.6032 374.13 72.2219 374.131 71.8242V21.7441C374.13 21.3464 373.98 20.9652 373.713 20.684C373.445 20.4027 373.083 20.2446 372.705 20.2441H343.042Z" fill="#F2F2F2"/>
<path d="M425.428 149.921L269.888 51.329C260.435 47.6845 250.058 47.6845 240.605 51.329L85.0654 149.921C81.7872 151.185 78.2673 151.598 74.8049 151.125C71.3425 150.652 68.0398 149.307 65.1774 147.204C62.315 145.101 59.9775 142.303 58.3635 139.047C56.7496 135.791 55.9067 132.173 55.9067 128.501C55.9067 123.829 57.2712 119.269 59.8155 115.438C62.3598 111.607 65.9613 108.69 70.1331 107.082L240.605 2.73338C250.058 -0.911128 260.435 -0.911128 269.888 2.73338L440.36 107.082C444.532 108.69 448.134 111.607 450.678 115.438C453.222 119.268 454.587 123.829 454.587 128.501C454.587 132.173 453.744 135.791 452.13 139.047C450.516 142.303 448.178 145.101 445.316 147.204C442.454 149.307 439.151 150.652 435.689 151.125C432.226 151.598 428.706 151.185 425.428 149.921Z" fill="#CCCCCC"/>
</g>
<defs>
<clipPath id="clip0_142_3307">
<rect width="489" height="465" fill="white"/>
</clipPath>
</defs>
</svg>
