<svg width="546" height="406" viewBox="0 0 546 406" fill="none" xmlns="http://www.w3.org/2000/svg">
<path d="M441.87 258.336C442.359 258.383 442.849 258.273 443.275 258.021C443.701 257.769 444.042 257.388 444.252 256.928C444.461 256.469 444.53 255.953 444.448 255.452C444.366 254.95 444.138 254.487 443.794 254.125C443.745 253.874 443.71 253.693 443.661 253.442C443.685 253.389 443.709 253.336 443.733 253.283C444.28 252.099 445.152 251.11 446.239 250.438C447.327 249.767 448.581 249.444 449.845 249.51C451.108 249.576 452.325 250.028 453.342 250.809C454.359 251.59 455.131 252.665 455.561 253.9C457.279 258.828 459.525 263.791 459.902 268.932C460.068 271.204 459.852 273.49 459.265 275.686C464.271 265.62 467.132 254.556 467.655 243.242C467.783 240.403 467.759 237.559 467.581 234.722C467.433 232.397 467.187 230.084 466.843 227.782C464.963 215.293 460.253 203.444 453.102 193.209C449.52 190.951 446.691 187.608 444.997 183.63C444.383 182.2 443.971 180.686 443.775 179.133C444.187 179.21 444.607 179.265 445.02 179.313C445.149 179.327 445.285 179.34 445.414 179.354L445.462 179.358C445.917 179.402 446.374 179.307 446.779 179.087C447.183 178.867 447.517 178.531 447.742 178.118C447.966 177.705 448.071 177.234 448.043 176.761C448.015 176.289 447.856 175.834 447.585 175.453C447.416 175.216 447.247 174.978 447.078 174.741C446.822 174.376 446.559 174.017 446.303 173.651C446.273 173.616 446.245 173.579 446.22 173.541C445.925 173.124 445.63 172.714 445.335 172.297C445.947 171.405 446.749 170.672 447.679 170.155C450.898 168.403 455.162 169.93 457.293 172.98C459.432 176.031 459.675 180.177 458.721 183.813C457.806 186.902 456.39 189.806 454.535 192.402C454.695 192.636 454.862 192.863 455.021 193.097C457.942 197.391 460.449 201.972 462.508 206.774C462.192 201.491 463.09 196.205 465.127 191.352C467.173 186.836 470.795 183.125 474.01 179.291C477.872 174.686 485.258 177.134 485.629 183.226C485.632 183.285 485.636 183.344 485.639 183.403C485.176 183.645 484.722 183.904 484.277 184.179C483.717 184.529 483.273 185.046 483.001 185.663C482.73 186.28 482.644 186.967 482.756 187.635C482.867 188.303 483.171 188.92 483.626 189.406C484.082 189.892 484.668 190.224 485.308 190.359L485.374 190.372C485.138 192.051 484.779 193.709 484.3 195.331C482.921 199.858 480.656 204.041 477.646 207.617C474.636 211.193 470.946 214.085 466.808 216.112C466.537 216.24 466.272 216.369 466.001 216.49C467.981 223.305 469.098 230.358 469.324 237.471C469.445 241.667 469.238 245.866 468.706 250.028L468.733 249.881C469.812 245.277 472.389 241.2 476.029 238.339C481.432 234.155 488.858 232.876 494.633 229.582C495.248 229.213 495.951 229.035 496.66 229.067C497.369 229.1 498.055 229.342 498.636 229.765C499.217 230.189 499.669 230.776 499.939 231.457C500.209 232.138 500.285 232.885 500.159 233.61C500.149 233.661 500.139 233.713 500.129 233.764C499.276 234.078 498.443 234.446 497.634 234.867C497.172 235.109 496.718 235.368 496.272 235.643C495.713 235.993 495.268 236.51 494.997 237.127C494.725 237.744 494.64 238.431 494.751 239.099C494.863 239.767 495.166 240.384 495.622 240.87C496.077 241.356 496.663 241.688 497.304 241.823L497.369 241.836C497.417 241.846 497.457 241.855 497.504 241.864C495.915 245.338 493.762 248.502 491.138 251.218C487.9 254.502 484.05 257.065 479.823 258.751C475.596 260.437 471.082 261.209 466.558 261.02L466.551 261.02C465.075 266.496 463.054 271.799 460.521 276.842L441.557 275.926C441.499 275.704 441.448 275.475 441.397 275.254C443.147 275.453 444.914 275.429 446.659 275.183C445.332 273.324 444.006 271.45 442.679 269.591C442.65 269.556 442.622 269.519 442.596 269.481C441.923 268.53 441.244 267.585 440.571 266.634L440.571 266.633C440.659 263.821 441.095 261.033 441.87 258.336L441.87 258.336Z" fill="#F2F2F2"/>
<path d="M59.7767 88.201C59.2923 88.2792 58.7965 88.201 58.3564 87.977C57.9163 87.753 57.5532 87.394 57.3163 86.9488C57.0794 86.5035 56.9801 85.9935 57.032 85.4877C57.0838 84.982 57.2842 84.505 57.6061 84.1214C57.6401 83.8675 57.6645 83.6852 57.6985 83.4313C57.6715 83.3799 57.6442 83.3286 57.6169 83.2774C57.0005 82.1309 56.0713 81.1989 54.946 80.5986C53.8208 79.9983 52.5496 79.7563 51.2922 79.9031C50.0348 80.0499 48.8473 80.5789 47.8787 81.4237C46.9102 82.2685 46.2039 83.3914 45.8485 84.6514C44.4274 89.6804 42.4811 94.777 42.4108 99.9326C42.3807 102.211 42.7318 104.478 43.4486 106.633C37.8529 96.9073 34.3381 86.0473 33.1425 74.789C32.8453 71.9635 32.7006 69.123 32.7091 66.2808C32.7181 63.9506 32.8257 61.6257 33.032 59.3064C34.1652 46.7202 38.1599 34.5924 44.6879 23.919C48.1287 21.4355 50.753 17.9174 52.2072 13.8388C52.7352 12.372 53.0558 10.8338 53.1589 9.27175C52.7522 9.37446 52.3365 9.45687 51.9268 9.53149C51.799 9.55298 51.6645 9.57529 51.5367 9.59683L51.4884 9.60456C51.0372 9.67685 50.5754 9.61226 50.1586 9.41858C49.7419 9.22489 49.388 8.91037 49.1396 8.51287C48.8912 8.11536 48.7588 7.65182 48.7584 7.17806C48.7579 6.7043 48.8895 6.24051 49.1372 5.84253C49.2916 5.59494 49.446 5.34745 49.6005 5.10007C49.8343 4.7186 50.0756 4.3434 50.3094 3.96199C50.3371 3.92513 50.3628 3.88665 50.3863 3.84674C50.6556 3.41157 50.9255 2.98346 51.1947 2.54829C50.5308 1.69773 49.6866 1.01778 48.7278 0.561435C45.4107 -0.98157 41.2461 0.816327 39.3003 3.99715C37.3478 7.17867 37.3521 11.3325 38.5201 14.9005C39.6179 17.9247 41.2039 20.7331 43.21 23.2052C43.0644 23.4489 42.9113 23.6863 42.7658 23.93C40.1068 28.4031 37.8767 33.1358 36.1075 38.0603C36.1084 32.7671 34.898 27.5492 32.576 22.8359C30.2647 18.46 26.4283 14.9878 22.991 11.3672C18.8621 7.01831 11.6362 9.93506 11.6291 16.0394C11.629 16.0985 11.6291 16.1576 11.6293 16.2166C12.1058 16.4287 12.5744 16.658 13.0352 16.9045C13.6146 17.2179 14.0891 17.7056 14.3968 18.3037C14.7044 18.9017 14.8307 19.5822 14.7592 20.256C14.6877 20.9299 14.4216 21.5655 13.9959 22.0798C13.5703 22.5941 13.0048 22.9629 12.3736 23.1381L12.3089 23.156C12.6448 24.8165 13.1019 26.448 13.6761 28.0366C15.322 32.4665 17.8322 36.4959 21.0494 39.8721C24.2665 43.2483 28.1213 45.8986 32.3719 47.6567C32.6504 47.7673 32.9222 47.8786 33.2 47.9822C31.6302 54.9107 30.9354 62.0215 31.133 69.1359C31.2625 73.3317 31.7189 77.5098 32.4975 81.6293L32.4618 81.4842C31.1111 76.9581 28.2964 73.0543 24.4929 70.432C18.8505 66.602 11.3623 65.8022 5.40245 62.8844C4.76712 62.5559 4.05448 62.4227 3.34857 62.5005C2.64267 62.5784 1.97295 62.8641 1.4184 63.3239C0.863846 63.7837 0.447595 64.3984 0.218741 65.0956C-0.0101122 65.7928 -0.0420266 66.5434 0.126766 67.2588C0.139668 67.3096 0.152706 67.3603 0.165868 67.4111C1.03575 67.6691 1.88929 67.9831 2.72155 68.3512C3.19797 68.5633 3.6666 68.7926 4.12743 69.0391C4.70677 69.3525 5.18134 69.8402 5.48896 70.4383C5.79658 71.0363 5.9229 71.7168 5.85138 72.3907C5.77986 73.0645 5.51383 73.7001 5.08815 74.2144C4.66246 74.7287 4.09697 75.0976 3.46578 75.2727L3.40109 75.2906C3.35449 75.303 3.31463 75.3146 3.2681 75.327C5.061 78.6922 7.39883 81.7121 10.1792 84.2545C13.6065 87.325 17.6022 89.6368 21.9213 91.0482C26.2403 92.4596 30.7917 92.9409 35.2964 92.4625L35.3032 92.4617C37.1028 97.8332 39.4355 102.996 42.2638 107.867L61.1365 105.737C61.1814 105.512 61.2187 105.281 61.2568 105.056C59.5218 105.367 57.7567 105.457 56.0008 105.323C57.2142 103.382 58.426 101.427 59.6394 99.4867C59.6671 99.4499 59.6928 99.4114 59.7163 99.3715C60.3309 98.379 60.953 97.3927 61.5676 96.4002L61.5679 96.3991C61.3125 93.5981 60.7107 90.8429 59.7772 88.2014L59.7767 88.201Z" fill="#F2F2F2"/>
<path d="M320.519 80.9446C321.453 81.2113 322.32 81.6872 323.057 82.3389C323.795 82.9905 324.386 83.8021 324.789 84.7163C325.191 85.6306 325.396 86.6253 325.388 87.6305C325.38 88.6357 325.16 89.6268 324.743 90.5341L334.87 102.216L329.529 110.333L315.45 93.6273C314.027 92.7994 312.947 91.4587 312.413 89.8594C311.88 88.2602 311.93 86.5134 312.555 84.95C313.18 83.3867 314.336 82.1155 315.803 81.3773C317.271 80.6391 318.949 80.4851 320.519 80.9446Z" fill="#A0616A"/>
<path d="M415.332 109.63C414.419 108.089 413.221 106.749 411.808 105.688C410.395 104.628 408.794 103.867 407.097 103.45C405.4 103.032 403.64 102.967 401.919 103.257C400.197 103.547 398.548 104.186 397.065 105.139L363.758 126.542L327.829 94.8555L318.89 103.491L358.581 156.919L410.167 129.018C408.963 129.669 416.786 112.087 415.332 109.63Z" fill="#CCCCCC"/>
<path d="M349.349 180.796C349.352 197.863 346.115 214.763 339.821 230.532C333.528 246.301 324.301 260.628 312.67 272.697C301.038 284.765 287.228 294.337 272.03 300.867C256.832 307.397 240.542 310.756 224.092 310.753C154.916 310.753 98.8355 252.568 98.8355 180.796C98.8236 166.835 100.981 152.963 105.224 139.715C113.554 113.84 129.513 91.3378 150.844 75.3888C172.175 59.4398 197.799 50.8516 224.092 50.8386C246.768 50.8305 269.021 57.2113 288.475 69.3001C307.928 81.3889 323.853 98.7318 334.548 119.478C337.2 124.596 339.513 129.896 341.472 135.34C341.743 136.098 342.008 136.856 342.265 137.621V137.628C343.413 140.993 344.425 144.42 345.299 147.909C347.997 158.647 349.358 169.699 349.349 180.796Z" fill="#4E4E4E"/>
<path d="M210.388 93.1152C204.759 89.957 198.509 88.1742 192.115 87.9028C185.722 87.6314 179.352 88.8785 173.493 91.5491C168.335 93.8783 162.903 98.0568 161.182 105.602C168.142 101.341 177.152 108.074 178.943 118.876L178.525 118.995C177.579 126.477 179.69 134.623 183.779 139.262C184.315 134.443 187.369 131.164 190.373 129.115C193.377 127.066 196.7 125.578 198.992 122.056C201.71 117.882 202.401 111.78 203.48 106.214C204.56 100.648 206.609 94.6662 210.388 93.1152Z" fill="white"/>
<path d="M171.429 156.782C169.501 159.786 166.926 161.67 164.616 164.017C162.313 166.37 160.121 169.547 159.662 173.626C159.369 176.24 159.822 178.897 159.759 181.539C159.696 184.182 158.847 187.156 157.115 187.813C154.38 188.838 152.292 183.568 149.481 183.2C147.247 182.911 145.236 186.557 145.883 189.719C146.531 192.882 149.571 194.282 151.318 192.217C152.898 194.968 151.784 199.957 149.411 200.802C149.161 202.534 148.91 204.26 148.667 205.993C142.668 201.639 136.607 197.213 131.507 190.838C125.834 183.808 122.315 175.18 121.403 166.06C120.742 158.732 121.723 150.35 118.48 144.711C115.884 140.199 111.431 139.202 107.423 139.484C106.692 139.534 105.954 139.621 105.224 139.715C107.587 132.349 110.59 125.22 114.193 118.416C115.009 118.053 115.767 117.564 116.441 116.965C120.171 113.68 121.827 107.031 124.854 102.431C125.049 102.135 125.251 101.847 125.46 101.565C128.556 97.3704 132.704 95.2116 136.712 93.2045C145.584 88.7355 154.714 84.2086 164.08 84.8295L161.415 85.0967C158.305 94.1359 155.192 103.175 152.077 112.214C151.603 113.601 151.126 114.989 150.643 116.38C148.876 121.521 147.052 126.993 147.324 132.748C147.484 136.155 148.625 139.794 150.796 140.964C152.821 142.047 155.034 140.718 156.989 139.404C157.818 138.856 158.639 138.307 159.467 137.751C162.438 135.765 165.73 133.729 168.868 135.058C171.742 136.271 173.864 140.321 174.268 144.689C174.638 148.935 173.639 153.189 171.429 156.782Z" fill="white"/>
<path d="M189.101 218.495C180.423 212.952 171.745 207.408 163.066 201.864L163.214 201.471C157.818 203.603 155.578 213.554 156.47 221.692C157.361 229.83 160.385 237.104 161.912 245.034C163.972 255.885 163.195 267.11 159.661 277.544C171.072 264.259 181.171 249.821 189.806 234.446C191.013 232.508 191.932 230.394 192.533 228.173C193.084 225.81 193 222.97 191.896 221.075C191.185 219.987 190.225 219.101 189.101 218.495Z" fill="white"/>
<path d="M154.851 117.638C153.93 119.787 153.575 122.654 154.412 124.878C155.266 127.15 157.071 128.176 158.733 129.031L163.528 131.497C165.124 132.317 166.843 133.146 168.469 132.471C170.431 131.657 171.791 128.467 171.439 125.505C171.064 122.353 169.15 120.185 167.379 118.339C164.9 115.755 162.422 113.171 159.944 110.588L158.547 112.363C157.036 113.892 155.787 115.675 154.851 117.638Z" fill="white"/>
<path d="M323.644 151.331C325.801 151.858 327.958 152.385 330.115 152.912C329.74 160.472 326.128 167.468 321.285 170.002C319.267 171.056 317.019 171.446 315.349 173.417C313.839 175.207 313.073 177.994 312.371 180.658C311.139 185.308 309.907 189.957 308.676 194.607C307.353 199.618 305.656 205.184 302.218 206.989C299.267 208.541 295.892 206.642 293.624 203.459C291.355 200.275 289.971 195.993 288.627 191.82C288.711 196.369 286.672 200.831 283.784 202.412C280.889 203.993 277.368 202.563 275.434 199.033C274.042 196.499 273.465 193.156 272.101 190.586C270.737 188.015 267.877 186.542 266.388 188.954C265.406 190.557 265.531 193.011 265.044 195.047C264.286 198.21 261.99 200.195 259.714 200.368C257.446 200.542 255.233 199.184 253.333 197.343C249.415 193.531 246.527 187.481 245.407 180.759C244.913 177.763 244.774 174.5 245.63 171.691C246.486 168.883 248.552 166.717 250.605 167.251C251.955 164.291 249.29 160.363 246.889 160.71C244.481 161.056 242.596 163.735 240.619 165.793C238.65 167.85 235.895 169.345 233.911 167.302C233.925 169.2 232.436 170.457 231.149 170.298C229.868 170.146 228.727 169.078 227.551 168.32C223.007 165.381 217.238 167.331 214.009 172.89C216.027 163.98 218.985 153.757 225.185 151.663C227.718 150.804 230.481 151.512 232.874 150.024C237.112 147.389 237.968 137.433 234.308 133.325C234.774 137.209 234.684 141.743 232.707 144.4C230.731 147.057 226.584 145.324 226.834 141.397C226.264 144.104 223.424 144.516 222.116 142.436C220.801 140.357 220.912 136.957 221.845 134.473C222.777 131.989 224.364 130.206 225.902 128.495C229.207 124.82 232.561 121.102 236.388 118.791C240.223 116.481 244.649 115.701 248.49 117.997C250.515 119.21 252.296 121.232 254.363 122.3C256.43 123.376 259.053 123.239 260.424 120.726C261.962 117.925 261.238 113.766 261.809 110.265C262.832 104.078 268.795 101.182 272.101 105.269C269.63 104.612 267.076 107.644 266.77 111.319C266.457 114.994 268.245 118.705 270.639 119.817C274.661 121.665 278.6 117.015 281.641 112.712C284.814 108.207 287.992 103.704 291.174 99.2041C291.683 98.4379 292.253 97.7181 292.879 97.0526C293.876 96.0447 295.205 95.4674 296.596 95.438C297.988 95.4085 299.338 95.9289 300.374 96.8938C303.589 99.6156 305.099 105.197 307.736 109.038C311.563 114.618 317.291 115.976 322.621 117.059C326.594 117.86 330.57 118.666 334.548 119.477C337.2 124.596 339.513 129.895 341.472 135.339C334.736 138.307 328.522 143.859 323.644 151.331Z" fill="white"/>
<path d="M336.489 238.201C333.508 244.481 330.04 250.501 326.121 256.2C323.616 255.088 320.923 257.073 318.578 258.936C316.128 260.885 313.185 262.784 310.672 261.008C308.105 259.189 307.277 254.099 308.091 250.063C308.905 246.034 310.937 242.828 312.906 239.782C314.994 236.547 317.228 233.19 320.129 231.934C323.038 230.677 326.775 232.453 327.624 236.742L329.684 236.67C328.528 235.024 329.134 231.616 330.686 231.017C332.474 230.316 334.026 232.865 335.084 235.118C335.557 236.136 336.037 237.161 336.489 238.201Z" fill="white"/>
<path d="M257.602 207.705C253.174 207.993 249.667 202.339 247.337 196.775C245.007 191.212 242.88 184.851 238.885 182.019C236.603 180.401 234 180.179 231.525 179.395C229.049 178.611 226.457 176.989 225.274 173.685L222.465 172.508C218.756 174.671 214.998 176.875 211.802 180.396C208.218 184.347 205.985 189.411 205.449 194.808C204.912 200.64 206.893 207.144 210.595 209.335C213.52 211.066 216.925 209.975 219.888 211.559C223.59 213.54 225.787 219.292 226.619 224.971C227.451 230.651 227.24 236.553 227.835 242.297C228.431 248.041 230.071 254.018 233.466 256.961C237.714 260.645 243.947 257.584 245.853 250.879C246.788 247.59 246.756 243.878 247.455 240.464C248.686 234.452 252.009 229.991 254.644 225.059C257.28 220.127 259.354 213.428 257.602 207.705Z" fill="white"/>
<path d="M213.853 148.624C214.266 149.018 214.651 149.442 215.006 149.893C215.373 150.55 215.56 151.299 215.548 152.058C215.535 152.817 215.323 153.558 214.935 154.202C215.468 154.17 215.989 154.024 216.465 153.773C216.942 153.522 217.362 153.171 217.701 152.743C218.509 151.788 219.22 150.749 219.823 149.643C220.274 148.879 220.754 147.846 220.448 146.938C220.239 146.319 219.744 146.055 219.397 145.589C218.848 144.851 218.712 143.678 218.427 142.665C217.813 140.477 216.341 138.868 214.744 138.638L214.966 138.682C214.298 138.919 213.832 140.018 213.98 141.008C214.114 141.909 214.672 142.657 214.617 143.575C214.537 144.897 213.264 145.517 213.186 146.838C213.173 147.501 213.413 148.143 213.853 148.624Z" fill="white"/>
<path d="M206.267 126.17C206.274 126.168 206.28 126.167 206.287 126.166C206.423 126.037 206.549 125.897 206.665 125.748L206.267 126.17Z" fill="#E6E6E6"/>
<path d="M207.595 132.372C208.574 131.719 209.12 129.913 208.797 128.401C208.475 126.898 207.337 125.888 206.287 126.166C205.982 126.486 205.604 126.721 205.188 126.848C204.772 126.975 204.331 126.99 203.908 126.892C203.259 126.719 202.546 126.272 201.983 126.78C201.661 127.159 201.436 127.615 201.328 128.108C201.119 128.772 200.911 129.435 200.702 130.099C200.603 130.337 200.578 130.6 200.628 130.853C200.668 130.955 200.733 131.044 200.816 131.112C200.898 131.181 200.997 131.226 201.101 131.243C202.351 131.626 203.602 132.008 204.852 132.39C205.763 132.669 206.747 132.938 207.595 132.372Z" fill="white"/>
<path d="M301.984 217.998C301.406 217.017 300.828 216.035 300.25 215.053C299.682 213.916 298.906 212.905 297.965 212.077C297.758 211.897 297.519 211.762 297.261 211.679C297.003 211.597 296.732 211.569 296.463 211.597C296.195 211.625 295.934 211.708 295.697 211.842C295.46 211.976 295.251 212.157 295.083 212.376L295.153 212.937C296.471 214.652 297.865 216.557 298.199 219.102C298.33 220.105 298.285 221.143 298.4 222.151C298.516 223.159 298.844 224.204 299.471 224.638C300.381 225.269 301.45 224.339 302.097 223.204C302.676 222.272 302.936 221.165 302.835 220.061C302.69 219.32 302.401 218.618 301.984 217.998Z" fill="white"/>
<path d="M327.706 180.504C327.873 179.367 328.04 178.23 328.207 177.092C328.479 175.843 328.512 174.551 328.307 173.289C328.26 173.013 328.161 172.75 328.015 172.514C327.868 172.279 327.678 172.076 327.456 171.918C327.233 171.76 326.982 171.65 326.717 171.594C326.453 171.538 326.18 171.537 325.916 171.592L325.622 172.068C325.565 174.26 325.449 176.649 324.125 178.819C323.603 179.675 322.924 180.439 322.387 181.287C321.85 182.135 321.452 183.154 321.662 183.905C321.967 184.996 323.362 184.998 324.562 184.563C325.583 184.236 326.469 183.563 327.077 182.651C327.426 181.987 327.64 181.257 327.706 180.504Z" fill="#E6E6E6"/>
<path d="M311.051 219.276C311.333 218.433 310.925 217.467 310.839 216.535C310.798 215.332 311.105 214.144 311.722 213.124C312.334 212.162 312.798 211.106 313.097 209.996C313.223 209.49 313.2 208.956 313.031 208.464C312.839 208.018 312.376 207.815 312.11 208.168L312.679 208.548C311.911 208.406 311.122 208.445 310.371 208.664C309.942 208.834 309.559 209.109 309.255 209.465C308.95 209.821 308.733 210.248 308.621 210.71C308.527 211.43 308.374 212.14 308.163 212.833C307.823 213.556 307.166 213.797 306.754 214.432C306.472 214.995 306.33 215.622 306.34 216.256C306.35 216.89 306.513 217.512 306.812 218.065C307.33 218.97 308.154 219.642 309.124 219.951C309.818 220.21 310.733 220.223 311.051 219.276Z" fill="white"/>
<path d="M327.196 224.33C327.447 225.008 327.784 225.649 328.197 226.235C328.97 227.043 330.02 226.547 330.958 226.35C331.809 226.211 332.68 226.313 333.48 226.646C334.279 226.978 334.977 227.529 335.5 228.24C335.136 226.359 334.342 224.595 333.185 223.097C332.028 221.6 330.542 220.412 328.851 219.634C326.64 218.699 324.312 218.609 322.013 218.525L321.616 218.63C322.628 221.686 325.805 221.618 327.196 224.33Z" fill="white"/>
<path d="M258.812 230.581L258.818 230.594C258.857 230.517 258.895 230.44 258.933 230.363L258.812 230.581Z" fill="#E6E6E6"/>
<path d="M256.363 235.5C255.829 236.506 255.37 237.553 254.989 238.631C254.485 240.379 254.152 242.174 253.993 243.99C253.869 245.023 253.831 246.342 254.454 246.845C254.633 246.969 254.85 247.02 255.062 246.99C255.275 246.96 255.471 246.851 255.612 246.682C255.958 246.302 256.241 245.865 256.45 245.389C257.676 243.198 258.628 240.855 259.283 238.415C259.879 235.845 259.874 232.819 258.819 230.594C258 232.229 257.182 233.864 256.363 235.5Z" fill="white"/>
<path d="M232.734 104.448C233.123 104.843 233.615 105.111 234.149 105.219C234.683 105.327 235.235 105.271 235.739 105.057C236.782 104.584 237.738 103.928 238.567 103.119C239.253 102.592 239.835 101.933 240.281 101.179C240.527 100.728 240.684 100.231 240.744 99.7162C240.805 99.2018 240.766 98.6801 240.632 98.1811C240.244 97.006 239.262 96.6121 238.395 96.3454C237.007 95.9184 235.619 95.4915 234.231 95.0645L235.235 94.1257C234.202 93.5506 233.06 94.618 232.414 95.9395C232 96.8023 231.712 97.7241 231.558 98.6746C231.212 100.749 231.55 103.219 232.734 104.448Z" fill="#E6E6E6"/>
<path d="M257.235 95.9141C257.626 96.3615 258.167 96.6377 258.747 96.6867C259.327 96.7357 259.904 96.5538 260.36 96.1779C260.752 95.8722 261.078 95.4843 261.316 95.0393C261.554 94.5943 261.699 94.1023 261.742 93.5953C261.84 92.4627 261.3 91.2038 260.529 91.1061L260.706 90.0456C259.221 89.7674 257.393 89.7117 256.597 91.5827C256.329 92.2994 256.247 93.0767 256.359 93.8368C256.47 94.5969 256.773 95.3132 257.235 95.9141Z" fill="#E6E6E6"/>
<path d="M253.962 39.5237C245.257 38.5048 236.517 41.1158 229.667 46.7823C222.816 52.4488 218.416 60.7067 217.434 69.7392C215.389 88.5485 224.94 129.393 242.353 146.302C250.552 113.907 279.284 94.6924 283.085 77.4226C287.147 58.9692 272.091 41.6454 253.962 39.5237Z" fill="#24BA63"/>
<path d="M247.941 81.3387C253.891 81.3387 258.715 76.3343 258.715 70.1611C258.715 63.9879 253.891 58.9835 247.941 58.9835C241.991 58.9835 237.168 63.9879 237.168 70.1611C237.168 76.3343 241.991 81.3387 247.941 81.3387Z" fill="white"/>
<path d="M236.613 162.418C240.511 162.418 243.67 159.14 243.67 155.097C243.67 151.054 240.511 147.776 236.613 147.776C232.716 147.776 229.557 151.054 229.557 155.097C229.557 159.14 232.716 162.418 236.613 162.418Z" fill="#24BA63"/>
<path opacity="0.2" d="M256.855 62.1529C258.068 62.9089 259.125 63.9054 259.966 65.0853C260.808 66.2653 261.417 67.6056 261.759 69.0299C262.102 70.4541 262.17 71.9344 261.961 73.3861C261.752 74.8378 261.269 76.2325 260.54 77.4907C259.812 78.7489 258.851 79.8458 257.714 80.7189C256.577 81.592 255.285 82.2241 253.912 82.5792C251.14 83.2962 248.206 82.8413 245.757 81.3145C248.254 81.8908 250.868 81.5263 253.129 80.2862C255.391 79.0461 257.154 77.0114 258.101 74.5463C259.049 72.0811 259.121 69.3464 258.303 66.8316C257.485 64.3169 255.831 62.1862 253.637 60.821C254.772 61.082 255.859 61.5317 256.855 62.1529Z" fill="#231F20"/>
<path opacity="0.2" d="M283.127 77.4587C279.325 94.7285 250.594 113.943 242.395 146.338C240.758 144.732 239.237 143.003 237.845 141.165C247.058 110.715 274.001 92.2128 277.674 75.527C280.961 60.593 271.727 46.4002 258.476 40.4047C274.516 44.5881 286.85 60.5479 283.127 77.4587Z" fill="#231F20"/>
<path d="M153.005 83.1371C146.467 82.3719 139.904 84.3327 134.76 88.5881C129.615 92.8434 126.311 99.0448 125.573 105.828C124.038 119.953 131.21 150.626 144.287 163.324C150.444 138.996 172.02 124.567 174.875 111.598C177.925 97.74 166.619 84.7304 153.005 83.1371Z" fill="#24BA63"/>
<path d="M148.483 114.539C152.952 114.539 156.574 110.781 156.574 106.145C156.574 101.509 152.952 97.7507 148.483 97.7507C144.015 97.7507 140.393 101.509 140.393 106.145C140.393 110.781 144.015 114.539 148.483 114.539Z" fill="white"/>
<path d="M139.977 175.427C142.903 175.427 145.276 172.965 145.276 169.929C145.276 166.892 142.903 164.431 139.977 164.431C137.05 164.431 134.678 166.892 134.678 169.929C134.678 172.965 137.05 175.427 139.977 175.427Z" fill="#24BA63"/>
<path opacity="0.2" d="M155.177 100.131C156.088 100.699 156.882 101.447 157.514 102.333C158.146 103.219 158.603 104.226 158.86 105.295C159.117 106.365 159.169 107.476 159.012 108.567C158.855 109.657 158.492 110.704 157.945 111.649C157.398 112.594 156.676 113.418 155.822 114.073C154.968 114.729 153.998 115.204 152.967 115.47C151.936 115.737 150.865 115.79 149.814 115.627C148.763 115.464 147.754 115.088 146.843 114.521C148.718 114.953 150.681 114.68 152.379 113.748C154.078 112.817 155.401 111.289 156.113 109.438C156.825 107.587 156.879 105.533 156.264 103.644C155.65 101.756 154.408 100.156 152.761 99.1307C153.613 99.3266 154.429 99.6644 155.177 100.131Z" fill="#231F20"/>
<path opacity="0.2" d="M174.907 111.625C172.052 124.594 150.476 139.024 144.319 163.351C143.089 162.145 141.947 160.847 140.901 159.466C147.82 136.6 168.053 122.705 170.812 110.174C173.281 98.9595 166.346 88.3012 156.395 83.7988C168.44 86.9404 177.702 98.9256 174.907 111.625Z" fill="#231F20"/>
<path d="M406.299 387.214H397.416L393.19 351.665L406.301 351.666L406.299 387.214Z" fill="#A0616A"/>
<path d="M411.077 404.714H404.774L403.649 398.54L400.767 404.714H384.05C383.248 404.714 382.468 404.448 381.823 403.956C381.177 403.463 380.7 402.769 380.462 401.975C380.223 401.182 380.236 400.329 380.497 399.544C380.758 398.758 381.255 398.079 381.914 397.606L395.265 388.04V381.798L409.307 382.668L411.077 404.714Z" fill="#333333"/>
<path d="M371.892 387.214H363.01L358.784 351.665L371.894 351.666L371.892 387.214Z" fill="#A0616A"/>
<path d="M376.671 404.714H370.368L369.243 398.54L366.362 404.714H349.644C348.843 404.714 348.062 404.448 347.417 403.956C346.771 403.463 346.294 402.769 346.056 401.975C345.818 401.182 345.83 400.329 346.091 399.544C346.352 398.758 346.849 398.079 347.509 397.606L360.859 388.04V381.798L374.901 382.668L376.671 404.714Z" fill="#333333"/>
<path d="M338.145 293.357C339.845 296.003 358.338 368.729 358.338 368.729L374.736 370.669L372.789 352.371L369.814 319.989L365.208 298.375C365.208 298.375 381.476 259.962 382.504 256.902L383.235 254.706L388.318 302.564C388.922 304.273 389.185 306.091 389.091 307.908C388.938 310.897 391.828 355.872 391.828 355.872L393.218 372.001L407.267 374.026L412.967 346.118C417.726 337.053 414.998 304.839 413.052 301.841C411.105 298.842 411.879 277.96 411.879 277.96C414.364 277.053 429.185 224.616 421.772 224.926C422.248 222.13 422.622 219.635 422.622 219.635L409.754 208.867L377.549 200.181L369.424 196.134C369.424 196.134 354.913 223.974 355.057 225.358C355.257 227.112 354.87 228.883 353.961 230.376L339.309 281.25C339.309 281.25 336.428 290.686 338.145 293.357Z" fill="#333333"/>
<path d="M419.054 111.312L413.931 100.026L396.493 100.721L390.805 112.462C390.805 112.462 374.55 132.606 374.024 139.155C373.363 147.393 378.862 187.767 373.363 185.15C373.363 185.15 360.398 200.939 368.069 200.939C375.741 200.939 410.443 223.541 412.721 226.083C414.998 228.624 425.163 230.272 424.31 224.966C423.458 219.66 419.054 190.962 419.054 190.962L430.976 145.837C434.407 136.095 435.475 125.167 427.719 118.622L419.054 111.312Z" fill="#CCCCCC"/>
<path d="M354.464 78.0943C352.131 77.1338 349.639 76.6592 347.13 76.6978C344.621 76.7364 342.144 77.2874 339.84 78.3193C337.536 79.3512 335.45 80.8438 333.703 82.7119C331.955 84.58 330.578 86.787 329.653 89.2069C325.759 99.3841 325.114 123.688 332.36 135.868C341.676 119.078 360.525 112.877 365.174 103.836C370.142 94.1756 364.273 82.1342 354.464 78.0943Z" fill="#24BA63"/>
<path d="M346.62 100.713C350.062 100.713 352.852 97.8186 352.852 94.2475C352.852 90.6765 350.062 87.7816 346.62 87.7816C343.178 87.7816 340.388 90.6765 340.388 94.2475C340.388 97.8186 343.178 100.713 346.62 100.713Z" fill="white"/>
<path d="M327.869 144.109C330.123 144.109 331.951 142.213 331.951 139.874C331.951 137.535 330.123 135.639 327.869 135.639C325.615 135.639 323.787 137.535 323.787 139.874C323.787 142.213 325.615 144.109 327.869 144.109Z" fill="#24BA63"/>
<path opacity="0.2" d="M352.767 91.1814C353.909 92.4198 354.53 94.0779 354.494 95.7912C354.458 97.5045 353.769 99.1329 352.576 100.319C351.384 101.504 349.786 102.151 348.135 102.115C346.483 102.08 344.913 101.365 343.769 100.129C345.079 100.844 346.591 101.052 348.034 100.716C349.478 100.38 350.76 99.5223 351.65 98.2956C352.54 97.0689 352.979 95.5536 352.891 94.0211C352.802 92.4885 352.191 91.0387 351.166 89.9312C351.761 90.2556 352.302 90.6778 352.767 91.1814Z" fill="#231F20"/>
<path opacity="0.2" d="M365.193 103.863C360.544 112.904 341.695 119.104 332.378 135.895C331.699 134.741 331.103 133.537 330.595 132.291C340.193 116.746 357.94 110.661 362.431 101.926C366.452 94.1077 363.374 84.7309 356.855 79.2972C365.196 84.1588 369.745 95.0101 365.193 103.863Z" fill="#231F20"/>
<path d="M326.029 138.416C326.978 138.213 327.958 138.228 328.901 138.461C329.843 138.693 330.725 139.138 331.484 139.762C332.244 140.387 332.862 141.176 333.295 142.075C333.728 142.975 333.966 143.961 333.992 144.966L348.13 150.597L346.928 160.346L327.069 152.103C325.439 152.036 323.89 151.352 322.714 150.179C321.538 149.006 320.818 147.426 320.69 145.739C320.561 144.052 321.034 142.374 322.018 141.025C323.002 139.675 324.429 138.747 326.029 138.416Z" fill="#A0616A"/>
<path d="M424.818 118.326C423.33 117.383 421.676 116.754 419.953 116.476C418.23 116.197 416.47 116.275 414.776 116.703C413.081 117.132 411.485 117.903 410.079 118.973C408.672 120.043 407.483 121.391 406.58 122.939L386.286 157.708L340.402 146.424L336.222 158.331L394.981 187.208L424.74 138.031C429.196 131.534 431.378 122.481 424.818 118.326Z" fill="#CCCCCC"/>
<path d="M425.576 75.7144C425.577 79.0656 424.786 82.3658 423.271 85.3254C421.756 88.285 419.563 90.8135 416.887 92.6889C414.21 94.5643 411.13 95.7292 407.918 96.0815C404.706 96.4337 401.46 95.9625 398.464 94.7092C395.468 93.4559 392.815 91.4588 390.737 88.8932C388.659 86.3276 387.22 83.272 386.546 79.9947C385.872 76.7173 385.983 73.3183 386.871 70.0961C387.759 66.874 389.395 63.9271 391.636 61.5143L391.731 61.4161C391.889 61.2441 392.047 61.0721 392.213 60.9083C392.214 60.9083 392.215 60.9081 392.216 60.9077C392.217 60.9073 392.218 60.9067 392.218 60.9059C392.219 60.9051 392.22 60.9042 392.22 60.9032C392.22 60.9022 392.221 60.9012 392.22 60.9001C392.426 60.7035 392.631 60.507 392.844 60.3187C395.695 57.7251 399.207 56.039 402.958 55.4624C406.709 54.8858 410.541 55.4431 413.994 57.0675C417.448 58.692 420.377 61.3147 422.431 64.6218C424.485 67.9289 425.577 71.7801 425.576 75.7144Z" fill="#333333"/>
<path d="M400.982 97.6187C410.12 97.6187 417.529 89.9326 417.529 80.4512C417.529 70.9699 410.12 63.2838 400.982 63.2838C391.844 63.2838 384.436 70.9699 384.436 80.4512C384.436 89.9326 391.844 97.6187 400.982 97.6187Z" fill="#9E616A"/>
<path d="M418.553 85.3471L415.812 84.8447C414.28 84.5558 412.869 83.7885 411.769 82.6455C410.669 81.5025 409.931 80.0381 409.655 78.4484L406.98 83.0999L406.863 83.1402C400.489 85.3357 393.858 84.6791 386.594 81.1354C384.517 80.1133 382.502 78.9607 380.561 77.6842L380.417 77.5913L380.406 77.4167C380.036 71.8319 381.243 67.1663 383.808 64.2793C384.792 63.1931 385.987 62.335 387.314 61.7613C388.64 61.1875 390.069 60.9111 391.505 60.9501C391.608 60.9224 391.702 60.8686 391.779 60.7936C391.816 60.7654 391.852 60.7376 391.889 60.7111V60.6823L392.079 60.5894C392.488 60.3904 392.904 60.1996 393.32 60.0253C396.594 58.7103 400.159 58.3804 403.606 59.0736C407.053 59.7667 410.241 61.4548 412.804 63.9438C417.901 68.9922 420.239 77.4643 418.622 85.0263L418.553 85.3471Z" fill="#333333"/>
<path d="M453.453 99.9738C447.823 96.9585 455.064 86.0146 453.609 79.616C452.154 73.2174 441.675 71.1594 441.007 64.6217C440.34 58.0839 438.769 51.3409 434.611 46.3801C431.954 43.21 428.039 40.8699 424.008 41.2669C422.644 41.4013 421.324 41.839 420.138 42.5503C418.952 43.2616 417.928 44.2298 417.135 45.3889C416.342 46.548 415.799 47.8708 415.543 49.2672C415.288 50.6636 415.325 52.1008 415.653 53.4809C414.505 51.7937 411.535 52.1594 410.8 54.0785C410.146 55.7846 411.59 57.8512 413.289 58.0021C415.513 60.851 418.059 63.8745 421.542 64.4492C422.097 64.5815 422.674 64.5811 423.229 64.4482C423.784 64.3154 424.302 64.0534 424.745 63.6822C425.565 62.8657 425.628 61.2332 424.656 60.623C429.034 62.4272 431.6 67.3379 432.25 72.1784C432.899 77.0188 432.001 81.9163 431.409 86.7646C430.817 91.6129 430.561 96.7131 432.394 101.215C434.558 106.535 439.543 110.347 444.982 111.57C450.421 112.793 456.214 111.598 461.137 108.906C466.061 106.213 470.166 102.103 473.52 97.4949C467.743 101.751 459.75 103.346 453.453 99.9738Z" fill="#333333"/>
<path d="M417.849 84.8699C417.849 84.8699 412.948 65.8874 391.936 61.5061C391.913 61.498 391.834 61.4652 391.731 61.4162C391.668 61.3752 391.589 61.3342 391.51 61.2933C391.747 61.154 391.976 61.0313 392.213 60.9083L392.216 60.9078L392.218 60.906L392.22 60.9033L392.221 60.9001C392.426 60.7036 392.631 60.5071 392.844 60.3187L393.444 60.3433C393.444 60.3433 414.526 56.8793 417.849 84.8699Z" fill="#6E6E6E"/>
<path opacity="0.2" d="M406.875 145.78L395.008 160.044L375.4 154.037L396.776 164.257L406.875 145.78Z" fill="#333333"/>
<path d="M486.112 278.762C477.568 278.762 468.204 278.427 458.02 277.757C405.343 274.286 337.11 262.22 265.891 243.782C194.672 225.343 128.974 202.734 80.9015 180.121C57.4838 169.105 39.5109 158.678 27.4825 149.128C14.7475 139.018 9.17711 130.206 10.9253 122.936C14.3315 108.775 44.4917 105.677 69.1933 105.572L69.2017 107.631C35.2799 107.775 15.2677 113.388 12.8514 123.435C9.77352 136.231 34.8757 156.208 81.7212 178.245C129.688 200.809 195.265 223.374 266.372 241.784C337.478 260.193 405.585 272.238 458.146 275.702C509.476 279.085 540.683 273.685 543.761 260.889C546.316 250.264 529.47 234.613 496.327 216.818L497.239 214.989C521.322 227.919 549.276 246.465 545.687 261.387C543.938 268.657 535.031 273.72 519.211 276.437C510.193 277.986 499.116 278.762 486.112 278.762Z" fill="#24BA63"/>
</svg>
