<svg width="500" height="340" viewBox="0 0 500 340" fill="none" xmlns="http://www.w3.org/2000/svg">
<g clip-path="url(#clip0_81_939)">
<path d="M448.553 331.901C437.339 339.979 422.807 340.385 408.76 339.392C406.798 339.254 404.851 339.092 402.921 338.916C402.909 338.913 402.894 338.914 402.882 338.911C402.789 338.903 402.697 338.894 402.608 338.888C402.21 338.851 401.811 338.814 401.417 338.776L401.51 338.954L401.802 339.506C401.697 339.321 401.592 339.141 401.487 338.956C401.456 338.9 401.421 338.845 401.391 338.79C397.752 332.457 394.142 325.892 393.222 318.661C392.27 311.156 394.945 302.657 401.55 298.968C402.417 298.486 403.334 298.101 404.285 297.823C404.681 297.702 405.081 297.605 405.486 297.519C407.963 296.969 410.543 297.088 412.958 297.866C415.374 298.643 417.539 300.049 419.231 301.941C420.923 303.832 422.081 306.14 422.586 308.627C423.09 311.114 422.923 313.691 422.101 316.092C427.702 310.349 426.657 301.033 424.725 293.247C422.789 285.461 420.446 276.798 424.383 269.804C426.572 265.912 430.42 263.497 434.739 262.524C434.871 262.495 435.004 262.467 435.136 262.442C440.282 261.4 445.632 262.337 450.117 265.067C458.375 270.271 462.617 280.138 463.993 289.803C466.211 305.357 461.303 322.715 448.553 331.901Z" fill="#F2F2F2"/>
<path d="M444.933 306.968C444.607 310.399 443.783 313.764 442.486 316.956C441.291 319.782 439.681 322.413 437.708 324.762C433.606 329.563 428.411 333.309 422.56 335.684C418.134 337.497 413.498 338.743 408.76 339.392C406.798 339.254 404.851 339.092 402.921 338.916C402.909 338.913 402.894 338.914 402.882 338.911C402.789 338.903 402.697 338.894 402.608 338.888C402.21 338.851 401.811 338.814 401.417 338.776L401.51 338.954L401.802 339.506C401.697 339.321 401.592 339.141 401.487 338.956C401.456 338.9 401.421 338.845 401.391 338.79C404.943 335.251 407.595 330.912 409.125 326.137C410.654 321.362 411.017 316.29 410.183 311.346C409.31 306.436 407.289 301.803 404.285 297.823C404.681 297.702 405.081 297.605 405.486 297.519C406.628 299.08 407.629 300.738 408.478 302.475C411.527 308.671 412.499 315.683 411.252 322.473C410.092 328.619 407.204 334.305 402.925 338.866C403.3 338.84 403.678 338.809 404.048 338.775C411.06 338.181 418.058 336.674 424.418 333.586C429.854 331.011 434.574 327.138 438.161 322.31C442.013 316.998 443.71 310.608 444.002 304.114C444.226 297.117 443.493 290.123 441.822 283.325C440.202 276.393 437.739 269.686 434.49 263.352C434.417 263.209 434.402 263.042 434.449 262.888C434.495 262.734 434.599 262.604 434.739 262.524C434.855 262.445 434.998 262.416 435.136 262.442C435.204 262.46 435.267 262.493 435.32 262.538C435.373 262.584 435.415 262.641 435.443 262.705C435.844 263.487 436.237 264.27 436.616 265.062C439.768 271.656 442.088 278.616 443.524 285.783C444.918 292.696 445.662 299.928 444.933 306.968Z" fill="white"/>
<path d="M20.8607 108.057C20.5268 108.057 20.1959 107.994 19.8849 107.873C19.382 107.68 18.9498 107.338 18.6457 106.893C18.3415 106.449 18.1798 105.922 18.1821 105.383V77.4779C18.1811 76.5334 17.8054 75.6278 17.1375 74.9599C16.4696 74.292 15.5641 73.9163 14.6195 73.9152H8.90516C6.54418 73.9125 4.28065 72.9735 2.61118 71.304C0.941716 69.6345 0.00264608 67.371 0 65.01V8.90515C0.00264765 6.54417 0.941716 4.28065 2.61118 2.61118C4.28065 0.941718 6.54418 0.00264607 8.90516 0H210.468C212.829 0.00264921 215.092 0.941718 216.761 2.61118C218.431 4.28065 219.37 6.54417 219.373 8.90515V65.01C219.37 67.371 218.431 69.6345 216.761 71.304C215.092 72.9734 212.829 73.9125 210.468 73.9152H54.8901C54.3962 73.9157 53.9079 74.0187 53.4558 74.2176C53.0038 74.4164 52.5979 74.7068 52.2638 75.0705L22.8226 107.188C22.574 107.462 22.2711 107.68 21.9333 107.83C21.5955 107.979 21.2301 108.057 20.8607 108.057ZM8.90516 1.18662C6.85879 1.18893 4.89689 2.00288 3.44988 3.44988C2.00287 4.89689 1.18893 6.85878 1.18662 8.90515V65.01C1.18893 67.0564 2.00288 69.0183 3.44988 70.4653C4.89689 71.9123 6.85879 72.7262 8.90516 72.7286H14.6195C15.8787 72.73 17.0859 73.2308 17.9762 74.1212C18.8666 75.0116 19.3674 76.2188 19.3688 77.4779V105.383C19.3688 105.682 19.4592 105.974 19.628 106.221C19.7969 106.468 20.0365 106.658 20.3153 106.767C20.5941 106.875 20.8991 106.897 21.1905 106.829C21.4818 106.761 21.7458 106.607 21.948 106.386L51.3891 74.2686C51.8345 73.7838 52.3756 73.3967 52.9781 73.1316C53.5807 72.8665 54.2318 72.7293 54.8901 72.7286H210.468C212.514 72.7262 214.476 71.9123 215.923 70.4653C217.37 69.0183 218.184 67.0564 218.186 65.01V8.90515C218.184 6.85878 217.37 4.89689 215.923 3.44988C214.476 2.00288 212.514 1.18893 210.468 1.18662H8.90516Z" fill="#CCCCCC"/>
<path d="M21.8431 25.2692C26.1467 25.2692 29.6355 21.7804 29.6355 17.4768C29.6355 13.1732 26.1467 9.68445 21.8431 9.68445C17.5395 9.68445 14.0508 13.1732 14.0508 17.4768C14.0508 21.7804 17.5395 25.2692 21.8431 25.2692Z" fill="#CCCCCC"/>
<path d="M201.376 60.5944H17.9959C17.4497 60.5951 16.9087 60.4881 16.4039 60.2795C15.8991 60.071 15.4404 59.7649 15.054 59.379C14.6675 58.993 14.361 58.5346 14.1518 58.0301C13.9426 57.5255 13.835 56.9847 13.835 56.4385C13.835 55.8923 13.9426 55.3515 14.1518 54.847C14.361 54.3424 14.6675 53.8841 15.054 53.4981C15.4404 53.1121 15.8991 52.8061 16.4039 52.5975C16.9087 52.389 17.4497 52.2819 17.9959 52.2826H201.376C201.922 52.2819 202.463 52.389 202.968 52.5975C203.473 52.8061 203.931 53.1121 204.318 53.4981C204.704 53.8841 205.011 54.3424 205.22 54.847C205.429 55.3515 205.537 55.8923 205.537 56.4385C205.537 56.9847 205.429 57.5255 205.22 58.0301C205.011 58.5346 204.704 58.993 204.318 59.379C203.931 59.7649 203.473 60.071 202.968 60.2795C202.463 60.4881 201.922 60.5951 201.376 60.5944Z" fill="#CCCCCC"/>
<path d="M141.635 42.9318H17.9959C17.4497 42.9325 16.9087 42.8255 16.4039 42.6169C15.8991 42.4084 15.4404 42.1023 15.054 41.7164C14.6675 41.3304 14.361 40.872 14.1518 40.3675C13.9426 39.8629 13.835 39.3221 13.835 38.7759C13.835 38.2297 13.9426 37.6889 14.1518 37.1844C14.361 36.6798 14.6675 36.2215 15.054 35.8355C15.4404 35.4495 15.8991 35.1435 16.4039 34.9349C16.9087 34.7264 17.4497 34.6193 17.9959 34.62H141.635C142.181 34.6193 142.722 34.7264 143.227 34.9349C143.731 35.1435 144.19 35.4495 144.577 35.8355C144.963 36.2215 145.27 36.6798 145.479 37.1844C145.688 37.6889 145.796 38.2297 145.796 38.7759C145.796 39.3221 145.688 39.8629 145.479 40.3675C145.27 40.872 144.963 41.3304 144.577 41.7164C144.19 42.1023 143.731 42.4084 143.227 42.6169C142.722 42.8255 142.181 42.9325 141.635 42.9318Z" fill="#CCCCCC"/>
<path d="M20.8607 305.983C20.5268 305.983 20.1959 305.92 19.8849 305.799C19.382 305.606 18.9498 305.264 18.6457 304.819C18.3416 304.374 18.1799 303.848 18.1821 303.309V275.404C18.1811 274.459 17.8054 273.554 17.1375 272.886C16.4696 272.218 15.5641 271.842 14.6195 271.841H8.90516C6.54418 271.838 4.28066 270.899 2.61119 269.23C0.941726 267.56 0.00265236 265.297 0 262.936V206.831C0.00264764 204.47 0.941718 202.207 2.61118 200.537C4.28065 198.868 6.54418 197.929 8.90516 197.926H210.468C212.829 197.929 215.092 198.868 216.761 200.537C218.431 202.207 219.37 204.47 219.373 206.831V262.936C219.37 265.297 218.431 267.56 216.761 269.23C215.092 270.899 212.829 271.838 210.468 271.841H54.8901C54.3962 271.842 53.9079 271.945 53.4558 272.143C53.0038 272.342 52.5979 272.633 52.2638 272.996L22.8226 305.114C22.574 305.388 22.2711 305.606 21.9333 305.756C21.5955 305.905 21.2301 305.983 20.8607 305.983ZM8.90516 199.112C6.85878 199.115 4.89689 199.929 3.44988 201.376C2.00287 202.823 1.18893 204.785 1.18662 206.831V262.936C1.18893 264.982 2.00288 266.944 3.44988 268.391C4.89689 269.838 6.85879 270.652 8.90516 270.654H14.6195C15.8787 270.656 17.0859 271.157 17.9762 272.047C18.8666 272.937 19.3674 274.145 19.3688 275.404V303.309C19.3688 303.608 19.4592 303.9 19.628 304.147C19.7969 304.394 20.0365 304.584 20.3153 304.693C20.5941 304.801 20.8991 304.823 21.1905 304.755C21.4818 304.687 21.7458 304.533 21.948 304.312L51.3891 272.195C51.8345 271.71 52.3756 271.323 52.9781 271.058C53.5807 270.792 54.2318 270.655 54.8901 270.654H210.468C212.514 270.652 214.476 269.838 215.923 268.391C217.37 266.944 218.184 264.982 218.186 262.936V206.831C218.184 204.785 217.37 202.823 215.923 201.376C214.476 199.929 212.514 199.115 210.468 199.113L8.90516 199.112Z" fill="#CCCCCC"/>
<path d="M318.514 203.124C318.144 203.124 317.779 203.046 317.441 202.897C317.103 202.747 316.801 202.529 316.552 202.255L287.111 170.137C286.777 169.774 286.371 169.483 285.919 169.284C285.467 169.086 284.978 168.983 284.485 168.982H128.907C126.546 168.979 124.283 168.04 122.613 166.371C120.944 164.701 120.005 162.438 120.002 160.077V103.972C120.005 101.611 120.944 99.3476 122.613 97.6781C124.283 96.0086 126.546 95.0695 128.907 95.0669H330.469C332.83 95.0695 335.094 96.0086 336.763 97.6781C338.433 99.3475 339.372 101.611 339.375 103.972V160.077C339.372 162.438 338.433 164.701 336.763 166.371C335.094 168.04 332.83 168.979 330.469 168.982H324.755C323.811 168.983 322.905 169.359 322.237 170.027C321.569 170.695 321.193 171.6 321.192 172.545V200.45C321.195 200.989 321.033 201.515 320.729 201.96C320.425 202.405 319.993 202.746 319.49 202.939C319.179 203.061 318.848 203.124 318.514 203.124ZM128.907 96.2535C126.861 96.2558 124.899 97.0698 123.452 98.5168C122.005 99.9638 121.191 101.926 121.189 103.972V160.077C121.191 162.123 122.005 164.085 123.452 165.532C124.899 166.979 126.861 167.793 128.907 167.795H284.485C285.143 167.796 285.794 167.933 286.396 168.198C286.999 168.464 287.54 168.851 287.985 169.335L317.427 201.453C317.629 201.674 317.893 201.828 318.184 201.896C318.475 201.964 318.781 201.942 319.059 201.834C319.338 201.725 319.578 201.535 319.747 201.288C319.915 201.041 320.006 200.749 320.006 200.45V172.545C320.007 171.286 320.508 170.078 321.398 169.188C322.289 168.298 323.496 167.797 324.755 167.795H330.469C332.516 167.793 334.478 166.979 335.925 165.532C337.372 164.085 338.186 162.123 338.188 160.077V103.972C338.186 101.926 337.372 99.9638 335.925 98.5168C334.478 97.0698 332.516 96.2558 330.469 96.2535L128.907 96.2535Z" fill="#4E4E4E"/>
<path d="M21.8431 223.195C26.1467 223.195 29.6355 219.706 29.6355 215.403C29.6355 211.099 26.1467 207.61 21.8431 207.61C17.5395 207.61 14.0508 211.099 14.0508 215.403C14.0508 219.706 17.5395 223.195 21.8431 223.195Z" fill="#CCCCCC"/>
<path d="M201.376 258.52H17.9959C17.4497 258.521 16.9087 258.414 16.4039 258.205C15.8991 257.997 15.4404 257.691 15.054 257.305C14.6675 256.919 14.361 256.461 14.1518 255.956C13.9426 255.451 13.835 254.911 13.835 254.364C13.835 253.818 13.9426 253.277 14.1518 252.773C14.361 252.268 14.6675 251.81 15.054 251.424C15.4404 251.038 15.8991 250.732 16.4039 250.523C16.9087 250.315 17.4497 250.208 17.9959 250.208H201.376C202.478 250.208 203.535 250.646 204.315 251.426C205.094 252.205 205.532 253.262 205.532 254.364C205.532 255.467 205.094 256.524 204.315 257.303C203.535 258.083 202.478 258.52 201.376 258.52Z" fill="#CCCCCC"/>
<path d="M141.635 240.858H17.9959C17.4497 240.858 16.9087 240.751 16.4039 240.543C15.8991 240.334 15.4404 240.028 15.054 239.642C14.6675 239.256 14.361 238.798 14.1518 238.293C13.9426 237.789 13.835 237.248 13.835 236.702C13.835 236.156 13.9426 235.615 14.1518 235.11C14.361 234.606 14.6675 234.147 15.054 233.761C15.4404 233.375 15.8991 233.069 16.4039 232.861C16.9087 232.652 17.4497 232.545 17.9959 232.546H141.635C142.181 232.545 142.722 232.652 143.227 232.861C143.731 233.069 144.19 233.375 144.577 233.761C144.963 234.147 145.27 234.606 145.479 235.11C145.688 235.615 145.796 236.156 145.796 236.702C145.796 237.248 145.688 237.789 145.479 238.293C145.27 238.798 144.963 239.256 144.577 239.642C144.19 240.028 143.731 240.334 143.227 240.543C142.722 240.751 142.181 240.858 141.635 240.858Z" fill="#CCCCCC"/>
<path d="M141.846 119.816C146.15 119.816 149.638 116.328 149.638 112.024C149.638 107.72 146.15 104.232 141.846 104.232C137.542 104.232 134.054 107.72 134.054 112.024C134.054 116.328 137.542 119.816 141.846 119.816Z" fill="#333333"/>
<path d="M321.379 155.142H137.999C136.896 155.142 135.839 154.704 135.06 153.925C134.281 153.145 133.843 152.088 133.843 150.986C133.843 149.884 134.281 148.827 135.06 148.047C135.839 147.268 136.896 146.83 137.999 146.83H321.379C322.481 146.83 323.538 147.268 324.318 148.047C325.097 148.827 325.535 149.884 325.535 150.986C325.535 152.088 325.097 153.145 324.318 153.925C323.538 154.704 322.481 155.142 321.379 155.142Z" fill="#0C1177"/>
<path d="M261.638 137.479H137.999C137.453 137.48 136.912 137.373 136.407 137.164C135.902 136.956 135.443 136.65 135.057 136.264C134.67 135.878 134.364 135.419 134.155 134.915C133.946 134.41 133.838 133.869 133.838 133.323C133.838 132.777 133.946 132.236 134.155 131.732C134.364 131.227 134.67 130.769 135.057 130.383C135.443 129.997 135.902 129.691 136.407 129.482C136.912 129.274 137.453 129.167 137.999 129.167H261.638C262.184 129.167 262.725 129.274 263.229 129.482C263.734 129.691 264.193 129.997 264.579 130.383C264.966 130.769 265.272 131.227 265.482 131.732C265.691 132.236 265.798 132.777 265.798 133.323C265.798 133.869 265.691 134.41 265.482 134.915C265.272 135.419 264.966 135.878 264.579 136.264C264.193 136.65 263.734 136.956 263.229 137.164C262.725 137.373 262.184 137.48 261.638 137.479Z" fill="#0C1177"/>
<path d="M321.298 213.804C321.477 212.95 321.84 212.146 322.362 211.448C322.885 210.749 323.554 210.174 324.323 209.762C325.092 209.351 325.942 209.113 326.813 209.065C327.684 209.017 328.555 209.161 329.364 209.487L343.283 193.493L346.239 204.107L332.568 217.667C331.932 218.991 330.832 220.034 329.477 220.601C328.122 221.168 326.607 221.218 325.218 220.741C323.828 220.265 322.662 219.296 321.94 218.018C321.218 216.739 320.989 215.24 321.298 213.804Z" fill="#FFB8B8"/>
<path d="M397.689 138.753C405.738 138.753 412.262 132.228 412.262 124.18C412.262 116.132 405.738 109.608 397.689 109.608C389.641 109.608 383.117 116.132 383.117 124.18C383.117 132.228 389.641 138.753 397.689 138.753Z" fill="#FFB8B8"/>
<path d="M380.57 324.762L373.297 324.761L369.836 296.705L380.572 296.705L380.57 324.762Z" fill="#FFB8B8"/>
<path d="M382.426 331.813L358.972 331.812V331.515C358.972 330.316 359.208 329.129 359.667 328.022C360.125 326.914 360.798 325.908 361.645 325.06C362.493 324.212 363.5 323.54 364.607 323.081C365.715 322.623 366.902 322.386 368.101 322.386L382.426 322.387L382.426 331.813Z" fill="#333333"/>
<path d="M402.523 332.475L395.25 332.474L394.242 305.088L402.525 304.418L402.523 332.475Z" fill="#FFB8B8"/>
<path d="M404.378 339.526L380.924 339.525V339.228C380.924 338.029 381.16 336.842 381.619 335.735C382.077 334.627 382.75 333.621 383.598 332.773C384.445 331.925 385.452 331.253 386.559 330.794C387.667 330.335 388.854 330.099 390.053 330.099L404.378 330.1L404.378 339.526Z" fill="#333333"/>
<path d="M400.454 327.355L394.79 326.688C394.147 326.611 393.555 326.304 393.121 325.823C392.688 325.343 392.443 324.722 392.432 324.075L391.371 250.303C391.368 250.095 391.291 249.894 391.155 249.735C391.019 249.577 390.831 249.472 390.625 249.438C390.419 249.404 390.208 249.444 390.028 249.55C389.848 249.657 389.712 249.823 389.642 250.019L381.783 272.209L382.345 313.801C382.355 314.487 382.099 315.151 381.632 315.654C381.165 316.157 380.522 316.461 379.836 316.502L372.441 316.816C371.765 316.854 371.099 316.636 370.577 316.204C370.055 315.772 369.716 315.159 369.626 314.487L365.764 267.437L365.762 267.408L371.622 218.27L415.636 221.455L403.418 325.016C403.34 325.665 403.028 326.263 402.54 326.697C402.051 327.132 401.421 327.372 400.768 327.373C400.663 327.373 400.558 327.367 400.454 327.355Z" fill="#333333"/>
<path d="M371.81 222.626C371.415 222.415 371.08 222.108 370.836 221.733C370.591 221.357 370.446 220.926 370.413 220.48C370.413 220.48 374.371 195.867 375.821 195.405L372.648 169.084C372.268 165.873 372.533 162.619 373.428 159.513C374.322 156.406 375.828 153.51 377.858 150.993C379.812 148.552 382.24 146.532 384.997 145.055C387.753 143.578 390.781 142.675 393.896 142.401C394.339 142.361 394.78 142.33 395.219 142.309C398.974 142.108 402.722 142.817 406.145 144.375C409.568 145.933 412.563 148.294 414.878 151.258C417.279 154.247 418.922 157.772 419.668 161.533C420.413 165.293 420.24 169.179 419.161 172.858L417.381 179.052V222.337C417.38 222.76 417.279 223.176 417.087 223.552C416.895 223.929 416.618 224.255 416.277 224.505C410.735 228.572 404.472 230.01 398.385 230.01C386.869 230.01 375.984 224.86 371.81 222.626Z" fill="#0C1177"/>
<path d="M337.641 214.705L329.986 208.981C329.686 208.756 329.436 208.471 329.253 208.144C329.071 207.816 328.959 207.454 328.926 207.081C328.892 206.707 328.938 206.331 329.06 205.976C329.181 205.621 329.376 205.296 329.632 205.022L375.236 156.089C376.7 154.532 378.673 153.552 380.798 153.326C382.924 153.1 385.059 153.644 386.818 154.858C387.889 155.605 388.783 156.579 389.435 157.711C390.087 158.843 390.482 160.104 390.591 161.406C390.7 162.707 390.521 164.017 390.066 165.242C389.612 166.466 388.892 167.575 387.96 168.49L341.11 214.473C340.699 214.881 340.165 215.143 339.59 215.218C339.016 215.294 338.432 215.18 337.929 214.893C337.829 214.837 337.733 214.774 337.641 214.705Z" fill="#0C1177"/>
<path d="M396.23 208.226C396.564 207.421 397.072 206.699 397.716 206.11C398.36 205.522 399.125 205.082 399.957 204.821C400.789 204.561 401.669 204.486 402.533 204.602C403.398 204.718 404.226 205.022 404.96 205.493L421.624 192.385L422.544 203.364L406.578 214.129C405.706 215.31 404.43 216.129 402.993 216.433C401.556 216.736 400.058 216.502 398.783 215.774C397.507 215.046 396.543 213.876 396.072 212.485C395.602 211.094 395.658 209.579 396.23 208.226Z" fill="#FFB8B8"/>
<path d="M411.145 213.344C410.704 213.207 410.307 212.957 409.992 212.618C409.677 212.28 409.457 211.866 409.352 211.416L407.668 204.346C407.545 203.844 407.572 203.317 407.746 202.83C407.92 202.344 408.234 201.919 408.648 201.61L419.973 189.361L403.314 163.673C402.053 162.12 401.342 160.194 401.293 158.194C401.243 156.195 401.858 154.235 403.04 152.622C403.982 151.337 405.248 150.323 406.708 149.684C408.169 149.046 409.772 148.804 411.356 148.985C412.939 149.165 414.447 149.761 415.727 150.711C417.006 151.662 418.011 152.934 418.641 154.399L434.129 184.545C435.668 187.54 436.052 190.997 435.208 194.257C434.363 197.517 432.348 200.352 429.548 202.223L413.72 212.796C413.235 213.229 412.608 213.469 411.958 213.47C411.682 213.47 411.408 213.427 411.145 213.344Z" fill="#0C1177"/>
<path d="M408.488 137.208C408.145 137.414 407.758 137.538 407.359 137.571C406.96 137.604 406.559 137.544 406.186 137.397C405.814 137.25 405.48 137.019 405.211 136.722C404.942 136.426 404.745 136.071 404.635 135.686L404.626 135.649C404.33 134.437 404.564 133.168 404.64 131.922C404.717 130.676 404.588 129.309 403.735 128.397C402.144 126.699 399.336 127.619 397.047 127.199C395.706 126.908 394.518 126.137 393.704 125.032C392.89 123.928 392.507 122.564 392.626 121.197C392.657 120.938 392.706 120.678 392.762 120.419C392.902 119.762 392.887 119.082 392.719 118.431C392.552 117.781 392.235 117.178 391.796 116.671C391.356 116.163 390.804 115.764 390.184 115.506C389.565 115.247 388.893 115.136 388.223 115.18C385.913 115.325 383.423 116.038 381.502 114.337C380.797 113.666 380.306 112.802 380.089 111.853C379.873 110.904 379.94 109.913 380.283 109.002C381.358 105.845 384.435 104.179 387.483 103.256C391.253 102.145 395.224 101.888 399.106 102.503C402.988 103.119 406.684 104.592 409.926 106.815C411.861 108.164 413.672 109.863 414.505 112.07C415.339 114.277 414.958 117.069 413.112 118.539C414.557 120.053 415.578 121.919 416.075 123.952C416.571 125.985 416.524 128.112 415.939 130.121C415.04 133.076 410.686 135.927 408.488 137.208Z" fill="#333333"/>
</g>
<defs>
<clipPath id="clip0_81_939">
<rect width="500" height="339.967" fill="white"/>
</clipPath>
</defs>
</svg>
