<svg width="526" height="402" viewBox="0 0 526 402" fill="none" xmlns="http://www.w3.org/2000/svg">
<g clip-path="url(#clip0_81_116)">
<path d="M319.191 258.135H10.7985C7.93555 258.131 5.19078 256.642 3.16637 253.995C1.14195 251.348 0.00322295 247.759 0 244.015V48.8294C0.00322295 45.0859 1.14195 41.4969 3.16637 38.8498C5.19078 36.2028 7.93555 34.7138 10.7985 34.7096H319.191C322.054 34.7138 324.799 36.2028 326.823 38.8498C328.847 41.4969 329.986 45.0859 329.989 48.8294V244.015C329.986 247.759 328.847 251.348 326.823 253.995C324.799 256.642 322.054 258.131 319.191 258.135ZM10.7985 36.3707C8.27237 36.3745 5.85052 37.6883 4.06428 40.0239C2.27803 42.3596 1.27327 45.5263 1.27041 48.8294V244.015C1.27327 247.318 2.27803 250.485 4.06428 252.821C5.85052 255.156 8.27237 256.47 10.7985 256.474H319.191C321.717 256.47 324.139 255.156 325.925 252.821C327.711 250.485 328.716 247.318 328.719 244.015V48.8294C328.716 45.5263 327.711 42.3596 325.925 40.0239C324.139 37.6883 321.717 36.3745 319.191 36.3707H10.7985Z" fill="#4E4E4E"/>
<path d="M59.2325 83.2984C62.3898 83.2984 64.9493 79.9517 64.9493 75.8232C64.9493 71.6948 62.3898 68.348 59.2325 68.348C56.0751 68.348 53.5156 71.6948 53.5156 75.8232C53.5156 79.9517 56.0751 83.2984 59.2325 83.2984Z" fill="#CCCCCC"/>
<path d="M59.2325 111.538C62.3898 111.538 64.9493 108.191 64.9493 104.063C64.9493 99.9344 62.3898 96.5876 59.2325 96.5876C56.0751 96.5876 53.5156 99.9344 53.5156 104.063C53.5156 108.191 56.0751 111.538 59.2325 111.538Z" fill="#CCCCCC"/>
<path d="M59.2325 139.778C62.3898 139.778 64.9493 136.431 64.9493 132.303C64.9493 128.174 62.3898 124.827 59.2325 124.827C56.0751 124.827 53.5156 128.174 53.5156 132.303C53.5156 136.431 56.0751 139.778 59.2325 139.778Z" fill="#CCCCCC"/>
<path d="M59.2325 168.017C62.3898 168.017 64.9493 164.671 64.9493 160.542C64.9493 156.414 62.3898 153.067 59.2325 153.067C56.0751 153.067 53.5156 156.414 53.5156 160.542C53.5156 164.671 56.0751 168.017 59.2325 168.017Z" fill="#CCCCCC"/>
<path d="M155.467 224.497C158.624 224.497 161.184 221.15 161.184 217.022C161.184 212.893 158.624 209.546 155.467 209.546C152.31 209.546 149.75 212.893 149.75 217.022C149.75 221.15 152.31 224.497 155.467 224.497Z" fill="#CCCCCC"/>
<path d="M114.178 224.497C117.335 224.497 119.895 221.15 119.895 217.022C119.895 212.893 117.335 209.546 114.178 209.546C111.02 209.546 108.461 212.893 108.461 217.022C108.461 221.15 111.02 224.497 114.178 224.497Z" fill="#CCCCCC"/>
<path d="M240.584 224.497C243.741 224.497 246.301 221.15 246.301 217.022C246.301 212.893 243.741 209.546 240.584 209.546C237.427 209.546 234.867 212.893 234.867 217.022C234.867 221.15 237.427 224.497 240.584 224.497Z" fill="#CCCCCC"/>
<path d="M197.39 224.497C200.547 224.497 203.107 221.15 203.107 217.022C203.107 212.893 200.547 209.546 197.39 209.546C194.232 209.546 191.673 212.893 191.673 217.022C191.673 221.15 194.232 224.497 197.39 224.497Z" fill="#CCCCCC"/>
<path d="M275.838 76.6537H87.8168C87.6484 76.6537 87.4868 76.5662 87.3677 76.4105C87.2486 76.2547 87.1816 76.0434 87.1816 75.8232C87.1816 75.6029 87.2486 75.3916 87.3677 75.2359C87.4868 75.0801 87.6484 74.9926 87.8168 74.9926H275.838C276.006 74.9926 276.168 75.0801 276.287 75.2359C276.406 75.3916 276.473 75.6029 276.473 75.8232C276.473 76.0434 276.406 76.2547 276.287 76.4105C276.168 76.5662 276.006 76.6537 275.838 76.6537Z" fill="#CCCCCC"/>
<path d="M275.838 104.893H87.8168C87.6484 104.893 87.4868 104.806 87.3677 104.65C87.2486 104.494 87.1816 104.283 87.1816 104.063C87.1816 103.843 87.2486 103.631 87.3677 103.476C87.4868 103.32 87.6484 103.232 87.8168 103.232H275.838C276.006 103.232 276.168 103.32 276.287 103.476C276.406 103.631 276.473 103.843 276.473 104.063C276.473 104.283 276.406 104.494 276.287 104.65C276.168 104.806 276.006 104.893 275.838 104.893Z" fill="#CCCCCC"/>
<path d="M275.838 133.133H87.8168C87.6484 133.133 87.4868 133.046 87.3677 132.89C87.2486 132.734 87.1816 132.523 87.1816 132.303C87.1816 132.082 87.2486 131.871 87.3677 131.715C87.4868 131.559 87.6484 131.472 87.8168 131.472H275.838C276.006 131.472 276.168 131.559 276.287 131.715C276.406 131.871 276.473 132.082 276.473 132.303C276.473 132.523 276.406 132.734 276.287 132.89C276.168 133.046 276.006 133.133 275.838 133.133Z" fill="#CCCCCC"/>
<path d="M275.838 161.373H87.8168C87.6484 161.373 87.4868 161.285 87.3677 161.13C87.2486 160.974 87.1816 160.763 87.1816 160.542C87.1816 160.322 87.2486 160.111 87.3677 159.955C87.4868 159.799 87.6484 159.712 87.8168 159.712H275.838C276.006 159.712 276.168 159.799 276.287 159.955C276.406 160.111 276.473 160.322 276.473 160.542C276.473 160.763 276.406 160.974 276.287 161.13C276.168 161.285 276.006 161.373 275.838 161.373Z" fill="#CCCCCC"/>
<path d="M123.389 189.612H104.968C104.126 189.611 103.319 189.173 102.723 188.395C102.128 187.616 101.793 186.561 101.792 185.46V163.034C101.793 161.933 102.128 160.877 102.723 160.099C103.319 159.32 104.126 158.882 104.968 158.881H123.389C124.231 158.882 125.038 159.32 125.634 160.099C126.229 160.877 126.564 161.933 126.565 163.034V185.46C126.564 186.561 126.229 187.616 125.634 188.395C125.038 189.173 124.231 189.611 123.389 189.612Z" fill="#24BA63"/>
<path d="M164.677 189.612H146.256C145.414 189.611 144.607 189.173 144.011 188.395C143.416 187.616 143.081 186.561 143.08 185.459V134.794C143.081 133.693 143.416 132.638 144.011 131.859C144.607 131.081 145.414 130.643 146.256 130.641H164.677C165.519 130.643 166.326 131.081 166.922 131.859C167.517 132.638 167.852 133.693 167.853 134.794V185.459C167.852 186.561 167.517 187.616 166.922 188.395C166.326 189.173 165.519 189.611 164.677 189.612Z" fill="#24BA63"/>
<path d="M206.601 189.612H188.18C187.338 189.611 186.531 189.173 185.935 188.395C185.34 187.616 185.005 186.561 185.004 185.46V106.555C185.005 105.454 185.34 104.398 185.935 103.619C186.531 102.841 187.338 102.403 188.18 102.402H206.601C207.443 102.403 208.25 102.841 208.846 103.619C209.441 104.398 209.776 105.454 209.777 106.555V185.46C209.776 186.561 209.441 187.616 208.846 188.395C208.25 189.173 207.443 189.611 206.601 189.612Z" fill="#24BA63"/>
<path d="M249.794 189.612H231.373C230.531 189.611 229.724 189.173 229.129 188.395C228.533 187.616 228.198 186.561 228.197 185.46V79.1455C228.198 78.0444 228.533 76.9889 229.129 76.2103C229.724 75.4318 230.531 74.9938 231.373 74.9926H249.794C250.636 74.9938 251.444 75.4318 252.039 76.2103C252.634 76.9889 252.969 78.0444 252.97 79.1455V185.46C252.969 186.561 252.634 187.616 252.039 188.395C251.444 189.173 250.636 189.611 249.794 189.612Z" fill="#24BA63"/>
<path d="M421.429 432.012C415.717 425.701 412.247 415.731 413.157 406.025C414.067 396.319 419.703 387.396 427.013 385.335C434.323 383.274 442.657 388.98 444.877 398.317C446.099 380.315 447.507 361.558 454.827 346.227C461.455 332.346 472.934 322.413 485.376 320.636C497.817 318.859 510.916 325.571 518.676 338.411C526.435 351.251 528.335 369.918 522.9 384.659C518.897 395.519 511.521 403.601 503.794 410.176C478.823 431.243 448.873 439.81 419.456 434.301L421.429 432.012Z" fill="#F2F2F2"/>
<path d="M506.373 325.943C496.107 336.876 486.689 349.104 478.256 362.45C465.058 383.265 454.377 406.602 446.587 431.649C446.017 433.476 448.286 434.271 448.85 432.465C461.596 391.758 481.944 355.881 508.032 328.112C509.204 326.865 507.535 324.706 506.373 325.943Z" fill="white"/>
<path d="M361.184 203.365C360.462 203.362 359.742 203.268 359.034 203.083C358.904 203.049 358.775 203.013 358.645 202.974L203.085 155.615C201.396 155.1 200.273 153.71 200.474 152.381C200.559 151.99 200.725 151.637 200.954 151.361C201.182 151.085 201.465 150.897 201.77 150.818C202.521 150.547 203.311 150.524 204.07 150.751L360.596 193.494C364.121 194.456 366.567 197.284 366.167 199.932C365.957 201.318 365.023 202.392 363.538 202.958C362.772 203.237 361.98 203.374 361.184 203.365Z" fill="#4E4E4E"/>
<path d="M328.231 196.813C329.036 197.431 329.935 197.812 330.865 197.927C331.794 198.042 332.732 197.89 333.612 197.48C334.491 197.07 335.292 196.413 335.956 195.555C336.62 194.697 337.133 193.659 337.457 192.514L360.151 193.133L353.864 180.083L333.278 181.496C331.77 180.911 330.152 181.069 328.728 181.94C327.304 182.811 326.173 184.335 325.551 186.223C324.929 188.111 324.859 190.232 325.352 192.184C325.846 194.135 326.871 195.782 328.231 196.813Z" fill="#FFB8B8"/>
<path d="M338.088 192.072L337.97 182.977C337.961 182.038 338.222 181.129 338.7 180.429C339.178 179.729 339.839 179.288 340.554 179.193L381.334 174.047L415.312 159.48C416.337 159.041 417.42 158.872 418.495 158.984C419.571 159.096 420.619 159.487 421.579 160.133C422.538 160.779 423.39 161.669 424.084 162.749C424.778 163.83 425.301 165.08 425.622 166.427C425.944 167.775 426.057 169.192 425.956 170.597C425.854 172.002 425.54 173.366 425.032 174.611C424.524 175.856 423.831 176.957 422.995 177.849C422.159 178.74 421.195 179.406 420.16 179.807L382.552 194.366L341.018 195.746C340.39 195.766 339.775 195.515 339.266 195.033C338.758 194.551 338.385 193.864 338.205 193.077C338.131 192.751 338.092 192.413 338.088 192.072Z" fill="#4E4E4E"/>
<path d="M398.437 426.562L390.65 426.561L386.945 387.284L398.439 387.285L398.437 426.562Z" fill="#FFB8B8"/>
<path d="M421.306 426.562L413.518 426.561L409.813 387.284L421.307 387.285L421.306 426.562Z" fill="#FFB8B8"/>
<path d="M426.532 267.831L424.672 412.098C424.666 412.555 424.588 413.005 424.443 413.421C424.298 413.836 424.089 414.209 423.829 414.514C423.569 414.819 423.264 415.051 422.932 415.195C422.6 415.339 422.25 415.392 421.902 415.35L412.789 414.267C412.191 414.196 411.632 413.851 411.21 413.292C410.789 412.733 410.532 411.998 410.486 411.215L405.151 321.226C405.138 321.015 405.064 320.818 404.944 320.675C404.824 320.533 404.667 320.456 404.505 320.46C404.343 320.464 404.188 320.549 404.072 320.698C403.957 320.846 403.889 321.047 403.883 321.259L401.216 413.308C401.191 414.167 400.913 414.98 400.439 415.576C399.966 416.172 399.334 416.505 398.677 416.505H388.904C388.257 416.505 387.634 416.182 387.163 415.602C386.692 415.023 386.407 414.23 386.368 413.385L379.526 267.001L420.18 253.711L426.532 267.831Z" fill="#333333"/>
<path d="M397.045 132.367C405.661 132.367 412.646 123.234 412.646 111.967C412.646 100.7 405.661 91.5671 397.045 91.5671C388.428 91.5671 381.443 100.7 381.443 111.967C381.443 123.234 388.428 132.367 397.045 132.367Z" fill="#FFB8B8"/>
<path d="M378.134 272.123C377.864 271.782 377.648 271.373 377.5 270.922C377.351 270.471 377.272 269.985 377.268 269.494L376.215 171.118C376.152 166.114 377.303 161.212 379.504 157.117C381.705 153.022 384.841 149.944 388.463 148.326C389.925 139.655 397.704 138.569 402.239 138.699C403.371 138.731 404.481 139.119 405.473 139.831C406.466 140.543 407.313 141.557 407.942 142.788L411.193 149.164L418.358 154.656C421.674 157.187 424.29 161.03 425.828 165.63C427.365 170.23 427.746 175.35 426.914 180.251L425.811 186.813C421.927 210.035 422.296 234.129 426.89 257.129L429.11 268.196C429.225 268.773 429.234 269.377 429.135 269.958C429.035 270.54 428.831 271.082 428.539 271.54C428.247 271.997 427.876 272.356 427.456 272.588C427.036 272.82 426.58 272.917 426.125 272.871L423.547 272.611C422.878 272.545 422.248 272.172 421.768 271.559C421.288 270.946 420.988 270.131 420.922 269.257L420.496 263.678C420.488 263.576 420.451 263.481 420.393 263.412C420.334 263.343 420.258 263.304 420.18 263.304C420.101 263.304 420.025 263.343 419.967 263.412C419.908 263.481 419.871 263.576 419.864 263.678L419.451 269.08C419.381 269.992 419.057 270.839 418.541 271.46C418.024 272.08 417.352 272.431 416.65 272.445L380.17 273.179C380.155 273.179 380.14 273.18 380.124 273.18C379.381 273.182 378.666 272.802 378.134 272.123Z" fill="#4E4E4E"/>
<path d="M398.265 123.726C398.329 126.61 399.86 128.278 401.74 129.789C403.62 131.299 405.817 131.954 407.97 132.586C408.259 132.787 408.583 132.886 408.91 132.876C409.237 132.865 409.557 132.745 409.838 132.526C410.12 132.307 410.353 131.996 410.516 131.625C410.679 131.254 410.766 130.834 410.768 130.406L412.743 120.586C413.441 117.449 413.949 114.245 414.263 111.003C414.738 104.766 413.608 98.057 410.279 93.5476C406.949 89.0381 401.176 87.4362 397.186 90.9107C392.451 83.0037 370.81 100.473 376.149 105.971C377.098 106.95 378.55 105.712 379.755 105.592C380.961 105.472 382.312 105.749 383.078 106.972C384.078 108.571 383.642 110.951 384.055 112.945C384.225 113.647 384.5 114.297 384.864 114.859C385.228 115.421 385.673 115.883 386.174 116.218C386.675 116.554 387.221 116.757 387.783 116.815C388.344 116.873 388.908 116.785 389.443 116.557C390.44 115.915 391.378 115.126 392.238 114.207C393.163 113.402 394.331 112.807 395.372 113.315C396.744 113.984 397.232 116.181 397.356 118.089C397.565 119.992 397.868 121.875 398.265 123.726Z" fill="#333333"/>
<path opacity="0.2" d="M394.621 178.4L392.081 219.098L378.741 261.457L398.433 219.929L394.621 178.4Z" fill="black"/>
<path d="M375.623 277.232C376.351 276.467 376.942 275.504 377.354 274.408C377.767 273.313 377.99 272.112 378.01 270.891C378.029 269.671 377.843 268.459 377.466 267.342C377.088 266.226 376.528 265.231 375.824 264.428L384.323 236.906L372.76 239.959L366.463 265.626C365.51 267.261 365.048 269.296 365.165 271.346C365.283 273.396 365.971 275.318 367.1 276.749C368.23 278.179 369.721 279.019 371.291 279.108C372.862 279.197 374.403 278.529 375.623 277.232Z" fill="#FFB8B8"/>
<path d="M375.003 265.094L368.458 262.01C367.784 261.687 367.227 261.046 366.896 260.213C366.565 259.38 366.484 258.415 366.67 257.508L377.467 205.83L379.113 159.125C379.163 157.715 379.426 156.332 379.888 155.057C380.35 153.781 381.001 152.639 381.804 151.695C382.607 150.752 383.545 150.027 384.564 149.562C385.583 149.097 386.663 148.901 387.74 148.986C388.817 149.072 389.871 149.436 390.839 150.059C391.808 150.682 392.672 151.55 393.382 152.613C394.092 153.676 394.632 154.913 394.973 156.252C395.314 157.591 395.448 159.006 395.367 160.413L392.427 211.555L378.67 262.816C378.461 263.591 378.064 264.254 377.538 264.704C377.013 265.155 376.389 265.366 375.763 265.308C375.504 265.282 375.248 265.21 375.003 265.094Z" fill="#4E4E4E"/>
<path d="M275.838 189.612H87.8168C87.6484 189.612 87.4868 189.525 87.3677 189.369C87.2486 189.213 87.1816 189.002 87.1816 188.782C87.1816 188.562 87.2486 188.35 87.3677 188.195C87.4868 188.039 87.6484 187.951 87.8168 187.951H275.838C276.006 187.951 276.168 188.039 276.287 188.195C276.406 188.35 276.473 188.562 276.473 188.782C276.473 189.002 276.406 189.213 276.287 189.369C276.168 189.525 276.006 189.612 275.838 189.612Z" fill="#4E4E4E"/>
</g>
<defs>
<clipPath id="clip0_81_116">
<rect width="526" height="402" fill="white"/>
</clipPath>
</defs>
</svg>
