<svg width="500" height="422" viewBox="0 0 500 422" fill="none" xmlns="http://www.w3.org/2000/svg">
<g clip-path="url(#clip0_128_67)">
<path d="M407.211 203.605C407.211 209.533 406.961 215.401 406.463 221.209C406.071 225.742 405.535 230.235 404.856 234.687C404.135 239.401 403.252 244.058 402.205 248.658V248.664C401.521 251.691 400.77 254.694 399.952 257.672C397.577 266.33 394.624 274.818 391.113 283.08C390.349 284.878 389.561 286.663 388.748 288.436C385.672 295.149 382.227 301.688 378.43 308.022C367.781 325.809 354.488 341.873 339.008 355.662C337.333 357.152 335.634 358.617 333.913 360.058C297.362 390.591 251.231 407.284 203.605 407.211C91.1558 407.211 0 316.055 0 203.605C0 91.1558 91.1558 8.0397e-06 203.605 8.0397e-06C249.591 -0.0725005 294.235 15.493 330.206 44.141C331.893 45.4771 333.557 46.8433 335.201 48.2396C343.222 55.0422 350.708 62.4518 357.592 70.4029H357.598C389.662 107.365 407.283 154.673 407.211 203.605Z" fill="#F2F2F2"/>
<path d="M60.1042 238.776C40.7084 227.232 26.0693 205.658 27.9698 183.167C45.7023 200.139 68.8664 210.291 93.3637 211.828C102.813 212.387 113.382 212.024 120.338 218.444C124.666 222.439 126.681 228.454 127.012 234.334C127.342 240.215 126.164 246.065 124.992 251.837L125.395 253.251C102.824 253.336 79.5 250.32 60.1042 238.776Z" fill="#E6E6E6"/>
<path d="M28.4422 183.143C36.2136 200.132 49.1406 214.241 65.3872 223.465C68.8798 225.42 72.5929 227.1 76.5388 227.879C80.3909 228.608 84.368 228.293 88.057 226.966C91.5216 225.798 94.9301 224.201 98.6184 223.895C102.506 223.573 106.105 225.073 108.933 227.7C112.392 230.914 114.491 235.18 116.398 239.422C118.516 244.133 120.641 249.06 124.701 252.447C125.193 252.858 124.527 253.597 124.036 253.187C116.972 247.293 115.819 237.423 110.173 230.481C107.538 227.242 103.911 224.778 99.6024 224.843C95.8347 224.899 92.3184 226.543 88.8207 227.756C85.1481 229.03 81.4689 229.628 77.5916 229.068C73.6253 228.494 69.8387 226.957 66.3114 225.1C58.3442 220.829 51.0981 215.332 44.8385 208.81C37.6531 201.406 31.7873 192.828 27.4946 183.446C27.2292 182.865 28.1785 182.566 28.4422 183.143Z" fill="white"/>
<path d="M59.9817 220.803C58.064 223.319 55.3145 225.071 52.2243 225.747C49.134 226.422 45.9042 225.977 43.1116 224.492C42.5476 224.189 42.9913 223.298 43.5561 223.601C46.154 224.99 49.1626 225.404 52.039 224.769C54.9153 224.134 57.4699 222.491 59.2418 220.138C59.6274 219.627 60.3651 220.295 59.9817 220.803Z" fill="white"/>
<path d="M86.3784 227.79C85.5713 221.374 82.3757 215.498 77.4288 211.334C76.9383 210.922 77.6038 210.182 78.0937 210.594C83.2335 214.937 86.5466 221.059 87.3717 227.737C87.45 228.373 86.4562 228.423 86.3784 227.79Z" fill="white"/>
<path d="M38.8871 200.939C39.832 200.12 40.5586 199.08 41.0019 197.911C41.4451 196.742 41.5911 195.481 41.4267 194.241C41.3404 193.606 42.3344 193.557 42.42 194.188C42.5954 195.559 42.4325 196.951 41.9456 198.243C41.4587 199.536 40.6627 200.69 39.6271 201.604C39.5367 201.698 39.4138 201.755 39.2833 201.762C39.1528 201.769 39.0246 201.726 38.9247 201.641C38.8271 201.553 38.7685 201.43 38.7615 201.298C38.7544 201.166 38.7996 201.037 38.8871 200.939Z" fill="white"/>
<path d="M90.7519 139.594C90.817 139.989 90.8821 140.385 90.9548 140.783C91.858 146.091 93.1909 151.317 94.9404 156.409C95.0694 156.805 95.2061 157.204 95.3462 157.596C99.692 169.819 106.269 181.129 114.744 190.951C118.119 194.856 121.787 198.499 125.716 201.848C131.142 206.473 137.392 211.055 140.871 217.026C141.241 217.645 141.572 218.286 141.863 218.946L127.088 252.649C127.016 252.709 126.952 252.773 126.88 252.833L126.351 254.205C126.137 254.047 125.917 253.878 125.703 253.719C125.578 253.628 125.456 253.529 125.331 253.437C125.249 253.374 125.167 253.31 125.089 253.258C125.062 253.237 125.034 253.215 125.015 253.198C124.937 253.145 124.87 253.088 124.8 253.039C123.572 252.097 122.348 251.146 121.129 250.183C121.121 250.18 121.121 250.18 121.117 250.169C111.846 242.814 103.108 234.62 95.8919 225.36C95.6749 225.082 95.45 224.8 95.2398 224.506C92.0101 220.314 89.1284 215.865 86.6235 211.204C85.2601 208.647 84.027 206.023 82.9289 203.342C80.105 196.408 78.3894 189.073 77.8449 181.605C76.7617 166.72 80.4513 151.653 90.0129 140.444C90.2577 140.157 90.4994 139.877 90.7519 139.594Z" fill="#E6E6E6"/>
<path d="M91.1472 139.858C87.1234 158.102 88.9504 177.15 96.3686 194.296C97.9803 197.96 99.934 201.536 102.616 204.534C105.252 207.436 108.617 209.579 112.362 210.74C115.831 211.893 119.514 212.671 122.643 214.647C125.941 216.73 127.912 220.095 128.588 223.895C129.415 228.544 128.523 233.213 127.491 237.749C126.346 242.786 125.076 247.998 126.278 253.148C126.424 253.772 125.447 253.961 125.302 253.338C123.21 244.379 128.232 235.804 127.903 226.862C127.75 222.69 126.338 218.538 122.858 215.996C119.816 213.773 116.019 212.968 112.496 211.831C108.796 210.637 105.499 208.899 102.74 206.118C99.9186 203.272 97.8209 199.764 96.1227 196.158C92.3327 187.951 89.8567 179.199 88.7853 170.223C87.5058 159.985 87.9869 149.605 90.208 139.529C90.3457 138.906 91.284 139.238 91.1472 139.858Z" fill="white"/>
<path d="M93.6544 188.916C90.6086 189.77 87.3583 189.514 84.4842 188.192C81.61 186.871 79.2989 184.572 77.9638 181.704C77.6957 181.123 78.5862 180.679 78.8547 181.261C80.093 183.933 82.246 186.075 84.9249 187.3C87.6039 188.525 90.6324 188.752 93.4639 187.939C94.0794 187.764 94.2663 188.741 93.6544 188.916Z" fill="white"/>
<path d="M110.525 210.387C113.744 204.779 114.73 198.163 113.287 191.86C113.144 191.235 114.12 191.045 114.264 191.669C115.753 198.231 114.712 205.114 111.35 210.943C111.03 211.498 110.206 210.939 110.525 210.387Z" fill="white"/>
<path d="M88.7719 160.355C90.0192 160.271 91.2259 159.877 92.2837 159.211C93.3414 158.544 94.217 157.625 94.8319 156.537C95.1456 155.978 95.9686 156.537 95.657 157.093C94.9721 158.292 94.0038 159.306 92.8368 160.045C91.6698 160.784 90.3395 161.226 88.9623 161.332C88.8333 161.353 88.7013 161.324 88.5929 161.251C88.4845 161.178 88.408 161.066 88.3789 160.939C88.3543 160.81 88.3818 160.676 88.4554 160.566C88.529 160.457 88.6427 160.381 88.7719 160.355Z" fill="white"/>
<path d="M141.039 47.1897L165.959 338.914L116.118 342.661V50.9012C122.057 46.9714 130.582 46.3566 141.039 47.1897Z" fill="#CCCCCC"/>
<path d="M264.05 47.1897L239.13 338.914L288.971 342.661V50.9012C283.032 46.9714 274.506 46.3566 264.05 47.1897Z" fill="#CCCCCC"/>
<path d="M281.509 354.719H123.051C120.51 354.716 118.075 353.705 116.278 351.908C114.481 350.112 113.471 347.676 113.468 345.135V55.1827C113.471 52.6419 114.481 50.2059 116.278 48.4093C118.075 46.6126 120.511 45.602 123.051 45.5991H281.509C284.049 45.602 286.485 46.6126 288.282 48.4093C290.079 50.2059 291.089 52.6419 291.092 55.1827V345.135C291.089 347.676 290.079 350.112 288.282 351.908C286.485 353.705 284.049 354.716 281.509 354.719ZM123.051 48.7804C121.354 48.7823 119.727 49.4575 118.526 50.6577C117.326 51.858 116.651 53.4853 116.649 55.1827V345.135C116.651 346.832 117.326 348.46 118.526 349.66C119.727 350.86 121.354 351.535 123.051 351.537H281.509C283.206 351.535 284.833 350.86 286.034 349.66C287.234 348.46 287.909 346.832 287.911 345.135V55.1827C287.909 53.4853 287.234 51.858 286.034 50.6577C284.833 49.4575 283.206 48.7823 281.509 48.7805L123.051 48.7804Z" fill="#CCCCCC"/>
<path d="M289.502 93.8494H115.059V97.0307H289.502V93.8494Z" fill="#CCCCCC"/>
<path d="M289.502 146.872H115.059V150.053H289.502V146.872Z" fill="#CCCCCC"/>
<path d="M171.667 47.1897H168.485V191.94H171.667V47.1897Z" fill="#CCCCCC"/>
<path d="M236.074 47.1897H232.893V191.94H236.074V47.1897Z" fill="#CCCCCC"/>
<path d="M309.385 363.467H100.477C96.6803 363.467 93.039 361.959 90.3542 359.274C87.6694 356.59 86.1611 352.948 86.1611 349.151C86.1611 345.355 87.6694 341.713 90.3542 339.029C93.039 336.344 96.6803 334.835 100.477 334.835H309.385C313.181 334.835 316.823 336.344 319.508 339.029C322.192 341.713 323.701 345.355 323.701 349.151C323.701 352.948 322.192 356.59 319.508 359.274C316.823 361.959 313.181 363.467 309.385 363.467Z" fill="#CCCCCC"/>
<path d="M289.501 184.517H116.118V195.122H289.501V184.517Z" fill="#CCCCCC"/>
<path d="M172.161 218.266L171.941 218.16C160.121 212.45 144.643 212.455 121.753 218.179L121.509 218.24L121.436 217.998C119.014 210.059 116.271 201.066 121.424 196.642C121.496 183.659 132.885 173.117 146.873 173.117C160.858 173.117 172.244 183.654 172.321 196.633C179.986 202.494 176.333 211.155 172.284 218.055L172.161 218.266Z" fill="#2F2E41"/>
<path d="M244.807 190.466C244.595 191.518 244.155 192.511 243.518 193.375C242.881 194.238 242.062 194.952 241.12 195.465C240.177 195.978 239.133 196.278 238.062 196.344C236.991 196.41 235.919 196.24 234.92 195.847L193.151 237.821L189.424 224.788L230.909 185.809C231.681 184.175 233.025 182.882 234.687 182.173C236.349 181.465 238.214 181.39 239.927 181.965C241.64 182.539 243.083 183.721 243.982 185.288C244.882 186.855 245.175 188.698 244.807 190.466Z" fill="#FFB6B6"/>
<path d="M141.574 230.876C141.574 230.876 137.784 239.464 147.135 244.76C156.486 250.056 189.167 242.739 194.47 241.717C199.773 240.696 219.579 211.056 219.579 211.056L216.778 196.52L190.511 219.322L141.574 230.876Z" fill="#24BA63"/>
<path d="M134.676 278.367L135.207 288.441C135.207 288.441 133.642 297.365 134.929 299.29C136.206 301.207 171.064 301.449 171.064 301.449C171.064 301.449 173.367 289.033 175.351 278.165L134.676 278.367Z" fill="#FFB6B6"/>
<path d="M234.895 411.57L242.183 410.098L240.097 380.663L229.342 382.835L234.895 411.57Z" fill="#FFB6B6"/>
<path d="M245.334 373.265L252.109 370.218L243.32 342.055L233.321 346.551L245.334 373.265Z" fill="#FFB6B6"/>
<path d="M251.236 357.396L238.48 364.619L207.021 314.066C184.936 328.945 163.34 336.07 141.57 339.872C134.209 341.183 126.705 340.519 125.292 333.027C125.226 332.677 125.173 332.325 125.134 331.971C124.264 323.788 134.443 313.299 135.737 303.287L163.595 301.615L167.031 306.019L199.248 286.212C205.727 282.229 214.248 284.383 218.281 291.024C218.494 291.375 218.692 291.734 218.874 292.102L251.236 357.396Z" fill="#2F2E41"/>
<path d="M243.428 391.403L228.832 392.759L202.367 338.634C176.123 343.147 151.365 344.593 129.95 339.133C122.699 337.31 118.267 329.824 120.051 322.411C120.134 322.065 120.23 321.722 120.34 321.383C122.903 313.563 129.612 308.03 134.898 299.43L173.507 300.016L169.194 314.895L206.7 310.042C214.243 309.066 221.131 314.525 222.086 322.236C222.136 322.643 222.169 323.052 222.185 323.463L243.428 391.403Z" fill="#2F2E41"/>
<path d="M149.752 210.571C158.41 210.571 165.429 203.552 165.429 194.894C165.429 186.235 158.41 179.216 149.752 179.216C141.093 179.216 134.074 186.235 134.074 194.894C134.074 203.552 141.093 210.571 149.752 210.571Z" fill="#FFB6B6"/>
<path d="M140.561 216.23L154.936 217.922C155.542 217.993 156.111 218.252 156.563 218.662C157.015 219.071 157.328 219.612 157.459 220.209L159.745 230.669L173.995 247.451C173.995 247.451 179.112 257.046 177.193 267.92C175.275 278.794 174.431 286.874 174.431 286.874C174.431 286.874 136.204 301.207 134.925 299.288C133.646 297.369 133.231 288.653 133.231 288.653L128.113 231.723C128.113 231.723 133.87 222.129 137.068 222.129C139.133 222.059 138.868 217.413 140.561 216.23Z" fill="#24BA63"/>
<path d="M174.82 290.375C176.836 290.375 178.47 288.414 178.47 285.995C178.47 283.576 176.836 281.615 174.82 281.615C172.804 281.615 171.17 283.576 171.17 285.995C171.17 288.414 172.804 290.375 174.82 290.375Z" fill="#24BA63"/>
<path d="M231.279 403.991L242.389 398.423L244.483 403.308L258.532 406.148C259.226 406.288 259.857 406.646 260.333 407.17C260.809 407.695 261.105 408.357 261.177 409.061C261.25 409.765 261.096 410.474 260.737 411.085C260.378 411.695 259.833 412.174 259.183 412.453L245.608 418.272L241.198 414.443L242.355 419.666L237.237 421.86L231.279 403.991Z" fill="#2F2E41"/>
<path d="M242.154 370.922L253.165 365.159L255.344 370.007L269.441 372.599C270.137 372.727 270.774 373.074 271.259 373.59C271.744 374.106 272.052 374.763 272.137 375.466C272.222 376.168 272.08 376.88 271.732 377.496C271.384 378.113 270.848 378.602 270.202 378.892L256.732 384.949L252.255 381.198L253.504 386.4L248.426 388.684L242.154 370.922Z" fill="#2F2E41"/>
<path d="M140.795 189.976C136.653 189.983 132.611 188.707 129.223 186.325L129.109 186.246V186.108C129.114 182.102 130.707 178.261 133.54 175.428C136.373 172.595 140.214 171.001 144.221 170.997H150.583C154.59 171.001 158.431 172.595 161.264 175.428C164.097 178.261 165.69 182.102 165.695 186.108C165.69 187.025 165.328 187.904 164.686 188.558C164.043 189.212 163.17 189.589 162.253 189.609L141.153 189.973C141.033 189.975 140.914 189.976 140.795 189.976Z" fill="#2F2E41"/>
<path d="M166.755 183.206C168.784 182.034 169.123 178.823 167.512 176.034C165.902 173.244 162.951 171.932 160.923 173.104C158.894 174.275 158.555 177.486 160.165 180.276C161.776 183.065 164.726 184.377 166.755 183.206Z" fill="#2F2E41"/>
<path d="M135.024 180.093C137.302 177.816 137.806 174.626 136.149 172.97C134.493 171.313 131.303 171.817 129.026 174.095C126.748 176.372 126.244 179.562 127.901 181.218C129.557 182.875 132.747 182.371 135.024 180.093Z" fill="#2F2E41"/>
<path d="M273.774 323.436H258.125C257.772 323.435 257.424 323.511 257.103 323.659C256.783 323.807 256.499 324.024 256.27 324.293C255.693 324.187 255.099 324.219 254.537 324.387C253.975 324.555 253.46 324.854 253.036 325.26C252.612 325.665 252.29 326.166 252.096 326.72C251.903 327.274 251.843 327.866 251.923 328.447C252.003 329.028 252.219 329.583 252.555 330.064C252.89 330.546 253.335 330.941 253.853 331.217C254.37 331.493 254.946 331.643 255.533 331.653C256.12 331.664 256.701 331.535 257.228 331.278L258.526 335.495C258.679 335.995 258.989 336.432 259.41 336.743C259.831 337.054 260.34 337.221 260.863 337.221H271.037C271.56 337.221 272.069 337.054 272.489 336.743C272.91 336.432 273.22 335.995 273.374 335.495L276.111 326.6C276.223 326.234 276.248 325.847 276.184 325.47C276.12 325.093 275.968 324.736 275.741 324.428C275.513 324.12 275.217 323.87 274.875 323.698C274.534 323.525 274.156 323.436 273.774 323.436ZM255.61 330.594C254.907 330.594 254.233 330.314 253.736 329.817C253.238 329.32 252.959 328.646 252.959 327.942C252.959 327.239 253.238 326.565 253.736 326.068C254.233 325.571 254.907 325.291 255.61 325.291C255.659 325.291 255.704 325.303 255.752 325.306C255.646 325.732 255.659 326.18 255.789 326.6L256.908 330.24C256.514 330.469 256.066 330.591 255.61 330.594Z" fill="#3F3D56"/>
<path d="M203.898 311.926C202.829 312.025 201.752 311.888 200.742 311.526C199.732 311.163 198.814 310.583 198.052 309.828C197.29 309.072 196.703 308.158 196.333 307.151C195.962 306.144 195.817 305.068 195.907 303.998L143.713 276.028L155.129 268.719L204.372 297.276C206.159 297.547 207.784 298.463 208.939 299.852C210.095 301.241 210.701 303.006 210.642 304.811C210.584 306.617 209.865 308.339 208.622 309.65C207.379 310.961 205.698 311.771 203.898 311.926Z" fill="#FFB6B6"/>
<path d="M135.568 224.627C135.568 224.627 126.254 223.46 123.863 233.937C121.473 244.415 137.859 273.623 140.359 278.409C142.859 283.196 176.936 293.665 176.936 293.665L190.057 286.812L160.677 268.191L135.568 224.627Z" fill="#24BA63"/>
<path d="M201.219 181.336H204.4C205.947 181.336 207.431 181.95 208.525 183.044C209.618 184.138 210.233 185.622 210.233 187.168H195.387C195.387 185.622 196.001 184.138 197.095 183.044C198.189 181.95 199.672 181.336 201.219 181.336Z" fill="#CCCCCC"/>
<path d="M100.34 72.5162C117.746 72.5162 131.857 58.4054 131.857 40.9988C131.857 23.5923 117.746 9.48145 100.34 9.48145C82.9331 9.48145 68.8223 23.5923 68.8223 40.9988C68.8223 58.4054 82.9331 72.5162 100.34 72.5162Z" fill="#24BA63"/>
<path d="M196.838 39.3563C188.497 30.6063 178.81 22.624 167.342 18.4059C164.148 17.2259 160.836 16.3936 157.463 15.9232C157.436 15.9195 157.41 15.925 157.383 15.9228C157.328 15.9087 157.273 15.8978 157.216 15.8901C152.499 15.2892 147.711 15.5782 143.101 16.7423C140.846 17.3081 138.646 18.0743 136.528 19.0319C134.403 20.0689 132.343 21.2361 130.361 22.527C126.166 25.038 121.548 26.761 116.733 27.611C114.316 28.0461 111.869 28.2864 109.414 28.3294C107.283 28.3722 105.274 28.4462 103.256 29.2158C101.1 30.0265 99.1633 31.33 97.6005 33.0221C96.0377 34.7143 94.8921 36.7483 94.255 38.9618C94.2059 39.1589 94.2207 39.3665 94.2972 39.5547C94.3738 39.7429 94.5082 39.9018 94.681 40.0086C95.227 40.3997 95.7592 40.8433 96.3328 41.1917C96.8431 41.4253 97.3882 41.5739 97.9464 41.6318C98.8584 41.8242 99.7716 42.011 100.686 42.1922C104.054 42.8596 107.437 43.4504 110.833 43.9646C117.705 45.0049 124.615 45.7378 131.562 46.1631C145.478 47.006 159.442 46.5864 173.282 44.9092C181.061 43.9671 188.786 42.6308 196.429 40.9056C196.584 40.8604 196.724 40.7759 196.837 40.6605C196.949 40.545 197.03 40.4024 197.071 40.2465C197.112 40.0906 197.113 39.9267 197.072 39.7707C197.031 39.6148 196.951 39.472 196.838 39.3563Z" fill="#E6E6E6"/>
<path d="M101.836 60.4291C98.6419 59.2491 95.3297 58.4168 91.9569 57.9464C91.9298 57.9427 91.9041 57.9482 91.8772 57.946C91.8223 57.9319 91.7666 57.9209 91.7105 57.9133C86.9934 57.3124 82.2054 57.6014 77.5948 58.7655C75.3402 59.3313 73.1406 60.0975 71.0224 61.0551C68.8968 62.0921 66.8371 63.2593 64.8553 64.5501C60.6604 67.0612 56.0418 68.7842 51.2272 69.6342C48.8105 70.0693 46.3628 70.3095 43.9077 70.3526C41.7774 70.3953 39.7684 70.4694 37.7501 71.239C35.5941 72.0497 33.6574 73.3532 32.0947 75.0453C30.5319 76.7374 29.3862 78.7714 28.7491 80.9849C28.7 81.1821 28.7148 81.3897 28.7914 81.5778C28.868 81.766 29.0023 81.925 29.1751 82.0318C29.7211 82.4228 30.2534 82.8665 30.827 83.2148C31.3373 83.4484 31.8823 83.5971 32.4405 83.6549C33.3525 83.8474 34.2657 84.0342 35.18 84.2154C38.5484 84.8828 41.9308 85.4736 45.3272 85.9877C52.1996 87.0281 59.1092 87.7609 66.0558 88.1862C79.972 89.0292 93.9359 88.6095 107.776 86.9323C115.555 85.9902 123.28 84.654 130.923 82.9288C131.078 82.8835 131.219 82.7991 131.331 82.6836C131.444 82.5681 131.524 82.4255 131.565 82.2696C131.607 82.1137 131.607 81.9499 131.566 81.7939C131.525 81.6379 131.445 81.4952 131.332 81.3794C122.991 72.6295 113.304 64.6472 101.836 60.4291Z" fill="#E6E6E6"/>
<path d="M329.121 295.386L304.884 263.546L285.76 274.359L326.285 322.483L329.121 295.386Z" fill="#3F3D56"/>
<path d="M384.952 243.627C385.49 256.97 387.558 270.208 391.113 283.08C390.35 284.878 389.562 286.663 388.749 288.436C385.672 295.149 382.227 301.688 378.43 308.022C367.782 325.809 354.489 341.873 339.008 355.662C337.333 357.152 335.634 358.618 333.913 360.058C324.099 346.527 318.802 331.596 316.707 316.23C316.442 314.279 316.225 312.306 316.06 310.344V310.334C315.658 305.566 315.529 300.779 315.673 295.997C315.679 295.615 315.689 295.228 315.705 294.841C315.891 289.729 316.352 284.607 317.047 279.533V279.528C317.126 278.945 317.206 278.361 317.296 277.778C317.55 276.028 317.837 274.279 318.149 272.54C319.97 262.509 322.511 252.623 325.753 242.958V242.953C325.843 242.672 325.933 242.396 326.034 242.121C326.384 241.071 326.739 240.032 327.105 238.992C327.128 238.911 327.156 238.831 327.19 238.754C327.662 237.396 328.144 236.05 328.637 234.714C328.77 234.342 328.908 233.971 329.051 233.6C329.608 232.11 330.175 230.631 330.753 229.173C330.933 228.706 331.119 228.239 331.304 227.778C331.447 227.423 331.585 227.068 331.734 226.718V226.712C332.577 224.629 333.43 222.586 334.295 220.583C336.718 214.952 339.21 209.655 341.638 204.772L341.644 204.767C351.723 184.549 360.885 171.421 360.885 171.421L395.291 182.556C391.188 189.836 388.012 200.573 386.272 213.24C384.932 223.308 384.491 233.475 384.952 243.621L384.952 243.627Z" fill="#3F3D56"/>
<path d="M327.768 240.387C327.566 239.915 327.338 239.454 327.105 238.992C325.895 236.651 324.338 234.505 322.487 232.63C322.211 232.349 321.925 232.068 321.628 231.803C318.434 228.861 314.55 226.772 310.335 225.728C306.12 224.685 301.711 224.721 297.513 225.832L297.492 225.843L297.333 225.885L297.37 226.066C297.529 226.906 297.76 227.73 298.059 228.531C298.139 228.749 298.229 228.955 298.319 229.162C298.356 229.258 298.404 229.342 298.446 229.438C298.446 229.438 298.441 229.443 298.452 229.443C298.452 229.448 298.457 229.454 298.457 229.459C298.558 229.655 298.653 229.857 298.759 230.048C298.542 229.841 298.335 229.629 298.134 229.411C297.937 229.21 297.757 228.998 297.577 228.786C296.959 228.065 296.4 227.295 295.907 226.485L295.822 226.341L295.673 226.4C293.673 227.093 291.764 228.028 289.989 229.183L289.798 229.311C288.444 230.2 286.917 230.795 285.318 231.056C283.718 231.317 282.082 231.239 280.514 230.827C278.043 230.19 275.467 230.074 272.949 230.485C270.43 230.897 268.025 231.828 265.885 233.218C264.468 234.142 263.187 235.259 262.078 236.538C261.983 236.649 261.888 236.766 261.792 236.877C261.591 237.121 261.4 237.37 261.214 237.625C259.221 240.288 257.998 243.449 257.678 246.76L257.667 246.882L257.768 246.951C259.562 248.181 261.591 249.026 263.727 249.433C262.385 249.62 261.026 249.654 259.677 249.533H259.671C259.059 249.483 258.45 249.398 257.847 249.279L257.736 249.258H257.731L257.593 249.231L257.614 249.486C257.772 252.725 258.792 255.864 260.567 258.579L260.62 258.653C260.64 258.68 260.658 258.709 260.673 258.738C261.426 259.888 262.051 261.117 262.54 262.402C263.779 265.595 264.052 269.082 263.324 272.428C262.501 276.008 262.775 279.753 264.11 283.174C265.445 286.596 267.781 289.536 270.811 291.612C273.473 293.443 276.576 294.532 279.798 294.767C280.239 294.804 280.684 294.825 281.129 294.825C283.679 294.833 286.202 294.307 288.537 293.282L288.621 293.25L288.643 293.155C289.091 291.706 289.722 290.32 290.52 289.03C290.259 290.046 290.127 291.092 290.127 292.142V292.492L290.429 292.317C290.689 292.163 290.954 291.999 291.193 291.845C292.625 290.91 293.922 289.782 295.048 288.494C295.488 287.985 295.933 287.492 296.4 286.999L296.405 286.994C297.312 286.029 298.271 285.085 299.268 284.183C301.389 282.279 303.658 280.546 306.055 279.003C308.45 277.465 310.954 276.104 313.547 274.931H313.552C313.844 274.793 314.141 274.661 314.433 274.533C315.724 273.971 316.967 273.304 318.149 272.54C318.192 272.513 318.229 272.492 318.266 272.465C323.392 269.109 327.16 264.043 328.9 258.169C330.64 252.294 330.239 245.993 327.768 240.387Z" fill="#24BA63"/>
<path opacity="0.15" d="M264.198 279.956C264.053 280.601 263.944 281.253 263.87 281.91C262.883 278.79 262.74 275.465 263.455 272.272C263.566 271.784 263.648 271.289 263.713 270.792C264.693 273.749 264.86 276.913 264.198 279.956Z" fill="black"/>
<path opacity="0.15" d="M264.599 256.957C263.028 257.175 261.435 257.182 259.863 256.979C259.451 256.202 259.095 255.397 258.799 254.569C260.55 255.751 262.523 256.563 264.599 256.957Z" fill="black"/>
<path opacity="0.15" d="M259.737 249.363C259.157 250.846 258.772 252.397 258.591 253.979C258.107 252.472 257.822 250.909 257.741 249.329L257.729 249.075L257.979 249.123C258.56 249.232 259.147 249.312 259.737 249.363Z" fill="black"/>
<path opacity="0.15" d="M266.022 233.061C268.159 231.668 270.563 230.736 273.08 230.323C275.598 229.911 278.173 230.028 280.643 230.666C282.211 231.081 283.848 231.16 285.449 230.899C287.049 230.638 288.577 230.043 289.932 229.152L290.124 229.026C291.896 227.868 293.804 226.931 295.804 226.236L295.957 226.183L296.041 226.321C296.832 227.629 297.79 228.827 298.891 229.887C298.222 228.641 297.754 227.297 297.503 225.905L297.467 225.721L297.648 225.673C301.585 224.631 305.712 224.535 309.693 225.392C313.674 226.249 317.396 228.035 320.556 230.604C323.715 233.173 326.222 236.453 327.873 240.176C329.524 243.899 330.271 247.959 330.053 252.025C329.218 248.71 327.733 245.594 325.685 242.856C323.637 240.119 321.066 237.815 318.121 236.079C315.176 234.343 311.915 233.208 308.529 232.741C305.142 232.274 301.696 232.483 298.391 233.358L298.21 233.406L298.246 233.589C298.497 234.981 298.965 236.325 299.634 237.571C298.533 236.512 297.575 235.313 296.784 234.005L296.7 233.867L296.547 233.92C294.547 234.615 292.639 235.552 290.867 236.71L290.675 236.837C289.32 237.728 287.792 238.323 286.192 238.584C284.591 238.845 282.954 238.765 281.386 238.351C277.281 237.286 272.934 237.677 269.086 239.459C265.238 241.241 262.127 244.302 260.283 248.121C259.463 247.726 258.667 247.282 257.901 246.79L257.797 246.724L257.809 246.602C258.073 243.873 258.948 241.238 260.37 238.894C261.792 236.549 263.724 234.556 266.022 233.061Z" fill="black"/>
<path d="M463.138 97.582L462.635 97.248L462.269 97.7252C459.437 101.29 457.185 105.278 455.593 109.544C455.813 104.63 456.672 99.7658 458.149 95.0741L458.308 94.581L457.852 94.3212C451.919 90.9618 445.598 88.3408 439.029 86.5163L438.313 86.3254C433.279 84.944 428.592 82.5168 424.558 79.2023C420.525 75.8878 417.235 71.7603 414.904 67.0889C409.487 56.3682 400.929 47.5544 390.372 41.8238C379.816 36.0931 367.763 33.7182 355.821 35.0158H355.816C355.689 35.0264 355.556 35.0423 355.429 35.0582C355.212 35.0794 355 35.1059 354.787 35.1325C354.353 35.1908 353.928 35.2491 353.504 35.3127C353.144 35.3658 352.778 35.4241 352.417 35.4877C352.226 35.5142 352.041 35.546 351.855 35.5831C351.67 35.615 351.479 35.6468 351.293 35.6839H351.288C347.728 36.3573 344.238 37.3602 340.864 38.6796H340.858V38.6849L340.005 39.019C339.125 39.3795 338.252 39.7613 337.386 40.1642C337.189 40.2544 336.998 40.3498 336.802 40.44C336.749 40.4665 336.691 40.493 336.638 40.5248C336.081 40.7899 335.53 41.0656 334.984 41.3572C334.904 41.3944 334.825 41.4368 334.745 41.4792L334.236 41.7496C333.117 42.3541 332.018 42.9956 330.938 43.6743C330.848 43.7273 330.763 43.7804 330.673 43.8387C330.577 43.9023 330.477 43.9659 330.381 44.0296C330.323 44.0614 330.265 44.1038 330.206 44.1409C330.042 44.2417 329.883 44.3477 329.724 44.459C329.406 44.6658 329.088 44.8779 328.775 45.0953C328.451 45.3127 328.133 45.5407 327.815 45.7687L327.497 45.9967L327.555 46.389C327.608 46.7125 327.656 47.0359 327.714 47.3541C327.767 47.6722 327.82 47.985 327.879 48.2978C327.969 48.8228 328.07 49.3424 328.17 49.8461C328.239 50.1801 328.303 50.5089 328.377 50.8323C328.446 51.1663 328.52 51.5004 328.6 51.8344C328.754 52.5237 328.918 53.1918 329.093 53.8493C329.178 54.178 329.268 54.5067 329.363 54.8302C329.416 55.0264 329.469 55.2225 329.528 55.4134C329.57 55.546 329.613 55.6785 329.655 55.8111C329.666 55.8535 329.676 55.9012 329.692 55.949C329.704 55.9939 329.718 56.0381 329.734 56.0815C329.793 56.2777 329.851 56.4686 329.909 56.6541C329.941 56.7549 329.973 56.8556 330.01 56.9511C330.084 57.1791 330.164 57.4124 330.243 57.6351C330.328 57.8896 330.418 58.1441 330.509 58.3933C330.53 58.4569 330.551 58.5152 330.572 58.5789C330.588 58.6266 330.604 58.6743 330.625 58.722C330.646 58.775 330.668 58.8334 330.689 58.8864C330.779 59.125 330.869 59.3689 330.965 59.6075C330.996 59.6923 331.028 59.7825 331.065 59.8673C331.925 62.0273 332.981 64.1039 334.22 66.0709C332.847 64.8938 331.525 63.646 330.254 62.3275C328.292 60.2889 326.484 58.1072 324.846 55.8005C324.713 55.6202 324.581 55.4346 324.459 55.2491C324.21 54.8938 323.966 54.5386 323.727 54.178C323.473 53.8069 323.229 53.4198 322.99 53.038C322.831 52.7835 322.672 52.5237 322.518 52.2692C322.364 52.0253 322.221 51.7867 322.083 51.5428L321.67 50.8323H321.665V50.8376L321.081 51.4102C320.848 51.6383 320.615 51.8662 320.387 52.0942C313.26 59.2645 308.098 68.1476 305.397 77.8895L305.318 78.1811L305.238 78.4834C305.084 79.0242 304.931 79.5491 304.766 80.0846V80.0899C304.607 80.6202 304.438 81.1504 304.257 81.67C304.093 82.1631 303.923 82.6509 303.743 83.1387C303.685 83.3031 303.621 83.4675 303.552 83.6318C303.441 83.95 303.319 84.2628 303.197 84.5809C303.139 84.7241 303.08 84.8725 303.022 85.0157C302.879 85.3657 302.736 85.7156 302.592 86.0602C302.571 86.1133 302.545 86.1716 302.518 86.2246C302.476 86.3307 302.428 86.4367 302.386 86.5374C302.274 86.7919 302.158 87.0518 302.046 87.3063C301.967 87.4706 301.893 87.6403 301.818 87.8047C301.786 87.8789 301.749 87.9531 301.718 88.0274C301.521 88.4515 301.32 88.8704 301.108 89.284C300.869 89.7718 300.625 90.2596 300.365 90.7368C300.137 91.1822 299.899 91.617 299.65 92.0518C299.22 92.8206 298.77 93.5841 298.303 94.3264C298.123 94.6128 297.942 94.8991 297.757 95.1854C297.714 95.2543 297.672 95.3233 297.63 95.3869C297.476 95.6361 297.317 95.8747 297.152 96.1186C297.041 96.283 296.93 96.4473 296.818 96.6064C296.633 96.8927 296.437 97.1684 296.235 97.4388C296.182 97.5237 296.124 97.6032 296.065 97.6827C295.768 98.0963 295.472 98.4993 295.169 98.9022C295.159 98.9075 295.159 98.9128 295.153 98.9182C295.143 98.9182 295.143 98.9235 295.138 98.9288C295.005 99.1037 294.872 99.2787 294.735 99.4484C294.554 99.6976 294.358 99.9415 294.162 100.18C293.844 100.583 293.51 100.991 293.17 101.389C293.16 101.4 293.154 101.41 293.144 101.416C291.387 103.48 289.484 105.415 287.449 107.206C287.412 107.237 287.386 107.269 287.349 107.296C287.062 107.545 286.776 107.794 286.479 108.038C286.357 108.139 286.235 108.239 286.113 108.34C285.912 108.51 285.705 108.68 285.503 108.833C285.48 108.858 285.453 108.879 285.424 108.897C285.244 109.045 285.069 109.183 284.888 109.321C284.671 109.496 284.454 109.66 284.231 109.825C283.181 110.62 282.103 111.371 280.996 112.078C280.832 112.19 280.657 112.301 280.487 112.407C280.387 112.471 280.286 112.534 280.191 112.587C279.788 112.836 279.385 113.08 278.982 113.314C278.579 113.552 278.165 113.78 277.757 114.003C276.882 114.48 276.018 114.979 275.175 115.498C274.75 115.763 274.326 116.028 273.907 116.299C272.243 117.381 270.639 118.538 269.098 119.772C267.557 121.006 266.08 122.317 264.671 123.701C264.496 123.87 264.321 124.045 264.146 124.226C263.796 124.57 263.457 124.92 263.133 125.27C262.614 125.806 262.115 126.357 261.622 126.914C259.022 129.864 256.72 133.065 254.75 136.468C253.761 138.168 252.862 139.918 252.057 141.712C251.447 143.054 250.89 144.427 250.387 145.816C250.053 146.744 249.74 147.681 249.448 148.626C249.305 149.098 249.167 149.576 249.035 150.053C248.584 151.67 248.208 153.303 247.9 154.941C247.651 156.256 247.449 157.573 247.296 158.892C247.216 159.554 247.152 160.217 247.094 160.875C246.958 162.491 246.888 164.108 246.885 165.727C246.875 170.585 247.466 175.425 248.642 180.138C248.902 181.177 249.19 182.211 249.507 183.239C249.666 183.754 249.835 184.263 250.005 184.772C250.434 186.044 250.91 187.304 251.431 188.552C251.744 189.3 252.073 190.042 252.417 190.779C254.608 195.465 257.403 199.843 260.731 203.801C261.277 204.454 261.841 205.095 262.423 205.726C262.428 205.726 262.423 205.731 262.423 205.731C263.866 207.305 265.393 208.799 266.999 210.206H267.004C267.645 210.774 268.298 211.323 268.96 211.855C268.966 211.85 268.966 211.855 268.966 211.855C269.634 212.396 270.307 212.916 270.996 213.42C271.341 213.669 271.691 213.918 272.046 214.167C272.741 214.66 273.45 215.136 274.173 215.594H274.178C274.899 216.06 275.631 216.505 276.373 216.93C277.863 217.783 279.39 218.584 280.959 219.31L281.224 219.432L281.495 219.31C284.011 218.178 286.605 217.226 289.257 216.463C289.841 216.293 290.429 216.14 291.012 215.991C292.486 215.625 293.971 215.318 295.466 215.069C294.009 215.799 292.603 216.627 291.256 217.545C290.212 218.25 289.183 219.019 288.149 219.867C287.805 220.148 287.46 220.44 287.115 220.737L286.256 221.479L287.333 221.834C287.725 221.962 288.117 222.089 288.51 222.205C289.045 222.375 289.575 222.529 290.095 222.672C291.23 222.99 292.371 223.271 293.52 223.515C293.801 223.573 294.077 223.632 294.358 223.69C294.904 223.796 295.456 223.902 296.007 223.998C296.03 224.003 296.053 224.007 296.076 224.008C296.649 224.104 297.227 224.194 297.799 224.273C298.865 224.427 299.931 224.549 300.996 224.639C301.113 224.655 301.23 224.66 301.352 224.666C301.612 224.687 301.866 224.708 302.126 224.724C302.698 224.761 303.276 224.788 303.854 224.809C303.897 224.809 303.934 224.814 303.976 224.814C304.268 224.825 304.56 224.835 304.851 224.841C304.851 224.841 304.851 224.846 304.856 224.841C305.148 224.846 305.44 224.851 305.731 224.851H307.343C307.645 224.851 307.948 224.856 308.255 224.856C308.679 224.856 309.109 224.862 309.533 224.867C309.644 224.867 309.761 224.872 309.878 224.872C310.556 224.883 311.235 224.899 311.914 224.915C311.956 224.915 311.999 224.92 312.041 224.92C312.72 224.941 313.398 224.963 314.077 224.994C314.226 225 314.374 225.005 314.528 225.016C315.18 225.042 315.832 225.074 316.484 225.111C316.67 225.122 316.861 225.138 317.052 225.148C317.545 225.175 318.043 225.206 318.536 225.244C318.828 225.259 319.114 225.281 319.406 225.307C320.583 225.397 321.755 225.498 322.932 225.615C323.324 225.647 323.716 225.689 324.109 225.731C325.159 225.843 326.212 225.965 327.269 226.097C327.741 226.15 328.213 226.214 328.685 226.277C328.738 226.283 328.791 226.288 328.844 226.299C329.427 226.378 330.005 226.458 330.588 226.543C330.97 226.596 331.352 226.654 331.733 226.712C332.126 226.771 332.518 226.829 332.911 226.898C333.123 226.93 333.335 226.967 333.552 227.004C334.061 227.083 334.575 227.168 335.09 227.264C335.136 227.268 335.182 227.275 335.228 227.285C336.32 227.476 337.417 227.677 338.51 227.895C339.151 228.017 339.787 228.144 340.424 228.276C340.922 228.377 341.421 228.483 341.919 228.589C342.004 228.605 342.089 228.626 342.174 228.648C342.193 228.653 342.212 228.657 342.232 228.658C342.985 228.823 343.743 228.992 344.496 229.173C347.11 229.777 349.72 230.449 352.327 231.187C352.926 231.352 353.526 231.527 354.125 231.702C354.379 231.776 354.628 231.85 354.878 231.924C355.397 232.078 355.912 232.232 356.431 232.396C356.887 232.534 357.348 232.677 357.804 232.826C358.091 232.916 358.377 233.006 358.663 233.101C359.109 233.239 359.554 233.382 359.994 233.536C360.371 233.653 360.742 233.775 361.113 233.907C361.643 234.082 362.179 234.263 362.709 234.454C362.863 234.507 363.022 234.56 363.176 234.618C363.822 234.841 364.469 235.069 365.116 235.307C365.747 235.535 366.378 235.768 367.004 236.002C367.439 236.166 367.873 236.325 368.303 236.495C368.785 236.68 369.268 236.866 369.745 237.057C370.434 237.327 371.129 237.603 371.818 237.884C372.454 238.139 373.085 238.398 373.722 238.669C373.838 238.717 373.96 238.764 374.077 238.817C374.628 239.045 375.18 239.284 375.726 239.522C376.081 239.671 376.431 239.825 376.781 239.978C378.308 240.647 379.833 241.338 381.357 242.052H381.362C382.317 242.502 383.287 242.932 384.263 243.34C384.491 243.436 384.719 243.531 384.952 243.621C385.339 243.785 385.731 243.939 386.124 244.098C386.378 244.199 386.633 244.3 386.892 244.395C387.269 244.544 387.651 244.687 388.032 244.825C388.435 244.973 388.833 245.122 389.241 245.259C389.385 245.312 389.528 245.36 389.676 245.413C390.148 245.572 390.62 245.731 391.097 245.885C391.145 245.901 391.193 245.917 391.246 245.933C391.744 246.092 392.242 246.251 392.746 246.399C392.786 246.414 392.827 246.427 392.868 246.437C393.409 246.601 393.96 246.76 394.506 246.914C395.312 247.136 396.124 247.349 396.935 247.545C397.083 247.582 397.232 247.619 397.38 247.651C397.815 247.757 398.245 247.858 398.679 247.953C399.141 248.059 399.607 248.154 400.068 248.25C400.535 248.345 401.002 248.441 401.463 248.526C401.712 248.573 401.961 248.621 402.205 248.663L402.857 248.775C403.308 248.854 403.759 248.923 404.215 248.998C404.227 248.997 404.24 248.999 404.252 249.003C404.766 249.082 405.275 249.157 405.79 249.22C406.283 249.289 406.776 249.347 407.269 249.406C407.37 249.416 407.476 249.427 407.582 249.438C407.99 249.485 408.398 249.533 408.807 249.57C408.923 249.581 409.04 249.591 409.156 249.602C409.559 249.639 409.962 249.676 410.365 249.703C410.446 249.713 410.528 249.719 410.609 249.719C410.97 249.75 411.33 249.777 411.691 249.793C411.945 249.814 412.195 249.825 412.449 249.841C412.582 249.846 412.709 249.851 412.842 249.856C413.191 249.878 413.541 249.888 413.897 249.899C414.326 249.915 414.756 249.925 415.18 249.936C415.694 249.947 416.214 249.952 416.728 249.952H416.739C417.242 249.952 417.751 249.947 418.255 249.936H418.446L419.003 249.92C419.289 249.915 419.575 249.904 419.856 249.894C420.397 249.872 420.933 249.846 421.468 249.814C421.68 249.803 421.898 249.788 422.11 249.777C422.205 249.772 422.306 249.761 422.402 249.756C422.736 249.735 423.064 249.713 423.398 249.687C423.743 249.66 424.093 249.628 424.438 249.591C424.883 249.549 425.328 249.501 425.774 249.454C426.124 249.416 426.474 249.374 426.818 249.332C426.865 249.327 426.911 249.32 426.956 249.31C427.29 249.273 427.624 249.231 427.953 249.183C428.345 249.13 428.732 249.072 429.119 249.013C429.162 249.008 429.199 249.003 429.241 248.998C429.909 248.892 430.583 248.785 431.256 248.664C431.961 248.536 432.667 248.398 433.367 248.255C433.626 248.202 433.881 248.144 434.141 248.091C434.284 248.059 434.432 248.033 434.57 248.001C434.788 247.953 435 247.905 435.212 247.852C435.249 247.847 435.291 247.836 435.328 247.831C435.625 247.767 435.917 247.693 436.214 247.619C436.808 247.476 437.391 247.327 437.974 247.168C438.234 247.105 438.494 247.036 438.743 246.967C438.817 246.946 438.891 246.924 438.96 246.903C440.037 246.601 441.104 246.281 442.163 245.943C442.63 245.795 443.091 245.641 443.552 245.477C444.544 245.138 445.526 244.781 446.5 244.406C446.76 244.31 447.02 244.204 447.28 244.104C447.661 243.95 448.043 243.796 448.42 243.642C448.759 243.499 449.098 243.356 449.443 243.208C449.613 243.139 449.782 243.064 449.952 242.99C450.461 242.767 450.97 242.539 451.474 242.311C451.813 242.152 452.147 241.999 452.481 241.84C453.011 241.585 453.536 241.325 454.061 241.065C454.194 240.997 454.321 240.928 454.448 240.864C454.782 240.694 455.116 240.519 455.456 240.35C455.991 240.063 456.527 239.777 457.057 239.48C457.237 239.385 457.412 239.284 457.592 239.183C458.176 238.854 458.754 238.52 459.326 238.181C460.593 237.423 461.843 236.631 463.075 235.806C463.382 235.604 463.69 235.392 463.992 235.185C464.565 234.793 465.127 234.39 465.689 233.987C465.747 233.945 465.8 233.902 465.859 233.865C466.14 233.658 466.421 233.451 466.702 233.239C467.285 232.799 467.863 232.354 468.441 231.898C468.451 231.893 468.467 231.877 468.483 231.866C468.743 231.659 469.003 231.453 469.257 231.246C470.047 230.604 470.827 229.952 471.59 229.279C471.967 228.955 472.338 228.621 472.704 228.287C472.979 228.038 473.255 227.789 473.526 227.534C474.072 227.02 474.607 226.511 475.137 225.991C475.402 225.737 475.662 225.472 475.927 225.207C476.187 224.941 476.452 224.676 476.712 224.406C476.802 224.316 476.892 224.22 476.983 224.125C477.248 223.844 477.513 223.558 477.778 223.276C478.006 223.033 478.229 222.778 478.457 222.524C478.838 222.099 479.225 221.675 479.602 221.246C479.622 221.222 479.643 221.199 479.665 221.177C479.687 221.15 479.708 221.129 479.724 221.108H479.719C487.426 212.196 493.152 201.748 496.519 190.457C499.886 179.166 500.816 167.289 499.249 155.611C497.681 143.933 493.652 132.721 487.427 122.718C481.201 112.714 472.923 104.146 463.138 97.582Z" fill="#24BA63"/>
<g opacity="0.15">
<path d="M355.818 35.0117C356.875 38.8083 358.465 42.4358 360.541 45.7858C357.065 42.8004 353.96 39.4095 351.292 35.6855C352.791 35.4019 354.299 35.1774 355.818 35.0117Z" fill="black"/>
<path d="M304.08 93.727C300.156 95.8688 296.487 98.448 293.143 101.415C298.789 94.7387 302.915 86.914 305.236 78.4836C305.264 78.3823 305.293 78.2804 305.32 78.1789L305.399 77.892C308.188 67.8303 313.599 58.6898 321.08 51.4055L321.668 50.8325L322.083 51.5407C324.376 55.4398 327.12 59.0555 330.258 62.313C325.449 75.8834 316.091 87.1778 304.08 93.727Z" fill="black"/>
<path d="M331.72 57.6108L331.641 57.8977C331.614 57.9992 331.585 58.1011 331.557 58.2024C331.402 58.7604 331.238 59.3141 331.068 59.8655C329.391 55.521 328.213 50.9999 327.557 46.3892L327.495 45.998L327.817 45.7681C331.852 42.8689 336.234 40.4867 340.861 38.6772C336.706 44.3912 333.61 50.8039 331.72 57.6108Z" fill="black"/>
<path d="M277.759 114.008C281.232 112.107 284.483 109.825 287.451 107.205C281.522 114.108 277.272 122.29 275.034 131.11C272.796 139.93 272.631 149.148 274.552 158.042C276.472 166.937 280.427 175.265 286.104 182.376C291.782 189.487 299.029 195.186 307.278 199.027L307.546 199.151L307.814 199.03C312.269 197.017 316.967 195.591 321.789 194.786C318.779 196.32 315.974 198.225 313.438 200.456L312.58 201.198L313.656 201.553C314.585 201.861 315.514 202.143 316.417 202.394C321.724 203.872 327.21 204.606 332.718 204.575C357.745 204.415 382.967 210.201 407.682 221.772C411.92 223.753 416.317 225.378 420.825 226.63C440.472 232.1 461.447 230.132 479.734 221.103C469.424 233.027 455.943 241.781 440.856 246.349C425.77 250.918 409.697 251.112 394.504 246.911C389.996 245.659 385.6 244.035 381.361 242.053C356.646 230.482 331.425 224.696 306.397 224.856C300.889 224.887 295.403 224.153 290.097 222.675C289.193 222.424 288.264 222.142 287.335 221.834L286.259 221.479L287.117 220.737C289.653 218.506 292.459 216.601 295.469 215.068C290.646 215.872 285.948 217.298 281.493 219.311L281.226 219.432L280.957 219.308C271.052 214.698 262.622 207.425 256.609 198.302C250.596 189.179 247.236 178.565 246.904 167.644C246.572 156.723 249.282 145.924 254.73 136.453C260.179 126.982 268.151 119.212 277.759 114.008Z" fill="black"/>
</g>
</g>
<defs>
<clipPath id="clip0_128_67">
<rect width="500" height="421.86" fill="white"/>
</clipPath>
</defs>
</svg>
