<svg width="460" height="307" viewBox="0 0 460 307" fill="none" xmlns="http://www.w3.org/2000/svg">
<path d="M410.522 38.027C410.884 35.4264 407.21 33.2859 404.456 33.0651C403.138 32.9547 401.77 33.1571 400.525 32.7216C397.826 31.7832 396.747 28.2934 394.115 27.2016C392.147 26.3675 389.877 27.1096 387.982 28.0726C386.087 29.0355 384.186 30.2438 382.051 30.3787C380.211 30.4952 378.181 29.8083 376.531 30.716C375.304 31.3907 374.691 32.783 373.575 33.6048C372.459 34.4267 371.06 34.58 369.705 34.6536C368.349 34.7272 366.951 34.7395 365.718 35.3038C364.485 35.868 363.467 37.1438 363.725 38.5054L410.522 38.027Z" fill="#F5F5F5"/>
<path d="M115.086 84.3398H63.2471V248.627H115.086V84.3398Z" fill="#F5F5F5"/>
<path d="M115.085 84.3398H89.166V248.173H115.085V84.3398Z" fill="#EBEBEB"/>
<path d="M87.474 68.2148H69.166V84.3455H87.474V68.2148Z" fill="#F5F5F5"/>
<path d="M87.4672 68.2148H83.1064V84.3455H87.4672V68.2148Z" fill="#EBEBEB"/>
<path d="M58.9287 84.3398V83.4014H116.6V84.3398" fill="#E0E0E0"/>
<path d="M77.8629 91.375H73.4775V100.624H77.8629V91.375Z" fill="#FAFAFA"/>
<path d="M89.1665 104.267C89.1665 104.359 83.3644 104.438 76.2068 104.438C69.0492 104.438 63.2471 104.359 63.2471 104.267C63.2471 104.175 69.0492 104.089 76.2068 104.089C83.3644 104.089 89.1665 104.162 89.1665 104.267Z" fill="#E0E0E0"/>
<path d="M104.009 91.375H99.624V100.624H104.009V91.375Z" fill="#E0E0E0"/>
<path d="M115.307 104.267C115.307 104.359 109.505 104.438 102.347 104.438C95.1898 104.438 89.3877 104.359 89.3877 104.267C89.3877 104.175 95.1898 104.089 102.347 104.089C109.505 104.089 115.307 104.162 115.307 104.267Z" fill="#E0E0E0"/>
<path d="M104.009 109.744H99.624V118.999H104.009V109.744Z" fill="#E0E0E0"/>
<path d="M115.307 122.63C115.307 122.722 109.505 122.802 102.347 122.802C95.1898 122.802 89.3877 122.722 89.3877 122.63C89.3877 122.538 95.1898 122.452 102.347 122.452C109.505 122.452 115.307 122.532 115.307 122.63Z" fill="#E0E0E0"/>
<path d="M104.009 128.665H99.624V137.914H104.009V128.665Z" fill="#E0E0E0"/>
<path d="M115.307 141.552C115.307 141.65 109.505 141.73 102.347 141.73C95.1898 141.73 89.3877 141.65 89.3877 141.552C89.3877 141.454 95.1898 141.374 102.347 141.374C109.505 141.374 115.307 141.454 115.307 141.552Z" fill="#E0E0E0"/>
<path d="M104.009 147.593H99.624V156.842H104.009V147.593Z" fill="#E0E0E0"/>
<path d="M115.307 160.473C115.307 160.571 109.505 160.651 102.347 160.651C95.1898 160.651 89.3877 160.571 89.3877 160.473C89.3877 160.375 95.1898 160.295 102.347 160.295C109.505 160.295 115.307 160.375 115.307 160.473Z" fill="#E0E0E0"/>
<path d="M104.009 165.975H99.624V175.224H104.009V165.975Z" fill="#E0E0E0"/>
<path d="M115.307 178.855C115.307 178.953 109.505 179.032 102.347 179.032C95.1898 179.032 89.3877 178.953 89.3877 178.855C89.3877 178.756 95.1898 178.677 102.347 178.677C109.505 178.677 115.307 178.756 115.307 178.855Z" fill="#E0E0E0"/>
<path d="M104.009 184.43H99.624V193.679H104.009V184.43Z" fill="#E0E0E0"/>
<path d="M104.009 203.124H99.624V212.373H104.009V203.124Z" fill="#E0E0E0"/>
<path d="M115.307 197.309C115.307 197.408 109.505 197.487 102.347 197.487C95.1898 197.487 89.3877 197.408 89.3877 197.309C89.3877 197.211 95.1898 197.138 102.347 197.138C109.505 197.138 115.307 197.217 115.307 197.309Z" fill="#E0E0E0"/>
<path d="M77.8629 110.026H73.4775V119.275H77.8629V110.026Z" fill="#FAFAFA"/>
<path d="M89.1665 122.906C89.1665 123.005 83.3644 123.084 76.2068 123.084C69.0492 123.084 63.2471 123.005 63.2471 122.906C63.2471 122.808 69.0492 122.729 76.2068 122.729C83.3644 122.729 89.1665 122.808 89.1665 122.906Z" fill="#E0E0E0"/>
<path d="M77.8629 128.672H73.4775V137.921H77.8629V128.672Z" fill="#FAFAFA"/>
<path d="M89.1665 141.558C89.1665 141.656 83.3644 141.736 76.2068 141.736C69.0492 141.736 63.2471 141.656 63.2471 141.558C63.2471 141.46 69.0492 141.38 76.2068 141.38C83.3644 141.38 89.1665 141.46 89.1665 141.558Z" fill="#E0E0E0"/>
<path d="M77.8629 147.323H73.4775V156.572H77.8629V147.323Z" fill="#FAFAFA"/>
<path d="M89.1665 160.209C89.1665 160.301 83.3644 160.381 76.2068 160.381C69.0492 160.381 63.2471 160.301 63.2471 160.209C63.2471 160.117 69.0492 160.031 76.2068 160.031C83.3644 160.031 89.1665 160.111 89.1665 160.209Z" fill="#E0E0E0"/>
<path d="M77.8629 165.975H73.4775V175.224H77.8629V165.975Z" fill="#FAFAFA"/>
<path d="M89.1665 178.855C89.1665 178.953 83.3644 179.032 76.2068 179.032C69.0492 179.032 63.2471 178.953 63.2471 178.855C63.2471 178.756 69.0492 178.677 76.2068 178.677C83.3644 178.677 89.1665 178.756 89.1665 178.855Z" fill="#E0E0E0"/>
<path d="M77.8629 184.62H73.4775V193.869H77.8629V184.62Z" fill="#FAFAFA"/>
<path d="M89.1665 197.493C89.1665 197.591 83.3644 197.671 76.2068 197.671C69.0492 197.671 63.2471 197.591 63.2471 197.493C63.2471 197.395 69.0492 197.315 76.2068 197.315C83.3644 197.315 89.1665 197.407 89.1665 197.493Z" fill="#E0E0E0"/>
<path d="M77.8629 203.271H73.4775V212.521H77.8629V203.271Z" fill="#FAFAFA"/>
<path d="M319.633 46.8711H244.91V283.679H319.633V46.8711Z" fill="#F5F5F5"/>
<path d="M319.627 46.8711H282.269V283.029H319.627V46.8711Z" fill="#EBEBEB"/>
<path d="M279.827 23.626H253.441V46.8774H279.827V23.626Z" fill="#F5F5F5"/>
<path d="M279.828 23.626H273.541V46.8774H279.828V23.626Z" fill="#EBEBEB"/>
<path d="M238.685 46.8711V45.5156H321.816V46.8711" fill="#E0E0E0"/>
<path d="M265.985 57.0156H259.661V70.3495H265.985V57.0156Z" fill="#FAFAFA"/>
<path d="M282.268 75.5815C282.268 75.7226 273.909 75.8391 263.592 75.8391C253.276 75.8391 244.91 75.7226 244.91 75.5815C244.91 75.4405 253.27 75.3301 263.592 75.3301C273.915 75.3301 282.268 75.4405 282.268 75.5815Z" fill="#E0E0E0"/>
<path d="M303.667 57.0156H297.344V70.3495H303.667V57.0156Z" fill="#E0E0E0"/>
<path d="M319.958 75.5815C319.958 75.7226 311.592 75.8391 301.276 75.8391C290.96 75.8391 282.594 75.7226 282.594 75.5815C282.594 75.4405 290.96 75.3301 301.276 75.3301C311.592 75.3301 319.958 75.4405 319.958 75.5815Z" fill="#E0E0E0"/>
<path d="M303.667 83.4932H297.344V96.827H303.667V83.4932Z" fill="#E0E0E0"/>
<path d="M319.958 102.065C319.958 102.206 311.592 102.317 301.276 102.317C290.96 102.317 282.594 102.206 282.594 102.065C282.594 101.924 290.96 101.808 301.276 101.808C311.592 101.808 319.958 101.924 319.958 102.065Z" fill="#E0E0E0"/>
<path d="M303.667 110.769H297.344V124.102H303.667V110.769Z" fill="#E0E0E0"/>
<path d="M319.958 129.34C319.958 129.481 311.592 129.597 301.276 129.597C290.96 129.597 282.594 129.481 282.594 129.34C282.594 129.199 290.96 129.082 301.276 129.082C311.592 129.082 319.958 129.199 319.958 129.34Z" fill="#E0E0E0"/>
<path d="M303.667 138.05H297.344V151.384H303.667V138.05Z" fill="#E0E0E0"/>
<path d="M319.958 156.615C319.958 156.756 311.592 156.872 301.276 156.872C290.96 156.872 282.594 156.756 282.594 156.615C282.594 156.474 290.96 156.363 301.276 156.363C311.592 156.363 319.958 156.474 319.958 156.615Z" fill="#E0E0E0"/>
<path d="M303.667 164.546H297.344V177.88H303.667V164.546Z" fill="#E0E0E0"/>
<path d="M319.958 183.117C319.958 183.252 311.592 183.368 301.276 183.368C290.96 183.368 282.594 183.252 282.594 183.117C282.594 182.982 290.96 182.859 301.276 182.859C311.592 182.859 319.958 182.976 319.958 183.117Z" fill="#E0E0E0"/>
<path d="M303.667 191.146H297.344V204.479H303.667V191.146Z" fill="#E0E0E0"/>
<path d="M303.667 218.102H297.344V231.435H303.667V218.102Z" fill="#E0E0E0"/>
<path d="M319.958 209.717C319.958 209.858 311.592 209.975 301.276 209.975C290.96 209.975 282.594 209.858 282.594 209.717C282.594 209.576 290.96 209.466 301.276 209.466C311.592 209.466 319.958 209.576 319.958 209.717Z" fill="#E0E0E0"/>
<path d="M265.985 83.8984H259.661V97.2323H265.985V83.8984Z" fill="#FAFAFA"/>
<path d="M282.268 102.47C282.268 102.604 273.909 102.721 263.592 102.721C253.276 102.721 244.91 102.604 244.91 102.47C244.91 102.335 253.27 102.212 263.592 102.212C273.915 102.212 282.268 102.328 282.268 102.47Z" fill="#E0E0E0"/>
<path d="M265.985 110.78H259.661V124.114H265.985V110.78Z" fill="#FAFAFA"/>
<path d="M282.268 129.352C282.268 129.487 273.909 129.604 263.592 129.604C253.276 129.604 244.91 129.487 244.91 129.352C244.91 129.217 253.27 129.095 263.592 129.095C273.915 129.095 282.268 129.211 282.268 129.352Z" fill="#E0E0E0"/>
<path d="M265.985 137.663H259.661V150.997H265.985V137.663Z" fill="#FAFAFA"/>
<path d="M282.268 156.235C282.268 156.37 273.909 156.487 263.592 156.487C253.276 156.487 244.91 156.37 244.91 156.235C244.91 156.1 253.27 155.978 263.592 155.978C273.915 155.978 282.268 156.094 282.268 156.235Z" fill="#E0E0E0"/>
<path d="M265.985 164.546H259.661V177.88H265.985V164.546Z" fill="#FAFAFA"/>
<path d="M282.268 183.117C282.268 183.252 273.909 183.368 263.592 183.368C253.276 183.368 244.91 183.252 244.91 183.117C244.91 182.982 253.27 182.859 263.592 182.859C273.915 182.859 282.268 182.976 282.268 183.117Z" fill="#E0E0E0"/>
<path d="M265.985 191.428H259.661V204.762H265.985V191.428Z" fill="#FAFAFA"/>
<path d="M282.268 210C282.268 210.141 273.909 210.251 263.592 210.251C253.276 210.251 244.91 210.141 244.91 210C244.91 209.859 253.27 209.742 263.592 209.742C273.915 209.742 282.268 209.859 282.268 210Z" fill="#E0E0E0"/>
<path d="M265.985 218.311H259.661V231.644H265.985V218.311Z" fill="#FAFAFA"/>
<path d="M346 154.297H305.177V283.673H346V154.297Z" fill="#F5F5F5"/>
<path d="M346 154.297H325.588V283.318H346V154.297Z" fill="#EBEBEB"/>
<path d="M324.251 141.595H309.838V154.297H324.251V141.595Z" fill="#F5F5F5"/>
<path d="M324.251 141.595H320.816V154.297H324.251V141.595Z" fill="#EBEBEB"/>
<path d="M301.772 154.297V153.555H347.196V154.297" fill="#E0E0E0"/>
<path d="M316.688 159.835H313.235V167.121H316.688V159.835Z" fill="#FAFAFA"/>
<path d="M325.588 169.986C325.588 170.059 321.019 170.121 315.383 170.121C309.746 170.121 305.177 170.059 305.177 169.986C305.177 169.912 309.746 169.845 315.383 169.845C321.019 169.845 325.588 169.894 325.588 169.986Z" fill="#E0E0E0"/>
<path d="M337.278 159.835H333.825V167.121H337.278V159.835Z" fill="#E0E0E0"/>
<path d="M346.177 169.986C346.177 170.059 341.608 170.121 335.972 170.121C330.335 170.121 325.766 170.059 325.766 169.986C325.766 169.912 330.335 169.845 335.972 169.845C341.608 169.845 346.177 169.894 346.177 169.986Z" fill="#E0E0E0"/>
<path d="M337.278 174.304H333.825V181.59H337.278V174.304Z" fill="#E0E0E0"/>
<path d="M346.177 184.448C346.177 184.527 341.608 184.589 335.972 184.589C330.335 184.589 325.766 184.527 325.766 184.448C325.766 184.368 330.335 184.307 335.972 184.307C341.608 184.307 346.177 184.374 346.177 184.448Z" fill="#E0E0E0"/>
<path d="M337.278 189.208H333.825V196.494H337.278V189.208Z" fill="#E0E0E0"/>
<path d="M346.177 199.333C346.177 199.407 341.608 199.475 335.972 199.475C330.335 199.475 325.766 199.407 325.766 199.333C325.766 199.26 330.335 199.192 335.972 199.192C341.608 199.192 346.177 199.272 346.177 199.333Z" fill="#E0E0E0"/>
<path d="M337.278 204.105H333.825V211.392H337.278V204.105Z" fill="#E0E0E0"/>
<path d="M346.177 214.256C346.177 214.33 341.608 214.391 335.972 214.391C330.335 214.391 325.766 214.33 325.766 214.256C325.766 214.183 330.335 214.115 335.972 214.115C341.608 214.115 346.177 214.177 346.177 214.256Z" fill="#E0E0E0"/>
<path d="M337.278 218.586H333.825V225.872H337.278V218.586Z" fill="#E0E0E0"/>
<path d="M346.177 228.731C346.177 228.811 341.608 228.872 335.972 228.872C330.335 228.872 325.766 228.811 325.766 228.731C325.766 228.651 330.335 228.59 335.972 228.59C341.608 228.59 346.177 228.651 346.177 228.731Z" fill="#E0E0E0"/>
<path d="M337.278 233.122H333.825V240.408H337.278V233.122Z" fill="#E0E0E0"/>
<path d="M337.278 247.842H333.825V255.128H337.278V247.842Z" fill="#E0E0E0"/>
<path d="M346.177 243.267C346.177 243.341 341.608 243.402 335.972 243.402C330.335 243.402 325.766 243.341 325.766 243.267C325.766 243.193 330.335 243.126 335.972 243.126C341.608 243.126 346.177 243.187 346.177 243.267Z" fill="#E0E0E0"/>
<path d="M316.688 174.524H313.235V181.811H316.688V174.524Z" fill="#FAFAFA"/>
<path d="M325.588 184.669C325.588 184.749 321.019 184.81 315.383 184.81C309.746 184.81 305.177 184.749 305.177 184.669C305.177 184.59 309.746 184.528 315.383 184.528C321.019 184.528 325.588 184.614 325.588 184.669Z" fill="#E0E0E0"/>
<path d="M316.688 189.214H313.235V196.5H316.688V189.214Z" fill="#FAFAFA"/>
<path d="M325.588 199.333C325.588 199.407 321.019 199.468 315.383 199.468C309.746 199.468 305.177 199.407 305.177 199.333C305.177 199.26 309.746 199.192 315.383 199.192C321.019 199.192 325.588 199.278 325.588 199.333Z" fill="#E0E0E0"/>
<path d="M316.688 203.896H313.235V211.183H316.688V203.896Z" fill="#FAFAFA"/>
<path d="M325.588 214.054C325.588 214.134 321.019 214.195 315.383 214.195C309.746 214.195 305.177 214.134 305.177 214.054C305.177 213.974 309.746 213.919 315.383 213.919C321.019 213.919 325.588 213.968 325.588 214.054Z" fill="#E0E0E0"/>
<path d="M316.688 218.586H313.235V225.872H316.688V218.586Z" fill="#FAFAFA"/>
<path d="M325.588 228.731C325.588 228.811 321.019 228.872 315.383 228.872C309.746 228.872 305.177 228.811 305.177 228.731C305.177 228.651 309.746 228.59 315.383 228.59C321.019 228.59 325.588 228.651 325.588 228.731Z" fill="#E0E0E0"/>
<path d="M316.688 233.27H313.235V240.556H316.688V233.27Z" fill="#FAFAFA"/>
<path d="M325.588 243.42C325.588 243.494 321.019 243.555 315.383 243.555C309.746 243.555 305.177 243.494 305.177 243.42C305.177 243.347 309.746 243.279 315.383 243.279C321.019 243.279 325.588 243.341 325.588 243.42Z" fill="#E0E0E0"/>
<path d="M316.688 247.959H313.235V255.245H316.688V247.959Z" fill="#FAFAFA"/>
<path d="M141.269 200.266H97.3174V283.679H141.269V200.266Z" fill="#E0E0E0"/>
<path d="M141.269 200.266H120.661V283.679H141.269V200.266Z" fill="#EBEBEB"/>
<path d="M110.486 208.11H106.536V217.709H110.486V208.11Z" fill="#F5F5F5"/>
<path d="M110.486 245.689H106.536V255.288H110.486V245.689Z" fill="#F5F5F5"/>
<path d="M120.661 221.481C120.661 221.567 115.436 221.628 109.008 221.628C102.58 221.628 97.3545 221.567 97.3545 221.481C97.3545 221.395 102.58 221.334 109.008 221.334C115.436 221.334 120.661 221.414 120.661 221.481Z" fill="#F5F5F5"/>
<path d="M110.486 227.044H106.536V236.643H110.486V227.044Z" fill="#F5F5F5"/>
<path d="M120.661 240.427C120.661 240.507 115.436 240.574 109.008 240.574C102.58 240.574 97.3545 240.507 97.3545 240.427C97.3545 240.347 102.58 240.273 109.008 240.273C115.436 240.273 120.661 240.329 120.661 240.427Z" fill="#F5F5F5"/>
<path d="M128.99 208.11H125.04V217.709H128.99V208.11Z" fill="#E0E0E0"/>
<path d="M137.564 208.11H133.614V217.709H137.564V208.11Z" fill="#E0E0E0"/>
<path d="M128.99 226.333H125.04V235.932H128.99V226.333Z" fill="#E0E0E0"/>
<path d="M137.564 226.333H133.614V235.932H137.564V226.333Z" fill="#E0E0E0"/>
<path d="M128.99 244.549H125.04V254.147H128.99V244.549Z" fill="#E0E0E0"/>
<path d="M137.564 244.549H133.614V254.147H137.564V244.549Z" fill="#E0E0E0"/>
<path d="M144.575 198.248H94.0176V200.34H144.575V198.248Z" fill="#E0E0E0"/>
<path d="M141.576 200.561C141.576 200.64 131.763 200.708 119.637 200.708C107.512 200.708 97.6982 200.64 97.6982 200.561C97.6982 200.481 107.512 200.407 119.637 200.407C131.763 200.407 141.576 200.45 141.576 200.561Z" fill="#EBEBEB"/>
<path d="M97.821 283.618H27.0423L26.7295 171.752H97.5143L97.821 283.618Z" fill="#EBEBEB"/>
<path d="M97.5143 171.752H62.125V283.618H97.5143V171.752Z" fill="#E0E0E0"/>
<path d="M59.8058 149.728H34.8125V171.752H59.8058V149.728Z" fill="#EBEBEB"/>
<path d="M59.8061 149.728H53.8506V171.752H59.8061V149.728Z" fill="#E0E0E0"/>
<path d="M99.587 170.464H20.835V171.746H99.587V170.464Z" fill="#E0E0E0"/>
<path d="M46.6934 181.357H40.7012V193.992H46.6934V181.357Z" fill="white"/>
<path d="M62.125 198.948C62.125 199.083 54.2007 199.187 44.4303 199.187C34.6599 199.187 26.7295 199.083 26.7295 198.948C26.7295 198.813 34.6538 198.721 44.4303 198.721C54.2068 198.721 62.125 198.813 62.125 198.948Z" fill="#E0E0E0"/>
<path d="M82.3956 181.357H76.4033V193.992H82.3956V181.357Z" fill="#F5F5F5"/>
<path d="M97.821 198.947C97.821 199.082 89.8967 199.186 80.1263 199.186C70.3559 199.186 62.4316 199.082 62.4316 198.947C62.4316 198.812 70.3498 198.708 80.1263 198.708C89.9028 198.708 97.821 198.812 97.821 198.947Z" fill="#EBEBEB"/>
<path d="M82.3956 206.437H76.4033V219.071H82.3956V206.437Z" fill="#F5F5F5"/>
<path d="M97.821 224.032C97.821 224.161 89.8967 224.272 80.1263 224.272C70.3559 224.272 62.4316 224.161 62.4316 224.032C62.4316 223.904 70.3498 223.787 80.1263 223.787C89.9028 223.787 97.821 223.898 97.821 224.032Z" fill="#EBEBEB"/>
<path d="M82.3956 232.275H76.4033V244.91H82.3956V232.275Z" fill="#F5F5F5"/>
<path d="M97.821 249.872C97.821 250.001 89.8967 250.111 80.1263 250.111C70.3559 250.111 62.4316 250.001 62.4316 249.872C62.4316 249.743 70.3498 249.627 80.1263 249.627C89.9028 249.627 97.821 249.737 97.821 249.872Z" fill="#EBEBEB"/>
<path d="M82.3956 258.115H76.4033V270.75H82.3956V258.115Z" fill="#F5F5F5"/>
<path d="M97.821 275.706C97.821 275.841 89.8967 275.951 80.1263 275.951C70.3559 275.951 62.4316 275.841 62.4316 275.706C62.4316 275.571 70.3498 275.467 80.1263 275.467C89.9028 275.467 97.821 275.577 97.821 275.706Z" fill="#EBEBEB"/>
<path d="M46.6934 206.822H40.7012V219.457H46.6934V206.822Z" fill="white"/>
<path d="M62.125 224.413C62.125 224.548 54.2007 224.652 44.4303 224.652C34.6599 224.652 26.7295 224.548 26.7295 224.413C26.7295 224.278 34.6538 224.174 44.4303 224.174C54.2068 224.174 62.125 224.278 62.125 224.413Z" fill="#E0E0E0"/>
<path d="M46.6934 232.288H40.7012V244.923H46.6934V232.288Z" fill="white"/>
<path d="M62.125 249.878C62.125 250.013 54.2007 250.118 44.4303 250.118C34.6599 250.118 26.7295 250.013 26.7295 249.878C26.7295 249.743 34.6538 249.627 44.4303 249.627C54.2068 249.627 62.125 249.743 62.125 249.878Z" fill="#E0E0E0"/>
<path d="M46.6934 257.754H40.7012V270.389H46.6934V257.754Z" fill="white"/>
<path d="M62.125 275.344C62.125 275.479 54.2007 275.583 44.4303 275.583C34.6599 275.583 26.7295 275.479 26.7295 275.344C26.7295 275.209 34.6538 275.104 44.4303 275.104C54.2068 275.104 62.125 275.209 62.125 275.344Z" fill="#E0E0E0"/>
<path d="M433.351 110.4C433.86 106.684 428.616 103.654 424.672 103.31C422.795 103.157 420.839 103.445 419.06 102.826C415.202 101.483 413.663 96.4962 409.897 94.9077C407.081 93.7178 403.837 94.7789 401.114 96.1343C398.391 97.4898 395.686 99.2317 392.637 99.4279C389.988 99.5997 387.117 98.6122 384.787 99.9125C383.057 100.875 382.149 102.869 380.555 104.046C378.96 105.224 376.967 105.439 375.035 105.543C373.103 105.647 371.097 105.666 369.337 106.475C367.577 107.285 366.117 109.143 366.485 111.044L433.351 110.4Z" fill="#F5F5F5"/>
<path d="M449.034 242.739H392.092V283.673H449.034V242.739Z" fill="#EBEBEB"/>
<path d="M407.364 242.739C407.45 242.739 407.364 251.381 407.364 251.381H403.15V242.739H407.364Z" fill="#F5F5F5"/>
<path d="M420.562 283.673H449.033V242.739H420.562V283.673Z" fill="#E0E0E0"/>
<path d="M401.451 275.663H393.827V281.054H401.451V275.663Z" fill="white"/>
<path d="M406.671 275.663H402.862V281.054H406.671V275.663Z" fill="white"/>
<path d="M443.624 216.084H406.548V242.739H443.624V216.084Z" fill="#EBEBEB"/>
<path d="M416.496 216.084C416.545 216.084 416.496 221.714 416.496 221.714H413.748V216.084H416.496Z" fill="#F5F5F5"/>
<path d="M425.089 242.739H443.624V216.084H425.089V242.739Z" fill="#E0E0E0"/>
<path d="M412.644 237.52H407.683V241.034H412.644V237.52Z" fill="white"/>
<path d="M416.043 237.52H413.559V241.034H416.043V237.52Z" fill="white"/>
<path d="M64.6511 38.9472C64.9393 36.8434 61.9708 35.1077 59.7444 34.9298C58.6772 34.844 57.5732 35.0034 56.5612 34.6538C54.3777 33.8933 53.4945 31.072 51.3724 30.1704C49.7777 29.4957 47.9439 30.0968 46.3983 30.8757C44.8527 31.6546 43.3316 32.6298 41.602 32.7157C40.0993 32.8138 38.4679 32.2557 37.1553 32.9917C36.174 33.5376 35.6588 34.6661 34.7572 35.3285C33.8173 35.9113 32.7288 36.2095 31.6231 36.1872C30.5239 36.156 29.4289 36.335 28.3969 36.7146C27.3972 37.1685 26.5569 38.2234 26.7777 39.3029L64.6511 38.9472Z" fill="#EBEBEB"/>
<path d="M443.692 81.678C443.974 79.6234 441.079 77.9367 438.901 77.7588C437.865 77.6791 436.785 77.8324 435.798 77.4951C433.67 76.7468 432.817 73.993 430.738 73.1159C429.186 72.4658 427.395 73.0484 425.886 73.8028C424.378 74.5572 422.887 75.5202 421.207 75.6428C419.741 75.741 418.14 75.1951 416.87 75.9127C415.914 76.4463 415.417 77.5442 414.534 78.1943C413.612 78.7589 412.548 79.0463 411.467 79.0223C410.395 78.9941 409.328 79.1689 408.321 79.5375C407.345 79.9791 406.542 81.0095 406.744 82.0583L443.692 81.678Z" fill="#EBEBEB"/>
<path d="M129.855 51.9802C130.383 48.1346 124.949 44.9698 120.882 44.6202C118.932 44.4668 116.914 44.7612 115.074 44.1234C111.081 42.7311 109.486 37.573 105.592 35.9292C102.678 34.7026 99.3297 35.7943 96.5084 37.2172C93.687 38.6402 90.8964 40.425 87.7438 40.6274C84.9961 40.8052 82.0214 39.7871 79.6172 41.1242C77.8324 42.1239 76.894 44.1908 75.2441 45.4175C73.5942 46.6442 71.5334 46.8588 69.5278 46.9692C67.5222 47.0796 65.4553 47.098 63.6337 47.9322C61.8121 48.7663 60.3094 50.6922 60.6836 52.661L129.855 51.9802Z" fill="#F5F5F5"/>
<path d="M448.825 283.673C448.825 283.765 355.169 283.833 239.678 283.833C124.187 283.833 30.5312 283.765 30.5312 283.673C30.5312 283.581 124.169 283.514 239.709 283.514C355.248 283.514 448.825 283.587 448.825 283.673Z" fill="#263238"/>
<path d="M197.831 257.992C198.482 258.144 199.096 258.427 199.636 258.822C200.175 259.217 200.629 259.717 200.971 260.292C201.651 261.446 202.056 262.741 202.155 264.076C202.425 266.646 201.541 269.492 200.462 271.829C197.947 270.449 196.782 267.346 196.248 265.732C195.451 263.181 195.555 258.084 197.831 257.992Z" fill="#24BA63"/>
<path d="M203.823 275.43C203.522 274.744 203.407 273.991 203.49 273.247C203.573 272.503 203.851 271.794 204.295 271.191C204.751 270.599 205.321 270.103 205.971 269.732C206.62 269.361 207.337 269.124 208.079 269.032C208.416 268.953 208.765 268.949 209.103 269.02C209.442 269.091 209.76 269.236 210.036 269.443C210.258 269.678 210.413 269.968 210.488 270.282C210.562 270.597 210.552 270.925 210.459 271.234C210.257 271.849 209.897 272.401 209.417 272.835C207.84 274.381 206.031 275.595 203.823 275.43Z" fill="#24BA63"/>
<path d="M202.811 283.703C202.778 283.53 202.764 283.353 202.768 283.176C202.768 282.796 202.737 282.311 202.719 281.728C202.615 280.126 202.77 278.516 203.179 276.963C203.616 275.404 204.463 273.992 205.632 272.872C205.988 272.541 206.381 272.252 206.804 272.013C206.918 271.945 207.037 271.886 207.159 271.835C207.239 271.799 207.282 271.78 207.288 271.786C206.727 272.127 206.201 272.524 205.718 272.97C204.605 274.1 203.795 275.492 203.363 277.018C202.96 278.554 202.79 280.142 202.86 281.728C202.86 282.342 202.86 282.832 202.86 283.176C202.861 283.353 202.844 283.53 202.811 283.703Z" fill="#263238"/>
<path d="M198.106 261.894C198.139 261.962 198.163 262.034 198.18 262.108C198.229 262.274 198.284 262.488 198.358 262.722C198.511 263.28 198.726 264.083 198.971 265.083C199.48 267.076 200.142 269.836 200.811 272.909C201.479 275.982 202.007 278.766 202.369 280.796C202.547 281.808 202.688 282.636 202.773 283.195C202.816 283.464 202.847 283.685 202.872 283.851C202.877 283.928 202.877 284.006 202.872 284.084C202.842 284.011 202.822 283.935 202.81 283.857C202.774 283.691 202.731 283.477 202.675 283.207C202.565 282.624 202.406 281.808 202.215 280.821C201.823 278.803 201.265 276.012 200.608 272.946C199.952 269.879 199.302 267.113 198.83 265.114C198.597 264.126 198.407 263.323 198.272 262.74L198.124 262.127C198.11 262.05 198.103 261.972 198.106 261.894Z" fill="#263238"/>
<path d="M200.511 277.755C199.921 276.292 198.991 274.99 197.799 273.958C196.607 272.926 195.186 272.192 193.654 271.818C192.875 271.634 191.906 271.615 191.439 272.271C190.973 272.928 191.317 273.835 191.758 274.504C192.711 275.881 194.05 276.946 195.606 277.564C197.162 278.181 198.867 278.325 200.505 277.975" fill="#24BA63"/>
<path d="M194.519 274.123C194.685 274.136 194.85 274.167 195.009 274.215C195.2 274.258 195.388 274.312 195.574 274.375C195.794 274.454 196.046 274.516 196.31 274.638C196.603 274.753 196.89 274.884 197.168 275.031C197.491 275.192 197.805 275.373 198.107 275.571C198.803 276.025 199.445 276.558 200.02 277.159C200.587 277.768 201.081 278.441 201.492 279.165C201.668 279.48 201.826 279.806 201.965 280.14C202.09 280.428 202.201 280.723 202.296 281.023C202.375 281.271 202.44 281.523 202.492 281.777C202.544 281.966 202.581 282.159 202.602 282.354C202.638 282.517 202.656 282.684 202.658 282.851C202.615 282.851 202.535 282.145 202.167 281.066C202.069 280.772 201.954 280.483 201.824 280.201C201.682 279.875 201.52 279.557 201.339 279.251C200.93 278.544 200.442 277.885 199.885 277.288C199.33 276.7 198.713 276.174 198.045 275.718C197.749 275.518 197.442 275.333 197.125 275.166C196.837 275 196.549 274.877 196.291 274.761C195.206 274.307 194.506 274.16 194.519 274.123Z" fill="#263238"/>
<path d="M393.146 277.226C393.379 276.331 392.79 275.429 392.128 274.773C391.465 274.117 390.674 273.546 390.331 272.675C389.773 271.277 390.521 269.468 389.57 268.302C389.012 267.615 388.012 267.382 387.516 266.652C387.286 266.247 387.134 265.801 387.068 265.34C386.538 263.018 385.394 260.881 383.756 259.151C383.649 261.221 384.098 263.282 385.056 265.119C385.506 265.825 385.835 266.6 386.031 267.413C386.24 268.744 385.498 270.112 385.823 271.418C386.197 272.908 387.871 273.908 387.951 275.442C388.018 276.742 386.884 277.895 386.97 279.183C387.039 279.734 387.237 280.261 387.546 280.722C387.993 281.581 388.672 282.297 389.506 282.788C390.34 283.279 391.295 283.526 392.263 283.501L395.004 283.599L393.146 277.226Z" fill="#24BA63"/>
<g opacity="0.3">
<path d="M393.146 277.226C393.379 276.331 392.79 275.429 392.128 274.773C391.465 274.117 390.674 273.546 390.331 272.675C389.773 271.277 390.521 269.468 389.57 268.302C389.012 267.615 388.012 267.382 387.516 266.652C387.286 266.247 387.134 265.801 387.068 265.34C386.538 263.018 385.394 260.881 383.756 259.151C383.649 261.221 384.098 263.282 385.056 265.119C385.506 265.825 385.835 266.6 386.031 267.413C386.24 268.744 385.498 270.112 385.823 271.418C386.197 272.908 387.871 273.908 387.951 275.442C388.018 276.742 386.884 277.895 386.97 279.183C387.039 279.734 387.237 280.261 387.546 280.722C387.993 281.581 388.672 282.297 389.506 282.788C390.34 283.279 391.295 283.526 392.263 283.501L395.004 283.599L393.146 277.226Z" fill="black"/>
</g>
<path d="M395.557 283.661C395.806 283.705 396.062 283.705 396.311 283.661C396.614 283.617 396.912 283.543 397.201 283.44C397.598 283.298 397.969 283.091 398.299 282.827C398.5 282.664 398.656 282.453 398.752 282.213C398.833 281.949 398.877 281.674 398.881 281.398C398.886 281.1 398.908 280.803 398.949 280.508C398.999 280.197 399.111 279.898 399.28 279.631C399.723 279.066 400.071 278.432 400.31 277.755C400.444 276.958 400.419 276.143 400.237 275.356C400.039 274.506 400.062 273.619 400.304 272.78C400.599 271.928 401.193 271.149 401.494 270.186C401.795 269.223 401.653 268.162 401.721 267.119C401.739 266.594 401.86 266.077 402.077 265.598C402.297 265.114 402.604 264.66 402.843 264.151C403.261 263.081 403.5 261.949 403.549 260.802C403.616 260.225 403.684 259.643 403.745 259.054C403.785 258.46 403.888 257.872 404.052 257.3C404.233 256.722 404.453 256.156 404.708 255.607C404.835 255.319 404.942 255.021 405.027 254.718C405.076 254.399 405.094 254.104 405.113 253.779C405.143 253.147 405.119 252.513 405.039 251.884C404.965 251.271 404.849 250.621 404.781 249.989V249.879V249.756L404.671 249.811C404.09 250.101 403.585 250.52 403.193 251.038C402.814 251.548 402.511 252.11 402.291 252.706C401.897 253.873 401.612 255.074 401.439 256.294C401.263 257.456 400.881 258.578 400.31 259.606C400.01 260.091 399.648 260.538 399.329 261.011C398.989 261.475 398.756 262.009 398.648 262.575C398.489 263.734 399.127 264.752 398.992 265.776C398.932 266.281 398.763 266.767 398.495 267.199C398.243 267.635 397.955 268.039 397.673 268.426C397.39 268.823 397.146 269.246 396.943 269.689C396.748 270.123 396.633 270.588 396.606 271.063C396.538 271.983 396.667 272.86 396.606 273.688C396.531 274.475 396.302 275.24 395.931 275.939C395.6 276.614 395.232 277.221 394.925 277.779C394.771 278.064 394.632 278.357 394.508 278.656C394.398 278.935 394.318 279.225 394.269 279.521C394.193 280.039 394.193 280.566 394.269 281.085C394.344 281.809 394.615 282.498 395.054 283.078C395.123 283.162 395.197 283.242 395.275 283.317C395.331 283.374 395.393 283.426 395.459 283.471L395.612 283.581C395.419 283.424 395.242 283.247 395.085 283.054C394.658 282.474 394.4 281.789 394.336 281.073C394.276 280.56 394.288 280.042 394.373 279.533C394.427 279.244 394.509 278.96 394.619 278.687C394.742 278.394 394.882 278.107 395.036 277.828C395.342 277.215 395.716 276.638 396.054 275.957C396.435 275.248 396.672 274.471 396.753 273.67C396.827 272.823 396.698 271.94 396.753 271.039C396.782 270.581 396.895 270.132 397.084 269.714C397.286 269.283 397.528 268.872 397.808 268.487C398.084 268.082 398.378 267.677 398.636 267.23C398.916 266.781 399.094 266.277 399.157 265.752C399.292 264.654 398.66 263.629 398.82 262.556C398.928 262.015 399.154 261.504 399.482 261.06C399.789 260.593 400.157 260.152 400.464 259.649C401.05 258.606 401.441 257.465 401.617 256.282C401.793 255.073 402.076 253.883 402.463 252.724C402.68 252.144 402.977 251.597 403.346 251.099C403.717 250.598 404.2 250.191 404.757 249.909L404.634 249.836V249.946C404.702 250.59 404.818 251.216 404.892 251.841C404.965 252.452 404.987 253.067 404.959 253.681C404.952 253.987 404.925 254.292 404.88 254.595C404.8 254.889 404.698 255.176 404.573 255.454C404.315 256.009 404.094 256.581 403.911 257.165C403.746 257.745 403.643 258.342 403.604 258.944C403.536 259.557 403.469 260.121 403.408 260.698C403.36 261.826 403.128 262.938 402.721 263.991C402.494 264.488 402.187 264.948 401.954 265.451C401.732 265.948 401.609 266.483 401.592 267.027C401.531 268.082 401.666 269.119 401.384 270.051C401.101 270.983 400.5 271.762 400.2 272.645C399.954 273.505 399.933 274.413 400.139 275.283C400.32 276.055 400.352 276.854 400.231 277.638C399.993 278.301 399.651 278.922 399.219 279.478C399.046 279.757 398.931 280.068 398.881 280.392C398.843 280.689 398.823 280.988 398.82 281.287C398.82 281.557 398.781 281.826 398.703 282.085C398.611 282.308 398.466 282.506 398.28 282.661C397.959 282.923 397.596 283.131 397.207 283.275C396.923 283.381 396.629 283.459 396.33 283.508C396.146 283.545 395.959 283.564 395.772 283.563L395.557 283.661Z" fill="#263238"/>
<path d="M404.186 251.394C404.184 251.422 404.184 251.451 404.186 251.479L404.125 251.725C404.07 251.939 404.008 252.264 403.904 252.675C403.8 253.086 403.548 253.534 403.334 254.104C403.083 254.739 402.866 255.386 402.683 256.043C402.475 256.779 402.291 257.588 402.07 258.453C401.906 259.383 401.61 260.286 401.193 261.133C400.972 261.575 400.715 262.029 400.518 262.519C400.32 263.024 400.186 263.551 400.12 264.09C399.975 265.204 399.77 266.309 399.506 267.402C398.96 269.646 398.433 271.787 397.961 273.731C397.488 275.675 397.028 277.411 396.66 278.895C396.292 280.38 396.004 281.539 395.802 282.379C395.704 282.778 395.63 283.097 395.575 283.324L395.52 283.575C395.517 283.604 395.517 283.632 395.52 283.661C395.52 283.661 395.52 283.63 395.55 283.575L395.624 283.336C395.685 283.103 395.771 282.79 395.882 282.391C396.096 281.557 396.409 280.38 396.795 278.926C397.182 277.472 397.623 275.706 398.126 273.774C398.629 271.842 399.138 269.689 399.69 267.444C399.953 266.346 400.158 265.234 400.304 264.114C400.369 263.59 400.496 263.075 400.684 262.581C400.88 262.102 401.126 261.655 401.352 261.201C401.768 260.342 402.061 259.43 402.223 258.49C402.414 257.619 402.591 256.809 402.788 256.079C402.984 255.35 403.205 254.699 403.401 254.135C403.597 253.571 403.843 253.111 403.941 252.688C404.039 252.264 404.088 251.952 404.131 251.731L404.186 251.467C404.186 251.424 404.186 251.394 404.186 251.394Z" fill="#263238"/>
<path d="M396.041 283.667C397.832 282.606 398.341 279.373 397.599 277.435C396.857 275.497 395.544 273.718 395.342 271.645C395.189 270.051 395.71 268.419 395.342 266.861C394.845 264.764 392.797 263.138 392.815 260.98C392.815 259.753 393.52 258.624 393.465 257.416C393.398 255.932 392.238 254.754 391.551 253.448C390.472 251.442 390.405 249.081 390.03 246.836C389.656 244.591 388.804 242.187 386.817 241.083C386.528 242.99 386.025 244.297 386.203 246.873C386.265 247.805 387.338 249.578 387.485 251.608C387.571 252.834 387.632 254.061 387.706 255.251C387.721 256.439 387.915 257.617 388.282 258.747C388.607 259.593 389.129 260.366 389.368 261.237C389.822 262.887 389.227 264.672 389.595 266.34C389.902 267.751 390.883 268.965 391.079 270.4C391.361 272.412 390.061 274.504 390.723 276.423C391.055 277.38 391.84 278.147 392.061 279.128C392.238 279.895 392.061 280.698 392.202 281.465C392.453 282.692 394.814 283.661 396.072 283.587" fill="#24BA63"/>
<path d="M387.308 242.979C387.308 242.979 387.308 243.015 387.308 243.083L387.351 243.396C387.387 243.672 387.436 244.076 387.528 244.622C387.62 245.168 387.896 245.739 388.142 246.462C388.387 247.186 388.596 247.996 388.798 248.916C389 249.836 389.172 250.848 389.35 251.939C389.492 253.118 389.802 254.27 390.27 255.362C390.515 255.938 390.798 256.509 391.012 257.116C391.217 257.744 391.342 258.395 391.386 259.054C391.488 260.451 391.664 261.841 391.914 263.219C392.46 266.04 392.981 268.739 393.459 271.192C393.938 273.645 394.41 275.823 394.79 277.675C395.171 279.527 395.483 280.999 395.704 282.042C395.808 282.545 395.894 282.943 395.956 283.225L396.029 283.532L396.06 283.636C396.063 283.602 396.063 283.567 396.06 283.532L396.005 283.219C395.949 282.937 395.876 282.532 395.784 282.023C395.575 280.981 395.281 279.49 394.925 277.65C394.57 275.81 394.085 273.547 393.6 271.094C393.116 268.64 392.613 265.96 392.067 263.12C391.82 261.746 391.644 260.36 391.54 258.968C391.493 258.296 391.363 257.633 391.153 256.993C390.932 256.38 390.65 255.797 390.399 255.233C389.936 254.152 389.624 253.013 389.473 251.847C389.289 250.756 389.111 249.737 388.896 248.817C388.711 247.989 388.483 247.17 388.215 246.364C387.988 245.653 387.706 245.064 387.602 244.524C387.498 243.984 387.443 243.598 387.387 243.328C387.387 243.199 387.344 243.101 387.332 243.021C387.325 243.007 387.317 242.992 387.308 242.979Z" fill="#263238"/>
<path d="M343.81 202.725H71.4473V229.944H343.81V202.725Z" fill="#24BA63"/>
<g opacity="0.4">
<path d="M343.81 202.725H71.4473V229.944H343.81V202.725Z" fill="black"/>
</g>
<path d="M284.802 233.379H204.406V258.587H284.802V233.379Z" fill="#455A64"/>
<path d="M148.225 221.978V255.3H175.677L186.681 239.353H387.124V221.978H148.225Z" fill="#263238"/>
<path d="M146.513 116.46C146.483 115.924 146.244 115.421 145.847 115.06C145.45 114.699 144.927 114.508 144.391 114.528C133.541 114.976 82.0333 117.337 71.4411 122.428C63.3328 126.328 54.4517 140.889 48.1896 150.696C43.7 157.725 33.7824 173.328 31.7768 181.308C30.0779 188.054 29.0536 202.087 29.1701 209.049L32.0037 245.885H78.6845L83.3581 233.717C84.8495 229.841 87.4806 226.508 90.9043 224.157C94.3281 221.806 98.3839 220.548 102.537 220.549H148.923V159.418L146.513 116.46Z" fill="#24BA63"/>
<path d="M65.909 126.506C59.4813 132.639 53.029 143.066 48.1898 150.696C44.0314 157.203 35.2239 171.058 32.3474 179.412C32.2922 179.565 32.2493 179.713 32.2002 179.866C33.6231 179.473 35.8127 178.67 36.4935 177.321C37.5178 175.278 38.8303 168.28 55.0591 141.864C59.9903 133.811 64.7989 129.1 65.909 126.506Z" fill="#455A64"/>
<path d="M122.532 123.777C110.597 124.457 84.7202 126.23 76.4524 129.039C65.6823 132.719 53.5935 161.233 53.0231 162.484L44.878 183.337C44.8324 183.474 44.8198 183.619 44.8412 183.761C44.8627 183.903 44.9176 184.038 45.0014 184.155C45.0853 184.272 45.1956 184.367 45.3235 184.433C45.4513 184.499 45.5929 184.533 45.7367 184.533H66.7924C67.5899 184.534 68.3811 184.392 69.1292 184.116L124.507 163.472C125.73 163.015 126.784 162.196 127.528 161.124C128.273 160.052 128.671 158.778 128.672 157.473V129.585C128.672 128.794 128.511 128.011 128.198 127.284C127.886 126.557 127.428 125.902 126.853 125.358C126.278 124.814 125.599 124.394 124.856 124.122C124.113 123.85 123.322 123.732 122.532 123.777Z" fill="#263238"/>
<path d="M47.2275 182.485C47.2275 182.485 55.0291 164.987 57.6542 159.252C61.6163 150.592 70.8715 132.879 77.1214 130.971C82.8683 129.248 99.3915 127.15 122.649 125.819H122.87C123.869 125.823 124.826 126.221 125.531 126.928C126.237 127.635 126.634 128.592 126.636 129.591V158.111C126.634 158.814 126.418 159.5 126.017 160.077C125.616 160.654 125.049 161.096 124.391 161.344L83.4755 166.391C81.8354 166.594 80.259 167.151 78.8556 168.023C77.4523 168.896 76.2557 170.064 75.3489 171.445L68.2587 182.258C67.8425 182.412 67.4023 182.491 66.9585 182.491L47.2275 182.485Z" fill="#455A64"/>
<path d="M81.9905 166.704L68.0801 182.196L75.7774 130.756L77.7033 130.094L73.9129 168.2C73.895 168.391 73.9266 168.584 74.0045 168.76C74.0825 168.936 74.2042 169.088 74.3581 169.203C74.512 169.318 74.6929 169.392 74.8834 169.417C75.0739 169.442 75.2677 169.418 75.4462 169.347L81.9905 166.704Z" fill="#263238"/>
<path d="M28.2567 212.624C28.2076 211.955 28.4345 211.397 28.778 211.397L36.2361 210.71C36.8495 210.649 37.4199 211.808 37.4935 213.164L37.8308 218.886C37.886 219.806 37.61 220.585 37.2175 220.652L29.6121 221.965C29.2687 222.026 28.9375 221.517 28.8884 220.843L28.2567 212.624Z" fill="#EBEBEB"/>
<path d="M81.9912 239.359H28.251V260.906H81.9912V239.359Z" fill="#263238"/>
<path d="M117.865 283.41C134.092 282.786 146.741 269.126 146.117 252.899C145.494 236.673 131.834 224.023 115.607 224.647C99.3801 225.27 86.7309 238.93 87.3543 255.157C87.9777 271.384 101.638 284.033 117.865 283.41Z" fill="#263238"/>
<path d="M87.3571 253.521C87.3603 253.548 87.3603 253.575 87.3571 253.601C87.2542 261.393 90.2483 268.906 95.6816 274.492C101.115 280.077 108.543 283.277 116.335 283.389C124.126 283.502 131.643 280.517 137.235 275.09C142.827 269.663 146.036 262.239 146.157 254.448C146.157 254.448 146.157 254.399 146.157 254.374L87.3571 253.521Z" fill="#263238"/>
<path d="M96.1097 253.723C96.0494 257.806 97.2014 261.815 99.4199 265.244C101.638 268.672 104.824 271.365 108.573 272.983C112.322 274.601 116.467 275.07 120.484 274.332C124.5 273.594 128.207 271.682 131.136 268.837C134.065 265.992 136.085 262.342 136.94 258.349C137.794 254.356 137.446 250.199 135.938 246.404C134.43 242.609 131.83 239.347 128.468 237.029C125.106 234.712 121.132 233.444 117.049 233.385C111.575 233.306 106.295 235.405 102.368 239.219C98.4416 243.032 96.1904 248.25 96.1097 253.723Z" fill="#FAFAFA"/>
<path d="M117.049 233.385C111.575 233.306 106.295 235.405 102.368 239.219C98.4413 243.032 96.1901 248.25 96.1094 253.723L137.393 254.336C137.473 248.86 135.375 243.577 131.56 239.647C127.744 235.718 122.525 233.466 117.049 233.385Z" fill="#E0E0E0"/>
<path d="M104.181 253.84C104.145 256.326 104.847 258.768 106.199 260.856C107.55 262.943 109.49 264.583 111.774 265.568C114.058 266.553 116.582 266.838 119.028 266.388C121.474 265.938 123.731 264.773 125.515 263.04C127.298 261.307 128.528 259.084 129.048 256.652C129.568 254.22 129.356 251.689 128.437 249.378C127.518 247.067 125.935 245.08 123.887 243.669C121.839 242.258 119.419 241.486 116.932 241.45C113.599 241.403 110.382 242.681 107.991 245.005C105.6 247.328 104.229 250.506 104.181 253.84Z" fill="#263238"/>
<path d="M59.7203 142.452H57.3221C54.619 142.452 52.4277 144.643 52.4277 147.347V166.808C52.4277 169.511 54.619 171.702 57.3221 171.702H59.7203C62.4234 171.702 64.6147 169.511 64.6147 166.808V147.347C64.6147 144.643 62.4234 142.452 59.7203 142.452Z" fill="#263238"/>
<path d="M47.3868 189.783H46.7734V158.853C46.7751 157.378 47.3617 155.964 48.4046 154.921C49.4475 153.878 50.8615 153.292 52.3364 153.29H53.8084V153.903H52.3364C51.0242 153.905 49.7661 154.427 48.8383 155.355C47.9104 156.283 47.3884 157.541 47.3868 158.853V189.783Z" fill="#263238"/>
<path d="M51.5629 189.82L49.8578 160.902C49.8339 160.407 49.9099 159.913 50.0814 159.449C50.2529 158.985 50.5163 158.56 50.8559 158.199C51.1954 157.839 51.6042 157.551 52.0576 157.353C52.5111 157.154 52.9999 157.049 53.4949 157.044V157.657C53.0821 157.657 52.6737 157.742 52.2947 157.906C51.9157 158.069 51.5742 158.308 51.2911 158.609C51.0079 158.909 50.7891 159.264 50.6481 159.652C50.5072 160.04 50.4469 160.453 50.4712 160.865L52.1762 189.79L51.5629 189.82Z" fill="#263238"/>
<path d="M53.4953 186.999H45.2275V196.573H53.4953V186.999Z" fill="#263238"/>
<path d="M50.4411 168.826H47.0801V169.44H50.4411V168.826Z" fill="#263238"/>
<path d="M78.5069 124.605L79.2368 124.507L81.3896 124.255L89.7309 123.292L120.827 119.753C122.483 119.576 124.17 119.355 125.918 119.201C126.811 119.133 127.709 119.191 128.586 119.373C129.477 119.582 130.337 119.908 131.143 120.342C132.806 121.267 134.153 122.669 135.013 124.366C135.458 125.233 135.759 126.168 135.903 127.132C135.98 127.619 136.023 128.111 136.031 128.604V130.082C136.031 138 136.031 146.501 136.031 155.511C136.031 173.531 136.031 193.574 136.031 215.004V215.164H103.727C101.883 215.103 100.037 215.191 98.2072 215.427C94.4324 215.971 90.8711 217.512 87.8909 219.891C84.9107 222.271 82.6198 225.403 81.2546 228.964C80.9897 229.617 80.7664 230.287 80.5861 230.969C80.3867 231.644 80.229 232.33 80.1138 233.024L79.9544 234.067L79.8808 234.588L79.8501 235.109L79.801 236.158V236.685V236.747C79.936 236.612 79.6109 236.955 79.6354 236.919H38.6709V236.747C38.6709 227.504 38.6709 218.592 38.6709 210.079C38.6709 205.823 38.6709 201.666 38.6709 197.61V191.612C38.6709 190.624 38.6709 189.649 38.6709 188.674C38.6909 187.704 38.7605 186.736 38.8794 185.773C39.3472 182.062 40.5258 178.476 42.3509 175.211C44.0396 172.034 45.6752 168.967 47.2576 166.011L55.9546 149.715L63.0141 136.485C63.5293 135.524 64.0241 134.594 64.4984 133.695C64.7437 133.253 64.9584 132.805 65.216 132.388C65.4699 131.981 65.7464 131.587 66.044 131.211C67.1076 129.884 68.3598 128.721 69.7608 127.757C71.6902 126.448 73.8473 125.51 76.121 124.991C76.9016 124.804 77.695 124.675 78.4946 124.605L77.8813 124.697C77.4826 124.758 76.8938 124.863 76.121 125.04C73.8607 125.575 71.7188 126.523 69.8037 127.837C68.4146 128.802 67.1747 129.965 66.1237 131.29C65.8268 131.661 65.5543 132.05 65.308 132.456C65.0565 132.86 64.8418 133.314 64.5965 133.762L63.1184 136.559L56.1202 149.801C53.4952 154.744 50.6002 160.197 47.4722 166.109L42.5656 175.309C40.7574 178.549 39.5931 182.109 39.137 185.791C39.0201 186.746 38.9526 187.706 38.9346 188.668C38.9346 189.631 38.9346 190.618 38.9346 191.599V197.598C38.9346 201.65 38.9346 205.806 38.9346 210.067C38.9346 218.58 38.9346 227.492 38.9346 236.735L38.7813 236.587H79.5864C79.6293 236.557 79.292 236.882 79.433 236.735V236.667V236.14L79.4882 235.072V234.545L79.568 234.017L79.7274 232.956C79.844 232.252 80.0037 231.556 80.2058 230.871C80.3893 230.179 80.6167 229.498 80.8866 228.835C82.2736 225.222 84.5989 222.044 87.623 219.629C90.647 217.214 94.2604 215.65 98.0906 215.096C99.9208 214.863 101.767 214.775 103.611 214.832H135.768L135.608 214.986C135.608 193.58 135.608 173.537 135.608 155.492C135.608 146.483 135.608 137.982 135.608 130.064C135.648 129.091 135.607 128.116 135.486 127.15C135.346 126.208 135.054 125.294 134.621 124.445C133.788 122.786 132.473 121.418 130.849 120.52C130.066 120.091 129.228 119.772 128.359 119.569C127.502 119.389 126.625 119.329 125.752 119.392C124.016 119.539 122.317 119.76 120.667 119.937L89.5776 123.378L81.2301 124.292L79.0773 124.519L78.5069 124.605Z" fill="#263238"/>
<path d="M126.243 192.39C126.243 192.39 126.415 192.39 126.722 192.317C127.173 192.236 127.602 192.065 127.985 191.814C128.588 191.418 129.04 190.83 129.267 190.145C129.406 189.718 129.462 189.269 129.433 188.821C129.419 188.324 129.291 187.837 129.058 187.398C128.792 186.895 128.395 186.474 127.909 186.177C127.424 185.88 126.867 185.719 126.298 185.711H122.25H112.977C112.205 185.712 111.46 185.997 110.884 186.512C110.309 187.026 109.942 187.735 109.855 188.502C109.759 189.23 109.894 189.97 110.241 190.618C110.586 191.23 111.126 191.709 111.775 191.979C112.416 192.202 113.098 192.286 113.774 192.225H115.737H119.263L124.373 192.274H125.765C125.925 192.27 126.085 192.283 126.243 192.31C126.084 192.33 125.925 192.34 125.765 192.341H124.373L119.263 192.39H115.737H113.774C113.431 192.39 113.099 192.39 112.738 192.39C112.37 192.363 112.008 192.28 111.664 192.145C110.955 191.85 110.364 191.328 109.984 190.661C109.603 189.958 109.453 189.153 109.554 188.361C109.649 187.519 110.05 186.741 110.681 186.175C111.313 185.61 112.129 185.296 112.977 185.294H122.25H126.298C127.183 185.311 128.026 185.673 128.649 186.301C129.272 186.93 129.626 187.776 129.635 188.661C129.654 189.13 129.586 189.598 129.433 190.041C129.18 190.753 128.694 191.359 128.053 191.758C127.652 192.008 127.202 192.165 126.734 192.218C126.578 192.296 126.413 192.353 126.243 192.39Z" fill="#263238"/>
<path d="M125.12 184.686C123.373 184.84 121.618 184.891 119.864 184.84C118.108 184.891 116.351 184.84 114.602 184.686C116.351 184.528 118.108 184.475 119.864 184.527C121.618 184.475 123.373 184.529 125.12 184.686Z" fill="white"/>
<path d="M84.4379 261.084L79.5312 260.728C80.8131 243.156 82.6899 232.644 85.2721 228.59C90.2278 220.8 95.1529 219.39 100.605 218.463C105.684 217.599 110.805 217.801 115.761 218.003L116.988 218.052C127.218 218.451 148.648 218.095 148.881 218.095L148.961 223.002C148.746 223.002 127.181 223.364 116.816 222.959L115.589 222.91C110.885 222.726 106.027 222.524 101.452 223.309C96.5758 224.137 93.3312 225.087 89.4182 231.233C88.2344 233.067 86.0142 239.439 84.4379 261.084Z" fill="#263238"/>
<path d="M393.135 60.916H151.494V221.806H393.135V60.916Z" fill="#24BA63"/>
<path d="M390.24 218.622C390.24 217.586 390.191 158.577 390.111 64.5527L390.24 64.6754L154.107 64.7122L154.266 64.5527C154.266 119.317 154.266 171.444 154.266 218.622L154.119 218.475L390.252 218.622L154.119 218.769H153.947V218.622C153.947 171.444 153.947 119.317 153.947 64.5527V64.3994H154.125L390.258 64.4301H390.387V64.5589C390.289 158.577 390.24 217.592 390.24 218.622Z" fill="#263238"/>
<path d="M221.481 104.646V144.838L323.614 122.378L323.577 82.6523L221.481 104.646Z" fill="#24BA63"/>
<path d="M335.322 104.647L371.491 96.1769L370.061 92.3252L335.322 104.647Z" fill="#FAFAFA"/>
<path d="M173.371 131.714L198.518 125.826L197.524 123.151L173.371 131.714Z" fill="#FAFAFA"/>
<path d="M259.465 192.304L295.633 183.828L294.21 179.982L259.465 192.304Z" fill="#FAFAFA"/>
<path d="M307.409 85.3821C307.409 85.4679 288.101 90.0863 264.249 95.6922C240.396 101.298 221.033 105.782 221.009 105.696C220.984 105.61 240.31 100.991 264.175 95.3855C288.04 89.7797 307.391 85.2962 307.409 85.3821Z" fill="#FAFAFA"/>
<path d="M221.211 140.803C221.211 140.889 212.931 142.643 202.676 144.704C192.421 146.765 184.099 148.384 184.08 148.298C184.062 148.212 192.36 146.458 202.615 144.391C212.87 142.324 221.193 140.717 221.211 140.803Z" fill="#FAFAFA"/>
<path d="M221.537 137.166C221.509 137.06 221.496 136.95 221.5 136.841C221.5 136.589 221.5 136.283 221.469 135.915C221.469 135.062 221.469 133.909 221.42 132.505C221.42 129.579 221.371 125.623 221.346 121.25C221.322 116.877 221.261 112.915 221.23 109.995C221.23 108.591 221.193 107.438 221.181 106.585V105.653C221.165 105.547 221.165 105.44 221.181 105.334C221.209 105.438 221.223 105.545 221.224 105.653C221.224 105.904 221.261 106.205 221.285 106.579C221.334 107.383 221.383 108.548 221.432 109.989C221.537 112.866 221.616 116.846 221.647 121.244C221.678 125.641 221.647 129.622 221.647 132.499C221.647 133.909 221.61 135.062 221.598 135.915C221.598 136.283 221.598 136.589 221.567 136.841C221.566 136.95 221.556 137.059 221.537 137.166Z" fill="#FAFAFA"/>
<path d="M117.147 137.104C117.147 137.104 117.073 137.178 116.92 137.295L116.245 137.779C115.632 138.202 114.791 138.791 113.724 139.521C111.584 140.968 108.603 142.943 105.279 145.072C101.954 147.2 98.9183 149.083 96.6919 150.426C95.5879 151.095 94.6863 151.653 94.0607 151.996L93.337 152.401C93.2545 152.454 93.166 152.498 93.0732 152.53C93.0732 152.53 93.1468 152.456 93.3002 152.352L93.9932 151.886L96.5754 150.236L105.095 144.802L113.583 139.331L116.165 137.681L116.877 137.239C116.962 137.185 117.052 137.14 117.147 137.104Z" fill="#FAFAFA"/>
<path d="M106.665 139.877C106.665 139.877 106.592 139.951 106.438 140.067L105.764 140.552C105.15 140.969 104.31 141.564 103.237 142.287C101.096 143.741 98.1153 145.71 94.7971 147.807C91.479 149.905 88.4369 151.825 86.2105 153.168C85.1065 153.836 84.2049 154.395 83.5793 154.732L82.8555 155.143C82.7745 155.197 82.6855 155.238 82.5918 155.265C82.6605 155.198 82.7367 155.138 82.8187 155.088L83.5118 154.628L86.0878 152.972L94.6131 147.544L103.102 142.073L105.684 140.417L106.389 139.981C106.476 139.934 106.569 139.899 106.665 139.877Z" fill="#FAFAFA"/>
<path d="M55.0289 157.731C54.9349 157.563 54.8706 157.381 54.8387 157.191C54.7406 156.841 54.6057 156.326 54.4523 155.688C54.0491 154.021 53.8433 152.313 53.839 150.598C53.8303 148.865 54.2295 147.155 55.0043 145.605C55.2467 145.141 55.5387 144.706 55.8753 144.305C55.9888 144.152 56.1253 144.017 56.2801 143.906C55.8886 144.488 55.5282 145.09 55.2006 145.709C54.5017 147.25 54.1439 148.924 54.1518 150.616C54.1704 152.31 54.3532 153.999 54.6977 155.658C54.8511 156.341 54.9617 157.034 55.0289 157.731Z" fill="#FAFAFA"/>
<path d="M30.0537 201.216C30.0316 200.998 30.0316 200.778 30.0537 200.56C30.0537 200.118 30.0537 199.48 30.0905 198.72C30.1396 197.143 30.2561 194.966 30.4463 192.586C30.6364 190.206 30.8633 188.023 31.0596 186.453C31.1577 185.668 31.2436 185.036 31.3111 184.613C31.3342 184.386 31.3815 184.162 31.4521 183.944C31.483 184.172 31.483 184.403 31.4521 184.631L31.2927 186.471C31.1577 188.115 30.9737 190.243 30.7713 192.605C30.5689 194.966 30.4463 197.088 30.3297 198.738C30.2745 199.474 30.2255 200.093 30.1887 200.578C30.17 200.795 30.1247 201.01 30.0537 201.216Z" fill="#FAFAFA"/>
<path d="M97.2691 213.121C97.2691 213.189 96.0853 213.354 94.2515 213.949C93.178 214.298 92.1307 214.722 91.1173 215.219C88.6343 216.452 86.3879 218.113 84.4811 220.125C83.7024 220.942 82.983 221.813 82.3283 222.732C81.2181 224.308 80.6968 225.394 80.6416 225.363C80.7328 225.096 80.8477 224.837 80.9851 224.59C81.1223 224.291 81.278 224 81.4512 223.719C81.6475 223.388 81.8621 223.002 82.1443 222.603C82.7793 221.655 83.4889 220.759 84.2664 219.923C85.2301 218.902 86.2785 217.964 87.4005 217.12C88.5329 216.298 89.7356 215.578 90.9947 214.967C92.0231 214.473 93.0897 214.063 94.184 213.741C94.644 213.587 95.0795 213.501 95.4536 213.409C95.7753 213.331 96.1008 213.27 96.4288 213.225C96.7049 213.164 96.9863 213.129 97.2691 213.121Z" fill="#FAFAFA"/>
<path d="M157.67 176.094C157.663 176.006 157.663 175.918 157.67 175.83C157.67 175.642 157.67 175.384 157.67 175.057C157.67 174.358 157.67 173.358 157.627 172.083C157.591 169.482 157.542 165.747 157.474 161.141C157.308 151.886 157.082 139.134 156.83 125.046C156.579 110.958 156.364 98.1821 156.278 88.9453C156.235 84.3269 156.223 80.5855 156.229 78.0034C156.229 76.7215 156.229 75.7218 156.229 75.0287V74.2559C156.229 74.0781 156.229 73.9922 156.229 73.9922C156.237 74.0799 156.237 74.1682 156.229 74.2559C156.229 74.4399 156.229 74.6975 156.229 75.0287C156.229 75.7218 156.229 76.7215 156.272 78.0034C156.309 80.6039 156.358 84.333 156.425 88.9391C156.591 98.1943 156.818 110.946 157.069 125.04C157.321 139.134 157.542 151.898 157.621 161.135C157.664 165.759 157.683 169.494 157.676 172.076C157.676 173.358 157.676 174.358 157.676 175.057C157.676 175.382 157.676 175.64 157.676 175.83C157.68 175.918 157.678 176.006 157.67 176.094Z" fill="#FAFAFA"/>
<path d="M335.126 283.376C351.352 282.727 363.98 269.047 363.331 252.821C362.682 236.595 349.002 223.967 332.776 224.616C316.55 225.265 303.922 238.945 304.571 255.171C305.22 271.397 318.9 284.024 335.126 283.376Z" fill="#263238"/>
<path d="M304.539 253.521C304.539 253.521 304.539 253.577 304.539 253.601C304.427 261.398 307.416 268.92 312.85 274.512C318.284 280.104 325.716 283.309 333.513 283.421C341.31 283.534 348.831 280.544 354.424 275.111C360.016 269.677 363.221 262.244 363.333 254.448V254.374L304.539 253.521Z" fill="#263238"/>
<path d="M313.291 253.723C313.232 257.804 314.385 261.812 316.603 265.238C318.821 268.664 322.006 271.356 325.754 272.972C329.502 274.589 333.645 275.058 337.66 274.32C341.674 273.582 345.379 271.67 348.307 268.826C351.235 265.982 353.254 262.334 354.109 258.343C354.964 254.351 354.616 250.196 353.109 246.403C351.602 242.609 349.004 239.348 345.644 237.031C342.284 234.714 338.312 233.445 334.23 233.385C328.757 233.306 323.476 235.405 319.55 239.219C315.623 243.032 313.372 248.25 313.291 253.723Z" fill="#FAFAFA"/>
<path d="M334.23 233.385C331.52 233.345 328.828 233.84 326.309 234.84C323.79 235.841 321.492 237.328 319.548 239.217C317.603 241.105 316.05 243.359 314.976 245.848C313.903 248.337 313.33 251.013 313.291 253.723L354.568 254.337C354.61 251.625 354.116 248.932 353.117 246.411C352.117 243.891 350.63 241.592 348.741 239.646C346.852 237.7 344.598 236.146 342.109 235.072C339.619 233.997 336.942 233.424 334.23 233.385Z" fill="#E0E0E0"/>
<path d="M321.387 253.84C321.351 256.326 322.053 258.768 323.405 260.856C324.756 262.943 326.696 264.583 328.98 265.568C331.264 266.553 333.788 266.838 336.234 266.388C338.68 265.938 340.937 264.773 342.721 263.04C344.505 261.307 345.734 259.084 346.254 256.652C346.774 254.22 346.562 251.689 345.643 249.378C344.724 247.067 343.141 245.08 341.093 243.669C339.045 242.258 336.625 241.486 334.138 241.45C330.805 241.403 327.588 242.681 325.197 245.005C322.806 247.328 321.436 250.506 321.387 253.84Z" fill="#263238"/>
<path d="M295.283 262.077C295.283 262.077 290.806 220.37 334.021 220.37C373.888 220.37 373.005 256.238 372.625 261.789H366.375C366.375 261.789 369.558 226.436 334.021 226.436C298.485 226.436 301.576 262.506 301.576 262.506C301.576 262.506 298.951 262.377 295.283 262.077Z" fill="#455A64"/>
<path d="M318.431 224.688C318.324 224.743 318.211 224.784 318.094 224.811C317.867 224.89 317.53 224.97 317.113 225.117C315.913 225.499 314.74 225.956 313.598 226.485C309.82 228.218 306.473 230.767 303.798 233.948C301.124 237.13 299.188 240.865 298.13 244.885C297.806 246.095 297.558 247.324 297.388 248.565C297.32 249.007 297.296 249.35 297.259 249.583C297.248 249.703 297.228 249.822 297.198 249.939C297.183 249.821 297.183 249.701 297.198 249.583C297.198 249.344 297.198 248.97 297.271 248.553C297.393 247.291 297.61 246.04 297.921 244.811C298.927 240.73 300.855 236.934 303.558 233.716C306.261 230.497 309.666 227.941 313.512 226.246C314.669 225.729 315.862 225.299 317.082 224.958C317.511 224.835 317.855 224.768 318.082 224.712C318.197 224.691 318.314 224.683 318.431 224.688Z" fill="#FAFAFA"/>
<path d="M424.58 267.131L429.806 274.994L432.155 282.403C432.194 282.53 432.258 282.648 432.345 282.749C432.432 282.85 432.538 282.932 432.658 282.989C432.778 283.047 432.909 283.079 433.042 283.084C433.174 283.088 433.307 283.065 433.43 283.016C433.58 282.966 433.714 282.879 433.821 282.763C433.929 282.648 434.005 282.507 434.044 282.354C434.522 280.416 436.246 273.277 435.835 272.719C435.424 272.16 430.867 264.064 430.867 264.064L424.58 267.131Z" fill="#455A64"/>
<g opacity="0.6">
<path d="M433.43 283.01L435.466 272.179L435.681 272.516C435.867 272.807 435.943 273.155 435.895 273.497C435.766 274.411 435.349 276.932 434.055 282.329C434.018 282.485 433.943 282.629 433.835 282.748C433.728 282.867 433.593 282.957 433.442 283.01H433.43Z" fill="white"/>
</g>
<g opacity="0.6">
<path d="M432.197 270.64C432.15 270.774 432.152 270.92 432.201 271.053C432.25 271.186 432.344 271.298 432.467 271.369C432.599 271.427 432.748 271.432 432.884 271.383C433.02 271.334 433.132 271.235 433.197 271.106C433.253 270.963 433.254 270.805 433.199 270.662C433.145 270.519 433.039 270.402 432.902 270.333C432.758 270.286 432.602 270.298 432.466 270.366C432.331 270.433 432.227 270.552 432.178 270.695" fill="white"/>
</g>
<path d="M433.044 278.373C432.696 278.242 432.324 278.181 431.952 278.195C431.586 278.264 431.237 278.401 430.922 278.6C430.922 278.6 430.965 278.459 431.137 278.312C431.365 278.129 431.642 278.016 431.934 277.987C432.225 277.952 432.52 278.006 432.78 278.14C432.977 278.244 433.062 278.355 433.044 278.373Z" fill="#263238"/>
<path d="M433.154 279.802C432.843 279.815 432.533 279.849 432.228 279.907C431.938 280.016 431.657 280.148 431.387 280.299C431.338 280.269 431.614 279.858 432.172 279.686C432.333 279.625 432.507 279.603 432.677 279.624C432.848 279.644 433.012 279.705 433.154 279.802Z" fill="#263238"/>
<path d="M433.24 276.332C432.759 276.317 432.277 276.34 431.799 276.399C431.335 276.52 430.882 276.678 430.443 276.871C430.787 276.494 431.255 276.255 431.762 276.197C432.255 276.068 432.778 276.116 433.24 276.332Z" fill="#263238"/>
<path d="M431.848 273.811C431.848 273.872 431.296 273.964 430.713 274.307C430.13 274.651 429.756 275.074 429.707 275.037C429.893 274.639 430.212 274.318 430.609 274.13C430.97 273.878 431.41 273.765 431.848 273.811Z" fill="#263238"/>
<path d="M430.37 271.462C429.94 271.568 429.528 271.733 429.143 271.952C428.808 272.223 428.509 272.536 428.254 272.885C428.254 272.885 428.254 272.725 428.37 272.498C428.531 272.211 428.755 271.966 429.027 271.78C429.298 271.595 429.609 271.476 429.934 271.431C430.217 271.406 430.37 271.437 430.37 271.462Z" fill="#263238"/>
<path d="M428.904 271.498C428.821 271.413 428.754 271.313 428.708 271.203C428.556 270.91 428.466 270.588 428.444 270.259C428.407 270.021 428.448 269.778 428.561 269.566C428.605 269.499 428.669 269.447 428.743 269.417C428.818 269.388 428.899 269.382 428.978 269.4C429.126 269.449 429.252 269.549 429.333 269.682C429.485 269.962 429.534 270.286 429.473 270.599C429.411 270.911 429.243 271.192 428.996 271.393C428.748 271.586 428.449 271.702 428.135 271.725C427.822 271.748 427.509 271.677 427.236 271.522C427.167 271.485 427.108 271.432 427.062 271.368C427.016 271.305 426.986 271.231 426.972 271.154C426.963 271.074 426.98 270.993 427.021 270.923C427.062 270.854 427.124 270.799 427.199 270.768C427.423 270.686 427.664 270.665 427.898 270.706C428.225 270.743 428.542 270.836 428.837 270.982C428.946 271.029 429.046 271.095 429.131 271.179C428.739 271.013 428.326 270.904 427.904 270.854C427.697 270.825 427.487 270.849 427.291 270.921C427.25 270.937 427.215 270.966 427.191 271.004C427.168 271.041 427.158 271.086 427.162 271.13C427.176 271.179 427.2 271.226 427.233 271.266C427.266 271.306 427.306 271.339 427.352 271.363C427.593 271.489 427.864 271.544 428.135 271.521C428.405 271.499 428.664 271.399 428.879 271.234C429.081 271.059 429.22 270.823 429.276 270.562C429.331 270.3 429.3 270.028 429.186 269.786C429.134 269.69 429.049 269.616 428.947 269.578C428.904 269.566 428.859 269.568 428.817 269.584C428.775 269.599 428.739 269.627 428.714 269.664C428.61 269.85 428.571 270.066 428.603 270.277C428.637 270.697 428.739 271.11 428.904 271.498Z" fill="#263238"/>
<path d="M419.612 271.627L418.999 279.52C418.999 279.52 426.831 282.201 426.862 283.673L411.528 283.636L411.958 271.302L419.612 271.627Z" fill="#455A64"/>
<g opacity="0.6">
<path d="M414.294 278.668C414.144 278.705 414.014 278.797 413.928 278.925C413.843 279.053 413.809 279.209 413.834 279.361C413.869 279.511 413.959 279.642 414.087 279.728C414.214 279.815 414.369 279.85 414.521 279.827C414.679 279.785 414.816 279.686 414.906 279.549C414.995 279.412 415.031 279.247 415.005 279.085C414.957 278.93 414.85 278.8 414.706 278.724C414.562 278.648 414.394 278.633 414.239 278.681" fill="white"/>
</g>
<g opacity="0.6">
<path d="M411.546 283.636L411.589 282.409L426.413 282.961C426.569 283.044 426.702 283.164 426.801 283.311C426.899 283.457 426.96 283.626 426.977 283.801L411.546 283.636Z" fill="white"/>
</g>
<path d="M419.262 279.453C419.262 279.527 418.882 279.545 418.502 279.772C418.122 279.999 417.889 280.306 417.852 280.275C417.815 280.244 417.913 279.809 418.373 279.545C418.833 279.282 419.281 279.386 419.262 279.453Z" fill="#263238"/>
<path d="M420.844 280.183C420.844 280.256 420.531 280.367 420.262 280.673C419.992 280.98 419.912 281.287 419.832 281.287C419.753 281.287 419.728 280.857 420.071 280.483C420.415 280.109 420.844 280.109 420.844 280.183Z" fill="#263238"/>
<path d="M421.685 282.133C421.618 282.133 421.526 281.765 421.734 281.361C421.943 280.956 422.298 280.809 422.347 280.876C422.396 280.944 422.151 281.152 421.986 281.489C421.82 281.827 421.759 282.133 421.685 282.133Z" fill="#263238"/>
<path d="M419.201 277.638C419.164 277.705 418.827 277.588 418.404 277.601C417.98 277.613 417.643 277.73 417.606 277.668C417.57 277.607 417.895 277.343 418.398 277.337C418.9 277.331 419.238 277.582 419.201 277.638Z" fill="#263238"/>
<g opacity="0.3">
<path d="M419.489 273.191L419.385 274.596L411.847 274.228L411.89 272.958L419.489 273.191Z" fill="black"/>
</g>
<path d="M419.293 276.043C419.039 276.103 418.774 276.092 418.526 276.012C418.25 275.949 417.983 275.855 417.729 275.73C417.579 275.658 417.436 275.574 417.299 275.479C417.214 275.429 417.137 275.364 417.073 275.289C417.029 275.231 417.006 275.161 417.006 275.089C417.006 275.017 417.029 274.947 417.073 274.89C417.113 274.839 417.164 274.799 417.223 274.771C417.281 274.743 417.345 274.73 417.41 274.731C417.506 274.735 417.6 274.752 417.692 274.78C417.854 274.828 418.012 274.889 418.164 274.964C418.42 275.092 418.653 275.26 418.857 275.46C419.201 275.804 419.311 276.074 419.281 276.074C419.25 276.074 419.084 275.859 418.735 275.571C418.527 275.407 418.301 275.269 418.06 275.16C417.92 275.094 417.775 275.043 417.625 275.007C417.465 274.957 417.33 274.951 417.281 275.007C417.232 275.062 417.281 275.043 417.281 275.092C417.326 275.148 417.38 275.196 417.441 275.233C417.569 275.323 417.702 275.405 417.839 275.479C418.072 275.607 418.317 275.714 418.569 275.798C418.815 275.863 419.057 275.945 419.293 276.043Z" fill="#263238"/>
<path d="M419.189 276.147C419.053 275.922 418.993 275.66 419.017 275.399C419.017 274.944 419.137 274.497 419.367 274.105C419.41 274.002 419.48 273.913 419.569 273.847C419.659 273.781 419.765 273.741 419.876 273.73C419.943 273.737 420.008 273.761 420.063 273.801C420.118 273.841 420.161 273.895 420.188 273.957C420.221 274.051 420.243 274.148 420.256 274.246C420.282 274.477 420.262 274.711 420.196 274.934C420.131 275.157 420.022 275.365 419.876 275.546C419.557 275.926 419.262 276.006 419.262 275.981C419.262 275.957 419.508 275.81 419.753 275.436C419.891 275.219 419.982 274.977 420.023 274.724C420.044 274.576 420.044 274.425 420.023 274.276C420.023 274.111 419.955 273.982 419.888 273.994C419.82 274.006 419.679 274.105 419.612 274.233C419.53 274.364 419.461 274.501 419.403 274.644C419.308 274.888 419.248 275.144 419.226 275.405C419.164 275.853 419.232 276.135 419.189 276.147Z" fill="#263238"/>
<path d="M425.217 206.693C425.217 206.693 428.032 212.465 428.768 216.58C428.977 217.746 420.709 276.908 420.709 276.908L410.933 276.54L415.514 221.487L413.883 210.447L425.217 206.693Z" fill="#263238"/>
<path d="M401.47 210.269C401.402 214.265 401.607 218.26 402.083 222.229C402.807 228.031 404.463 234.636 405.003 238.329C406.192 246.498 408.535 248.044 408.535 248.044L427.291 272.043L434.651 265.426L418.091 238.973C418.091 238.973 413.687 209.618 413.841 210.41C413.994 211.201 401.47 210.269 401.47 210.269Z" fill="#263238"/>
<path d="M408.928 248.4C408.981 248.488 409.04 248.572 409.106 248.652L409.639 249.339L411.608 251.878C413.27 254.043 415.533 257.012 418.042 260.293C420.55 263.574 422.832 266.555 424.525 268.677C425.365 269.738 426.058 270.591 426.549 271.173L427.113 271.836C427.176 271.917 427.246 271.993 427.322 272.063C427.271 271.973 427.212 271.889 427.144 271.811L426.61 271.118L424.641 268.585L418.207 260.164C415.705 256.871 413.417 253.902 411.725 251.786C410.884 250.719 410.191 249.872 409.707 249.29L409.136 248.621C409.075 248.541 409.005 248.467 408.928 248.4Z" fill="#455A64"/>
<path d="M406.836 214.765C406.825 215.094 406.734 215.416 406.572 215.703C405.915 217.152 404.711 218.281 403.223 218.843C402.925 218.979 402.6 219.048 402.272 219.046C403.258 218.629 404.174 218.064 404.99 217.371C405.736 216.603 406.359 215.724 406.836 214.765Z" fill="#455A64"/>
<path d="M427.076 211.416C426.628 211.62 426.13 211.691 425.642 211.619C425.155 211.547 424.698 211.336 424.328 211.011C424.371 210.931 424.941 211.195 425.69 211.299C426.438 211.403 427.057 211.33 427.076 211.416Z" fill="#455A64"/>
<path d="M416.52 219.573C416.552 219.702 416.574 219.834 416.588 219.966C416.625 220.248 416.668 220.622 416.729 221.094C416.839 222.106 416.999 223.548 417.201 225.302C417.582 228.908 418.103 233.888 418.704 239.617V239.55L421.421 243.892L430.86 259.084C432.044 261.016 433.007 262.586 433.688 263.709L434.424 264.96C434.518 265.103 434.598 265.255 434.663 265.414C434.555 265.28 434.456 265.138 434.369 264.991L433.559 263.764L430.646 259.195C428.192 255.3 424.837 249.958 421.127 244.058L418.416 239.709V239.672C417.864 233.962 417.373 228.957 417.023 225.345L416.643 221.125C416.606 220.653 416.576 220.279 416.557 219.99C416.528 219.853 416.516 219.713 416.52 219.573Z" fill="#455A64"/>
<path d="M413.669 168.016L419.52 169.893L419.961 182.301C419.961 182.301 423.126 196.88 423.813 198.72C424.619 200.924 425.216 203.199 425.598 205.515C425.598 205.515 424.469 213.746 416.245 214.715C408.02 215.685 400.365 210.962 400.365 210.962C400.365 210.962 397.624 198.695 395.109 187.692C392.717 177.222 394.661 170.979 394.661 170.979L403.671 167.74L413.669 168.016Z" fill="#455A64"/>
<path d="M418.016 174.924L412.64 175.574L412.807 176.956L418.183 176.306L418.016 174.924Z" fill="#FAFAFA"/>
<path d="M419.311 160.08C419.259 159.778 419.097 159.506 418.855 159.317C418.613 159.129 418.31 159.038 418.004 159.062C418.141 158.959 418.25 158.823 418.32 158.667C418.391 158.51 418.421 158.339 418.408 158.168C418.395 157.997 418.34 157.832 418.247 157.689C418.154 157.545 418.026 157.426 417.875 157.345C418.162 156.907 418.277 156.379 418.196 155.862C418.116 155.346 417.846 154.877 417.44 154.548L411.264 163.067C411.739 163.444 412.285 163.721 412.87 163.882C413.455 164.042 414.067 164.082 414.668 163.999C415.873 163.822 417.03 163.405 418.072 162.773C418.359 162.649 418.596 162.433 418.746 162.159C418.863 161.871 418.697 161.454 418.378 161.448C418.676 161.377 418.937 161.198 419.11 160.945C419.282 160.692 419.354 160.383 419.311 160.08Z" fill="#263238"/>
<path d="M403.972 155.424C403.857 155.397 403.736 155.405 403.625 155.447C403.515 155.49 403.42 155.565 403.353 155.663C403.287 155.761 403.252 155.877 403.253 155.995C403.254 156.114 403.291 156.229 403.359 156.326C403.175 156.301 402.987 156.327 402.816 156.4C402.645 156.473 402.497 156.591 402.388 156.741C402.279 156.891 402.212 157.068 402.195 157.253C402.178 157.438 402.211 157.624 402.291 157.792C401.857 157.767 401.426 157.886 401.065 158.129C400.882 158.254 400.739 158.428 400.652 158.631C400.565 158.834 400.538 159.058 400.574 159.276C400.625 159.486 400.756 159.668 400.94 159.783C401.123 159.897 401.344 159.936 401.555 159.89C401.448 160.079 401.396 160.294 401.407 160.512C401.418 160.729 401.491 160.939 401.617 161.116C401.684 161.199 401.768 161.265 401.863 161.312C401.958 161.359 402.062 161.385 402.168 161.388C402.274 161.391 402.379 161.371 402.477 161.329C402.574 161.288 402.662 161.225 402.733 161.147C402.615 161.306 402.555 161.5 402.56 161.697C402.566 161.895 402.638 162.085 402.764 162.237C402.891 162.389 403.065 162.494 403.258 162.536C403.452 162.577 403.653 162.552 403.831 162.466C403.783 162.662 403.798 162.87 403.874 163.057C403.95 163.245 404.084 163.404 404.256 163.512C404.428 163.619 404.63 163.669 404.832 163.656C405.034 163.642 405.227 163.564 405.383 163.435L403.972 155.424Z" fill="#263238"/>
<path d="M404.352 153.794L404.082 168.876C404.062 170.064 404.494 171.216 405.291 172.099C406.088 172.981 407.19 173.528 408.375 173.629C409.014 173.685 409.658 173.61 410.267 173.408C410.876 173.205 411.437 172.88 411.915 172.453C412.393 172.025 412.779 171.504 413.047 170.921C413.316 170.339 413.463 169.707 413.478 169.066C413.478 167.631 413.527 166.453 413.527 166.453C413.527 166.453 417.207 166.208 417.569 162.589C417.784 160.491 417.839 155.707 417.851 152.033C417.856 150.837 417.411 149.682 416.604 148.799C415.797 147.915 414.688 147.366 413.496 147.262L411.307 147.072C410.405 147.044 409.508 147.197 408.667 147.522C407.825 147.847 407.058 148.337 406.41 148.964C405.761 149.59 405.245 150.341 404.891 151.17C404.538 152 404.354 152.892 404.352 153.794Z" fill="#FFBE9D"/>
<path d="M413.515 166.452C411.837 166.293 410.24 165.654 408.915 164.612C408.915 164.612 409.847 167.354 413.497 167.348L413.515 166.452Z" fill="#EB996E"/>
<path d="M416.827 155.719C416.76 155.781 416.392 155.456 415.834 155.407C415.276 155.358 414.846 155.603 414.791 155.529C414.736 155.456 414.84 155.376 415.03 155.266C415.284 155.118 415.578 155.054 415.871 155.082C416.161 155.108 416.436 155.226 416.656 155.419C416.815 155.56 416.864 155.689 416.827 155.719Z" fill="#263238"/>
<path d="M410.933 155.958C410.922 156.093 410.859 156.218 410.757 156.308C410.656 156.397 410.523 156.443 410.388 156.436C410.321 156.436 410.256 156.423 410.195 156.397C410.134 156.372 410.078 156.334 410.032 156.287C409.986 156.239 409.949 156.183 409.925 156.121C409.901 156.059 409.889 155.994 409.891 155.927C409.902 155.792 409.965 155.667 410.067 155.578C410.169 155.488 410.301 155.442 410.437 155.449C410.503 155.449 410.569 155.462 410.63 155.488C410.691 155.514 410.746 155.551 410.792 155.599C410.839 155.646 410.875 155.702 410.899 155.764C410.923 155.826 410.935 155.892 410.933 155.958Z" fill="#263238"/>
<path d="M416.331 156.449C416.32 156.584 416.257 156.709 416.155 156.799C416.053 156.888 415.92 156.934 415.785 156.927C415.719 156.926 415.654 156.911 415.593 156.884C415.533 156.858 415.478 156.819 415.433 156.771C415.387 156.723 415.351 156.667 415.328 156.605C415.304 156.544 415.292 156.478 415.294 156.412C415.304 156.276 415.366 156.15 415.469 156.06C415.571 155.971 415.704 155.925 415.84 155.934C415.907 155.934 415.972 155.947 416.034 155.973C416.095 155.999 416.15 156.038 416.196 156.086C416.242 156.134 416.277 156.191 416.301 156.253C416.324 156.316 416.334 156.382 416.331 156.449Z" fill="#263238"/>
<path d="M411.405 155.241C411.337 155.302 410.969 154.977 410.411 154.928C409.853 154.879 409.418 155.124 409.362 155.051C409.307 154.977 409.411 154.898 409.602 154.787C409.856 154.641 410.149 154.576 410.441 154.602C410.733 154.629 411.009 154.745 411.233 154.934C411.393 155.082 411.442 155.21 411.405 155.241Z" fill="#263238"/>
<path d="M413.062 159.552C413.37 159.486 413.685 159.457 414 159.466C414.147 159.466 414.282 159.466 414.313 159.356C414.34 159.211 414.32 159.06 414.258 158.927C414.153 158.565 414.043 158.197 413.932 157.804C413.621 156.852 413.39 155.875 413.239 154.885C413.623 155.81 413.932 156.763 414.166 157.737C414.27 158.135 414.374 158.51 414.472 158.865C414.537 159.048 414.537 159.247 414.472 159.43C414.447 159.478 414.411 159.52 414.368 159.553C414.324 159.586 414.274 159.609 414.221 159.62C414.139 159.628 414.057 159.628 413.975 159.62C413.669 159.635 413.362 159.613 413.062 159.552Z" fill="#263238"/>
<path d="M411.386 159.791C411.478 159.791 411.429 160.405 411.908 160.877C412.386 161.349 413.036 161.343 413.036 161.423C413.036 161.502 412.877 161.533 412.607 161.515C412.251 161.487 411.917 161.335 411.662 161.085C411.417 160.848 411.274 160.525 411.264 160.184C411.264 159.926 411.35 159.785 411.386 159.791Z" fill="#263238"/>
<path d="M411.712 153.438C411.639 153.585 411.099 153.438 410.43 153.487C409.762 153.536 409.204 153.64 409.148 153.487C409.093 153.333 409.222 153.284 409.449 153.155C409.748 152.998 410.08 152.914 410.418 152.91C410.756 152.901 411.092 152.97 411.399 153.112C411.626 153.241 411.737 153.37 411.712 153.438Z" fill="#263238"/>
<path d="M416.895 154.112C416.784 154.235 416.41 154.07 415.95 154.02C415.49 153.971 415.092 154.02 415.012 153.892C414.932 153.763 415.049 153.702 415.233 153.597C415.474 153.474 415.747 153.425 416.017 153.457C416.287 153.488 416.541 153.599 416.748 153.775C416.901 153.947 416.944 154.057 416.895 154.112Z" fill="#263238"/>
<path d="M405.334 156.621C405.272 156.591 402.88 155.664 402.764 158.155C402.647 160.645 405.15 160.271 405.162 160.197C405.174 160.123 405.334 156.621 405.334 156.621Z" fill="#FFBE9D"/>
<path d="M404.456 159.209C404.456 159.209 404.407 159.24 404.333 159.27C404.228 159.31 404.113 159.31 404.008 159.27C403.854 159.159 403.731 159.01 403.654 158.836C403.576 158.663 403.546 158.472 403.567 158.283C403.575 158.07 403.627 157.861 403.72 157.669C403.75 157.594 403.798 157.527 403.858 157.473C403.919 157.418 403.991 157.379 404.069 157.357C404.12 157.346 404.172 157.354 404.217 157.379C404.262 157.403 404.297 157.443 404.315 157.492C404.315 157.565 404.315 157.614 404.315 157.614C404.315 157.614 404.37 157.577 404.358 157.473C404.347 157.411 404.314 157.354 404.266 157.314C404.202 157.258 404.118 157.229 404.033 157.234C403.93 157.249 403.832 157.291 403.75 157.354C403.667 157.417 403.602 157.5 403.56 157.596C403.441 157.805 403.375 158.042 403.37 158.283C403.346 158.503 403.387 158.726 403.488 158.924C403.589 159.121 403.747 159.284 403.941 159.393C404.006 159.415 404.076 159.422 404.145 159.415C404.213 159.407 404.28 159.385 404.339 159.35C404.444 159.27 404.462 159.215 404.456 159.209Z" fill="#EB996E"/>
<path d="M403.959 156.4C404.197 156.404 404.428 156.474 404.629 156.6C404.83 156.727 404.993 156.905 405.1 157.117C405.229 157.485 405.229 157.89 405.358 158.258C405.486 158.626 405.824 158.982 406.21 158.921C406.342 158.893 406.465 158.831 406.565 158.74C406.665 158.65 406.74 158.534 406.781 158.405C406.857 158.145 406.882 157.872 406.854 157.602C406.811 156.43 406.67 155.259 406.725 154.094C406.738 152.913 407.097 151.761 407.756 150.782C408.095 150.297 408.559 149.913 409.099 149.671C409.639 149.43 410.235 149.338 410.822 149.408C411.589 149.537 412.258 150.021 413.012 150.181C413.463 150.28 413.93 150.277 414.379 150.171C414.829 150.064 415.248 149.858 415.606 149.567C415.698 149.494 416.109 149.273 416.109 149.273C416.12 148.996 416.052 148.722 415.913 148.482C414.521 146.942 411.816 146.304 409.78 146.642C408.738 146.802 407.743 147.187 406.865 147.771C405.987 148.355 405.247 149.122 404.695 150.021C403.665 151.83 403.689 154.468 403.996 156.412" fill="#263238"/>
<path d="M418.293 151.413C418.073 151.763 417.765 152.049 417.4 152.243C417.036 152.437 416.626 152.531 416.213 152.517C415.387 152.48 414.576 152.286 413.821 151.947C412.626 151.536 411.394 151.242 410.141 151.07C410.019 151.07 409.872 151.07 409.816 150.941C409.761 150.812 409.896 150.641 410.031 150.549C411.19 149.8 413.846 149.512 415.226 149.573C415.918 149.588 416.594 149.779 417.191 150.129C417.788 150.479 418.286 150.976 418.636 151.573" fill="#263238"/>
<path d="M417.931 151.493C417.213 150.588 416.17 149.998 415.024 149.85C412.824 149.665 410.616 150.09 408.642 151.079C406.669 152.068 405.006 153.583 403.837 155.455C403.615 154.399 403.504 153.321 403.506 152.242C403.567 151.499 404.401 147.145 409.026 146.163C409.044 146.151 416.085 144.133 417.931 151.493Z" fill="#455A64"/>
<path d="M404.321 154.517C405.953 152.492 408.006 150.847 410.338 149.696C413.074 148.449 415.961 147.56 418.925 147.053C419.686 146.873 420.476 146.859 421.243 147.01C421.625 147.093 421.975 147.283 422.253 147.556C422.532 147.829 422.728 148.176 422.819 148.555C422.973 149.512 421.176 150.819 420.366 151.315C419.553 151.76 418.715 152.159 417.858 152.511C417.858 152.511 418.035 150.776 415.275 150.168C411.503 149.34 404.321 154.517 404.321 154.517Z" fill="#455A64"/>
<path d="M421.728 147.133C421.467 147.078 421.203 147.037 420.937 147.01C420.204 146.982 419.47 147.032 418.747 147.157C416.353 147.561 414.011 148.225 411.761 149.138C409.496 150.01 407.416 151.3 405.628 152.941C405.095 153.442 404.625 154.006 404.23 154.622C403.96 155.063 403.855 155.333 403.831 155.321C403.806 155.308 403.831 155.247 403.88 155.118C403.947 154.926 404.029 154.74 404.125 154.56C404.485 153.904 404.94 153.305 405.475 152.782C407.241 151.062 409.341 149.721 411.645 148.844C413.914 147.917 416.289 147.275 418.717 146.93C419.456 146.826 420.206 146.812 420.949 146.887C421.16 146.903 421.367 146.953 421.562 147.035C421.673 147.09 421.734 147.12 421.728 147.133Z" fill="#263238"/>
<path d="M412.773 148.095C413.674 147.712 414.631 147.478 415.607 147.402C415.393 147.202 415.157 147.029 414.901 146.887C414.142 146.947 413.396 147.127 412.693 147.42L412.773 148.095Z" fill="#FAFAFA"/>
<path d="M418.348 152.72C418.462 152.561 418.531 152.375 418.549 152.18C418.567 151.986 418.533 151.79 418.45 151.613C418.367 151.436 418.238 151.284 418.076 151.174C417.915 151.063 417.727 150.998 417.532 150.984C417.661 150.933 417.778 150.855 417.875 150.756C417.972 150.657 418.048 150.539 418.098 150.41C418.147 150.28 418.169 150.142 418.163 150.003C418.156 149.864 418.121 149.729 418.06 149.604C417.915 149.363 417.694 149.177 417.432 149.075C417.17 148.973 416.882 148.961 416.612 149.04C416.345 149.128 416.103 149.279 415.906 149.48C415.708 149.68 415.561 149.925 415.477 150.193C415.363 150.024 415.207 149.886 415.025 149.794C414.843 149.702 414.639 149.658 414.435 149.667C414.231 149.675 414.032 149.736 413.858 149.843C413.684 149.95 413.541 150.101 413.441 150.279C413.387 150.126 413.276 149.998 413.131 149.923C412.987 149.848 412.819 149.831 412.662 149.874C412.351 149.977 412.066 150.146 411.828 150.371C411.588 150.598 411.28 150.738 410.951 150.77L410.736 150.862C410.912 151.144 411.185 151.352 411.504 151.447C411.822 151.542 412.164 151.517 412.466 151.377C412.463 151.586 412.529 151.79 412.652 151.959C412.776 152.127 412.951 152.251 413.151 152.311C413.351 152.372 413.566 152.365 413.762 152.293C413.958 152.22 414.125 152.086 414.238 151.91C414.277 152.065 414.353 152.208 414.46 152.326C414.567 152.444 414.702 152.533 414.853 152.585C415.003 152.638 415.165 152.652 415.322 152.626C415.479 152.6 415.627 152.536 415.753 152.438C415.822 152.617 415.932 152.778 416.074 152.907C416.216 153.036 416.386 153.13 416.571 153.181C416.756 153.233 416.95 153.24 417.139 153.202C417.327 153.165 417.504 153.084 417.655 152.965C417.811 153.214 417.913 153.493 417.953 153.784C417.993 154.074 417.971 154.371 417.888 154.652C418.09 154.607 418.276 154.506 418.423 154.361C418.571 154.216 418.674 154.032 418.722 153.83C418.77 153.629 418.761 153.418 418.695 153.221C418.628 153.025 418.508 152.851 418.348 152.72Z" fill="#263238"/>
<path d="M407.977 152.106C407.121 152.486 406.3 152.939 405.523 153.462C404.743 153.995 404.119 154.725 403.714 155.578L404.941 156.749C405.278 156.86 405.554 156.976 405.811 156.749C405.945 156.634 406.047 156.487 406.109 156.322C406.171 156.157 406.191 155.979 406.167 155.805C406.33 155.84 406.499 155.829 406.656 155.774C406.813 155.719 406.952 155.622 407.058 155.494C407.164 155.365 407.232 155.21 407.256 155.046C407.279 154.881 407.257 154.713 407.191 154.56C407.313 154.531 407.425 154.47 407.515 154.384C407.606 154.298 407.672 154.189 407.707 154.069C407.739 153.949 407.739 153.823 407.708 153.702C407.677 153.582 407.615 153.472 407.529 153.382C407.667 153.374 407.801 153.326 407.912 153.243C408.023 153.16 408.108 153.046 408.156 152.916C408.203 152.785 408.211 152.644 408.18 152.509C408.148 152.374 408.077 152.251 407.977 152.156V152.106Z" fill="#263238"/>
<path d="M419.52 169.894C419.52 169.894 423.144 172.071 424.236 174.009C425.328 175.947 431.13 190.091 430.891 192.409C430.652 194.727 425.205 196.156 425.205 196.156L419.52 188.796L422.12 187.245L419.52 182.234V169.894Z" fill="#455A64"/>
<path d="M425.217 196.138C425.217 196.138 412.043 198.776 407.259 193.072L408.645 188.257C408.645 188.257 417.348 190.318 420.071 189.434L425.217 196.138Z" fill="#FFBE9D"/>
<path d="M426.579 184.436C426.628 184.534 425.033 185.202 423.371 186.472C421.709 187.741 420.66 189.115 420.574 189.048C420.724 188.704 420.931 188.389 421.188 188.116C421.767 187.412 422.423 186.777 423.144 186.22C423.87 185.668 424.653 185.198 425.481 184.816C425.823 184.628 426.194 184.5 426.579 184.436Z" fill="#263238"/>
<path d="M422.353 187.067C421.883 186.324 421.487 185.537 421.169 184.717C420.749 183.947 420.388 183.145 420.09 182.319C420.669 182.992 421.131 183.757 421.458 184.583C421.871 185.364 422.172 186.201 422.353 187.067Z" fill="#263238"/>
<path d="M419.961 181.111C419.926 180.419 419.819 179.732 419.642 179.063C419.53 178.376 419.352 177.702 419.108 177.051C419.256 178.429 419.542 179.79 419.961 181.111Z" fill="#263238"/>
<path d="M396.311 171.733C396.563 171.997 400.181 174.395 401.389 178.479C402.598 182.564 403.929 186.827 403.929 186.827L408.645 187.44L405.983 198.321C404.182 198.043 402.462 197.381 400.939 196.38C399.416 195.379 398.127 194.062 397.157 192.519C395.052 188.851 393.35 184.966 392.079 180.933C392.079 180.933 392.478 167.722 396.311 171.733Z" fill="#455A64"/>
<path d="M407.026 187.226C407.026 187.226 405.026 182.749 404.756 182.687C404.486 182.626 400.629 181.271 400.629 181.271C400.511 181.585 400.511 181.931 400.629 182.246L399.236 182.424C399.236 182.424 399.445 183.276 399.917 183.393L399.414 183.84C399.666 184.173 399.989 184.445 400.359 184.638C400.501 184.708 400.657 184.745 400.816 184.745C400.974 184.745 401.131 184.708 401.273 184.638C401.273 184.638 401.101 184.957 401.886 185.46C402.671 185.963 404.039 186.686 404.039 186.686L407.026 187.226Z" fill="#FFBE9D"/>
<path d="M404.045 186.711C404.045 186.711 402.678 185.963 401.893 185.484C401.212 185.055 401.23 184.761 401.279 184.675C401.139 184.738 400.986 184.771 400.832 184.771C400.677 184.771 400.524 184.738 400.384 184.675C400.013 184.478 399.689 184.204 399.433 183.871L399.893 183.387C399.433 183.252 399.231 182.448 399.225 182.412L400.611 182.234C400.499 181.92 400.499 181.578 400.611 181.265C400.648 181.265 404.481 182.626 404.745 182.681C405.008 182.737 406.934 187.042 407.02 187.226L404.045 186.711ZM400.635 182.24L399.243 182.418C399.243 182.516 399.482 183.264 399.918 183.375L399.409 183.822C399.656 184.151 399.975 184.42 400.341 184.607C400.482 184.676 400.637 184.712 400.795 184.712C400.952 184.712 401.107 184.676 401.249 184.607V184.644C401.249 184.644 401.089 184.963 401.862 185.454C402.635 185.944 403.966 186.68 404.015 186.68L406.977 187.202C406.278 185.65 404.922 182.731 404.72 182.688C404.518 182.645 400.807 181.344 400.599 181.271C400.489 181.587 400.502 181.933 400.635 182.24Z" fill="#EB996E"/>
<path d="M400.752 182.258C401.567 182.653 402.412 182.984 403.279 183.245C403.635 183.374 403.984 183.466 404.26 183.601C404.507 183.718 404.709 183.912 404.837 184.153C405.07 184.57 405.156 184.871 405.192 184.858C405.178 184.586 405.102 184.319 404.972 184.079C404.842 183.802 404.627 183.574 404.358 183.429C404.031 183.282 403.695 183.155 403.352 183.049C402.506 182.723 401.637 182.458 400.752 182.258Z" fill="#EB996E"/>
<path d="M399.85 183.387C400.064 183.515 400.302 183.6 400.549 183.638C400.99 183.761 401.616 183.859 402.278 184.037C402.843 184.177 403.374 184.427 403.842 184.773C404.198 185.049 404.351 185.288 404.382 185.27C404.296 185.027 404.143 184.815 403.941 184.656C403.477 184.258 402.927 183.975 402.334 183.828C401.653 183.644 401.021 183.571 400.579 183.491C400.341 183.429 400.096 183.394 399.85 183.387Z" fill="#EB996E"/>
<path d="M403.389 185.435C403.162 185.128 402.834 184.911 402.463 184.822C402.113 184.664 401.72 184.627 401.347 184.717C401.347 184.785 401.837 184.815 402.395 185.018C402.954 185.22 403.352 185.484 403.389 185.435Z" fill="#EB996E"/>
<path d="M408.241 188.6L420.133 182.602L422.311 187.036C422.311 187.036 411.35 197.898 406.217 197.757" fill="#FFBE9D"/>
<path d="M401.016 176.026C401.033 176.326 401.087 176.623 401.175 176.91C401.304 177.443 401.488 178.179 401.709 178.989C401.929 179.798 402.138 180.534 402.322 181.062C402.39 181.351 402.493 181.632 402.629 181.896C402.607 181.599 402.554 181.305 402.469 181.019C402.34 180.485 402.156 179.749 401.936 178.934C401.715 178.118 401.506 177.394 401.322 176.873C401.253 176.58 401.15 176.296 401.016 176.026Z" fill="#263238"/>
<path d="M401.531 190.789C401.567 190.789 401.672 190.243 401.948 189.391C402.104 188.895 402.345 188.431 402.659 188.017C403.036 187.525 403.579 187.187 404.186 187.066C404.821 187.037 405.457 187.109 406.069 187.281L407.627 187.594C407.823 187.62 408.014 187.669 408.198 187.741C408.328 187.799 408.431 187.904 408.486 188.035C408.51 188.091 408.523 188.152 408.523 188.213C408.523 188.274 408.51 188.335 408.486 188.391C408.486 188.391 408.651 188.293 408.584 188.011C408.56 187.93 408.52 187.856 408.466 187.791C408.413 187.727 408.346 187.674 408.271 187.637C408.076 187.546 407.87 187.482 407.658 187.446L406.106 187.091C405.472 186.902 404.81 186.823 404.15 186.858C403.482 186.989 402.888 187.368 402.487 187.919C402.168 188.355 401.931 188.845 401.788 189.366C401.688 189.713 401.608 190.065 401.549 190.421C401.524 190.542 401.518 190.666 401.531 190.789Z" fill="#263238"/>
<path d="M399.893 188.397C400.218 187.823 400.653 187.318 401.174 186.913C401.751 186.569 402.369 186.302 403.014 186.116C402.809 186.083 402.599 186.1 402.401 186.165C401.923 186.265 401.47 186.461 401.07 186.741C400.665 187.023 400.332 187.395 400.095 187.827C399.979 187.996 399.909 188.193 399.893 188.397Z" fill="#263238"/>
<path d="M392.079 180.934C392.079 180.934 392.079 181.013 392.14 181.167C392.202 181.32 392.269 181.553 392.361 181.817C392.564 182.43 392.84 183.215 393.183 184.203C393.527 185.19 393.944 186.417 394.532 187.705C395.121 188.993 395.814 190.379 396.655 191.783C397.439 193.114 398.44 194.304 399.617 195.304C400.576 196.122 401.651 196.794 402.806 197.297C403.589 197.634 404.415 197.863 405.26 197.978C405.487 198.012 405.717 198.035 405.947 198.046C406.106 198.046 406.186 198.046 406.186 198.046C406.186 198.046 405.861 198.009 405.272 197.905C404.447 197.756 403.644 197.507 402.88 197.162C400.357 195.997 398.252 194.085 396.851 191.685C396.017 190.293 395.342 188.889 394.723 187.631C394.103 186.374 393.704 185.178 393.33 184.16C392.956 183.142 392.668 182.35 392.447 181.792L392.189 181.179C392.161 181.093 392.124 181.011 392.079 180.934Z" fill="#263238"/>
<path d="M395.489 171.991C395.489 172.053 396.397 172.384 397.434 173.003C398.47 173.623 399.212 174.267 399.274 174.23C398.27 173.126 396.958 172.35 395.508 172.003L395.489 171.991Z" fill="#263238"/>
<path d="M404.512 200.892C404.707 201.011 404.912 201.114 405.125 201.198C405.327 201.296 405.573 201.407 405.861 201.517C406.149 201.628 406.474 201.775 406.855 201.891C407.722 202.2 408.607 202.458 409.504 202.664C410.607 202.907 411.723 203.084 412.847 203.192C413.973 203.284 415.104 203.305 416.233 203.253C417.153 203.21 418.071 203.114 418.98 202.965C419.367 202.909 419.716 202.83 420.017 202.768C420.317 202.707 420.587 202.64 420.796 202.584C421.019 202.535 421.238 202.469 421.452 202.388C421.225 202.411 420.999 202.45 420.777 202.505C420.569 202.548 420.305 202.603 419.998 202.652C419.692 202.701 419.342 202.775 418.956 202.817C418.049 202.948 417.136 203.03 416.22 203.063C415.101 203.1 413.981 203.071 412.865 202.977C411.751 202.873 410.643 202.705 409.547 202.474C408.654 202.279 407.772 202.037 406.904 201.75C406.523 201.64 406.198 201.511 405.904 201.407C405.61 201.303 405.364 201.204 405.162 201.125C404.951 201.032 404.733 200.954 404.512 200.892Z" fill="#263238"/>
<path d="M414.171 207.067C414.996 206.961 415.806 206.755 416.581 206.454C417.379 206.225 418.145 205.9 418.863 205.485C418.863 205.429 417.808 205.822 416.514 206.251C415.22 206.681 414.159 207.012 414.171 207.067Z" fill="#263238"/>
<g opacity="0.3">
<path d="M423.249 196.463C420.531 197 417.739 197.042 415.006 196.586C414.013 196.285 412.975 196.16 411.939 196.218C411.118 196.417 410.325 196.718 409.578 197.113C408.167 197.693 406.634 197.915 405.116 197.757C403.598 197.6 402.143 197.069 400.881 196.211C401.325 197.059 401.965 197.788 402.748 198.338C403.531 198.887 404.435 199.241 405.383 199.37C407.28 199.611 409.207 199.439 411.032 198.867C412.118 198.513 413.242 198.286 414.38 198.193C415.828 198.156 417.245 198.628 418.674 198.653C420.35 198.701 421.996 198.204 423.366 197.236L423.249 196.463Z" fill="black"/>
</g>
<g opacity="0.3">
<path d="M418.538 205.908C417.929 206.932 417.087 207.798 416.082 208.438C415.076 209.077 413.934 209.471 412.749 209.588C412.237 209.653 411.717 209.611 411.221 209.466C410.973 209.393 410.743 209.27 410.545 209.104C410.346 208.938 410.184 208.734 410.068 208.503C410.618 208.15 411.227 207.898 411.865 207.76L418.471 205.951" fill="black"/>
</g>
<path d="M422.132 187.214C421.972 187.412 421.793 187.595 421.599 187.76C421.243 188.103 420.728 188.594 420.121 189.219C419.513 189.845 418.79 190.618 417.907 191.385C417.023 192.151 416.017 192.942 414.956 193.764C413.958 194.546 412.911 195.263 411.822 195.911C410.93 196.443 409.984 196.881 409.001 197.217C408.338 197.443 407.657 197.609 406.965 197.714C406.714 197.758 406.458 197.773 406.204 197.757C407.126 197.562 408.035 197.313 408.927 197.009C409.883 196.645 410.803 196.193 411.675 195.659C412.737 195.003 413.761 194.286 414.742 193.513C415.803 192.691 416.815 191.912 417.692 191.164C418.569 190.415 419.305 189.673 419.943 189.06C420.581 188.447 421.12 187.981 421.501 187.668C421.692 187.491 421.904 187.338 422.132 187.214Z" fill="#EB996E"/>
</svg>
