<svg width="500" height="348" viewBox="0 0 500 348" fill="none" xmlns="http://www.w3.org/2000/svg">
<path d="M99.6217 347.876C154.641 347.876 199.243 344.489 199.243 340.31C199.243 336.131 154.641 332.744 99.6217 332.744C44.6021 332.744 0 336.131 0 340.31C0 344.489 44.6021 347.876 99.6217 347.876Z" fill="#E6E6E6"/>
<path d="M76.1494 77.1878C93.4866 69.8137 115.08 74.4858 136.169 77.7285C136.365 73.8016 138.744 69.0224 136.252 66.2828C133.225 62.9545 133.504 59.4573 135.325 55.94C139.983 46.9456 133.31 37.3752 126.571 29.4175C125.052 27.6279 123.133 26.2218 120.968 25.3134C118.804 24.405 116.456 24.0199 114.115 24.1894L101.632 25.081C98.5947 25.2979 95.6958 26.4374 93.3236 28.3469C90.9514 30.2563 89.2189 32.8448 88.3579 35.7658C85.3773 39.8195 83.782 43.862 84.7864 47.8834C80.322 50.9344 79.5719 54.6172 81.5781 58.7689C83.2792 61.383 83.2611 63.9276 81.5007 66.4017C79.1887 69.556 77.418 73.0732 76.261 76.8091L76.1494 77.1878Z" fill="#2F2E41"/>
<path d="M488.152 300.733H134.799C131.657 300.733 128.643 299.485 126.421 297.263C124.199 295.041 122.951 292.027 122.951 288.885C251.042 273.999 376.725 273.999 500 288.885C500 292.027 498.752 295.041 496.53 297.263C494.308 299.485 491.295 300.733 488.152 300.733Z" fill="#2F2E41"/>
<path d="M500 289.582L122.951 288.885L166.65 215.357L166.859 215.009V52.9613C166.859 50.9944 167.246 49.0467 167.999 47.2295C168.751 45.4123 169.855 43.7611 171.245 42.3703C172.636 40.9795 174.287 39.8763 176.105 39.1236C177.922 38.371 179.869 37.9837 181.836 37.9839H439.024C440.991 37.9837 442.939 38.371 444.756 39.1236C446.573 39.8763 448.224 40.9795 449.615 42.3703C451.006 43.7611 452.109 45.4123 452.862 47.2295C453.615 49.0467 454.002 50.9944 454.002 52.9613V216.124L500 289.582Z" fill="#3F3D56"/>
<path d="M181.495 48.438C180.201 48.4394 178.961 48.9539 178.047 49.8685C177.132 50.7831 176.618 52.0232 176.616 53.3166V201.07C176.618 202.363 177.132 203.603 178.047 204.518C178.961 205.432 180.201 205.947 181.495 205.948H441.457C442.75 205.947 443.99 205.432 444.905 204.518C445.819 203.603 446.334 202.363 446.335 201.07V53.3166C446.334 52.0232 445.819 50.7832 444.905 49.8686C443.99 48.954 442.75 48.4395 441.457 48.438H181.495Z" fill="white"/>
<path d="M182.584 225.463C182.185 225.464 181.793 225.579 181.457 225.794C181.12 226.01 180.852 226.317 180.685 226.68L167.22 255.952C167.073 256.27 167.009 256.621 167.033 256.97C167.058 257.32 167.169 257.658 167.359 257.953C167.548 258.249 167.808 258.492 168.116 258.66C168.423 258.828 168.768 258.916 169.119 258.916H452.279C452.636 258.916 452.986 258.825 453.297 258.652C453.609 258.478 453.87 258.228 454.058 257.925C454.245 257.622 454.352 257.275 454.368 256.919C454.384 256.563 454.308 256.209 454.149 255.89L439.513 226.619C439.34 226.271 439.074 225.978 438.743 225.774C438.413 225.569 438.032 225.462 437.643 225.463H182.584Z" fill="#2F2E41"/>
<path d="M310.43 45.9986C312.162 45.9986 313.566 44.5945 313.566 42.8623C313.566 41.1302 312.162 39.7261 310.43 39.7261C308.698 39.7261 307.294 41.1302 307.294 42.8623C307.294 44.5945 308.698 45.9986 310.43 45.9986Z" fill="white"/>
<path d="M282.597 264.492C282.138 264.493 281.691 264.645 281.326 264.924C280.961 265.204 280.699 265.596 280.578 266.039L277.201 278.584C277.117 278.894 277.106 279.219 277.169 279.534C277.231 279.849 277.365 280.145 277.56 280.4C277.755 280.655 278.006 280.861 278.294 281.003C278.582 281.145 278.899 281.219 279.22 281.219H343.453C343.786 281.219 344.115 281.139 344.411 280.986C344.707 280.834 344.963 280.612 345.156 280.341C345.349 280.069 345.475 279.755 345.522 279.425C345.569 279.096 345.537 278.759 345.428 278.444L341.086 265.899C340.943 265.488 340.677 265.132 340.323 264.88C339.968 264.628 339.545 264.492 339.11 264.492H282.597Z" fill="#2F2E41"/>
<path d="M454.001 212.569V215.357H166.649L166.866 215.009V212.569H454.001Z" fill="#2F2E41"/>
<path d="M445.987 97.5728C472.931 97.5728 494.773 75.7304 494.773 48.7864C494.773 21.8424 472.931 0 445.987 0C419.043 0 397.2 21.8424 397.2 48.7864C397.2 75.7304 419.043 97.5728 445.987 97.5728Z" fill="#24BA63"/>
<path d="M466.198 70.0435H425.775C425.036 70.0428 424.327 69.7488 423.805 69.2262C423.282 68.7035 422.988 67.9949 422.987 67.2557V42.8625C422.988 42.1234 423.282 41.4147 423.805 40.8921C424.327 40.3695 425.036 40.0755 425.775 40.0747H466.198C466.937 40.0755 467.646 40.3695 468.169 40.8921C468.691 41.4147 468.985 42.1234 468.986 42.8625V67.2557C468.985 67.9948 468.691 68.7035 468.169 69.2262C467.646 69.7488 466.937 70.0428 466.198 70.0435ZM425.775 42.8625V67.2557H466.2L466.198 42.8625L425.775 42.8625Z" fill="white"/>
<path d="M458.532 42.8621H433.441V31.711C433.441 23.6341 438.718 17.772 445.986 17.772C453.255 17.772 458.532 23.6341 458.532 31.711L458.532 42.8621ZM436.229 40.0743H455.744V31.711C455.744 25.1454 451.732 20.5598 445.987 20.5598C440.241 20.5598 436.229 25.1454 436.229 31.711L436.229 40.0743Z" fill="white"/>
<path d="M445.986 57.1498C447.526 57.1498 448.774 55.9017 448.774 54.362C448.774 52.8224 447.526 51.5742 445.986 51.5742C444.446 51.5742 443.198 52.8224 443.198 54.362C443.198 55.9017 444.446 57.1498 445.986 57.1498Z" fill="white"/>
<path d="M411.929 155.832H211.021C210.035 155.831 209.089 155.438 208.392 154.741C207.694 154.043 207.302 153.098 207.301 152.111V102.275C207.302 101.288 207.694 100.343 208.392 99.6452C209.089 98.9477 210.035 98.5554 211.021 98.5542H411.929C412.916 98.5554 413.861 98.9477 414.559 99.6452C415.256 100.343 415.648 101.288 415.65 102.275V152.111C415.648 153.098 415.256 154.043 414.559 154.741C413.861 155.438 412.916 155.831 411.929 155.832ZM211.021 100.042C210.429 100.043 209.862 100.278 209.444 100.697C209.025 101.115 208.79 101.683 208.789 102.275V152.111C208.79 152.703 209.025 153.271 209.444 153.689C209.862 154.108 210.429 154.343 211.021 154.344H411.929C412.521 154.343 413.088 154.108 413.507 153.689C413.925 153.271 414.161 152.703 414.161 152.111V102.275C414.161 101.683 413.925 101.115 413.507 100.697C413.088 100.278 412.521 100.043 411.929 100.042L211.021 100.042Z" fill="#E6E6E6"/>
<path d="M242.238 140.436C250.609 140.436 257.394 133.651 257.394 125.281C257.394 116.911 250.609 110.125 242.238 110.125C233.868 110.125 227.083 116.911 227.083 125.281C227.083 133.651 233.868 140.436 242.238 140.436Z" fill="#E6E6E6"/>
<path d="M277.24 115.177C276.908 115.177 276.579 115.242 276.272 115.368C275.965 115.495 275.686 115.681 275.451 115.916C275.216 116.15 275.03 116.429 274.903 116.736C274.775 117.042 274.71 117.371 274.71 117.703C274.71 118.035 274.775 118.364 274.903 118.671C275.03 118.977 275.216 119.256 275.451 119.491C275.686 119.725 275.965 119.911 276.272 120.038C276.579 120.165 276.908 120.23 277.24 120.229H396.318C396.988 120.229 397.63 119.963 398.104 119.489C398.578 119.016 398.844 118.373 398.844 117.703C398.844 117.033 398.578 116.391 398.104 115.917C397.63 115.443 396.988 115.177 396.318 115.177H277.24Z" fill="#E6E6E6"/>
<path d="M277.241 130.333C276.571 130.333 275.928 130.599 275.455 131.072C274.981 131.546 274.715 132.189 274.715 132.858C274.715 133.528 274.981 134.171 275.455 134.645C275.928 135.118 276.571 135.384 277.241 135.384H328.48C329.15 135.384 329.793 135.118 330.266 134.645C330.74 134.171 331.006 133.528 331.006 132.858C331.006 132.189 330.74 131.546 330.266 131.072C329.793 130.599 329.15 130.333 328.48 130.333H277.241Z" fill="#E6E6E6"/>
<path d="M166.155 131.354L129.016 151.099L128.546 134.645C140.668 132.622 152.201 129.098 162.865 123.362L166.749 113.766C167.172 112.72 167.86 111.802 168.745 111.103C169.63 110.403 170.682 109.946 171.797 109.776C172.912 109.605 174.052 109.728 175.106 110.132C176.159 110.535 177.09 111.206 177.806 112.077C178.854 113.353 179.377 114.979 179.271 116.626C179.165 118.273 178.436 119.818 177.233 120.948L166.155 131.354Z" fill="#FFB8B8"/>
<path d="M75.4084 245.355C75.1374 244.361 75.0799 243.321 75.2396 242.304C75.3993 241.286 75.7725 240.314 76.3348 239.451L84.4933 226.93C86.4229 223.969 89.3838 221.83 92.8015 220.928C96.2192 220.027 99.85 220.427 102.989 222.051C99.5607 227.887 100.039 233.007 104.174 237.456C97.7546 240.59 91.822 244.635 86.5595 249.465C85.5987 250.12 84.4954 250.536 83.3414 250.678C82.1874 250.82 81.0162 250.684 79.9252 250.282C78.8342 249.88 77.8551 249.223 77.0694 248.366C76.2837 247.509 75.7143 246.476 75.4084 245.355Z" fill="#2F2E41"/>
<path d="M167.847 228.984C166.612 231.041 164.87 232.747 162.786 233.937C160.702 235.128 158.348 235.762 155.948 235.78L101.749 236.191L99.3984 222.557L123.374 215.506L103.159 199.992L125.255 174.135L165.387 211.54C167.733 213.726 169.257 216.652 169.705 219.827C170.152 223.002 169.497 226.234 167.847 228.984Z" fill="#2F2E41"/>
<path d="M93.2863 322.223H80.5931C69.1964 244.103 57.5957 165.765 91.8759 136.526L132.306 143.108L127.135 177.426L104.569 203.283L93.2863 322.223Z" fill="#2F2E41"/>
<path d="M104.445 339.919C103.451 340.19 102.411 340.248 101.394 340.088C100.376 339.928 99.4039 339.555 98.5409 338.993L84.7588 337.14C81.7972 335.211 79.658 332.25 78.7561 328.833C77.8542 325.415 78.254 321.784 79.8779 318.645C85.7145 322.073 90.8345 321.595 95.2837 317.459C98.4274 323.807 103.607 323.42 108.554 328.768C109.209 329.728 109.625 330.832 109.767 331.986C109.909 333.14 109.774 334.311 109.372 335.402C108.97 336.493 108.313 337.472 107.456 338.258C106.599 339.044 105.566 339.613 104.445 339.919Z" fill="#2F2E41"/>
<path d="M123.374 84.3425L99.8682 78.7011C103.772 70.71 104.094 61.8182 102.219 52.3744L118.203 51.9043C118.704 63.6479 120.219 74.6194 123.374 84.3425Z" fill="#FFB8B8"/>
<path d="M129.835 157.263C112.723 168.923 100.633 157.662 91.4066 140.287C92.6887 129.655 90.6128 116.932 86.7681 103.108C85.0582 97.01 85.6966 90.493 88.5571 84.8431C91.4177 79.1931 96.2926 74.821 102.219 72.5898L122.434 81.052C139.599 95.0434 142.978 110.199 136.538 126.183L129.835 157.263Z" fill="#24BA63"/>
<path d="M80.5932 96.0957L61.7885 105.968L95.1669 125.713L99.8113 137.169C100.121 137.934 100.272 138.754 100.255 139.579C100.238 140.404 100.053 141.216 99.7114 141.967C99.3699 142.718 98.8789 143.392 98.2685 143.947C97.6581 144.502 96.9411 144.927 96.1611 145.196C95.2744 145.502 94.329 145.598 93.3989 145.478C92.4688 145.357 91.5792 145.023 90.7999 144.501C90.0205 143.979 89.3725 143.284 88.9067 142.47C88.4408 141.656 88.1698 140.745 88.1147 139.809L87.645 131.825L45.2214 117.825C43.7921 117.353 42.4888 116.562 41.4103 115.512C40.3318 114.463 39.5064 113.181 38.9966 111.765C38.2534 109.7 38.2156 107.448 38.889 105.36C39.5624 103.272 40.9091 101.466 42.7183 100.225L76.8323 76.8208L80.5932 96.0957Z" fill="#FFB8B8"/>
<path d="M99.3981 97.976C91.5554 94.5389 84.4237 98.2726 75.4221 101.267L74.0117 76.3505C82.95 71.5865 91.4721 70.3021 99.3981 73.9999L99.3981 97.976Z" fill="#24BA63"/>
<path d="M108.78 64.2462C117.069 64.2462 123.788 57.5271 123.788 49.2386C123.788 40.9501 117.069 34.231 108.78 34.231C100.492 34.231 93.7725 40.9501 93.7725 49.2386C93.7725 57.5271 100.492 64.2462 108.78 64.2462Z" fill="#FFB8B8"/>
<path d="M126.734 47.3449C111.875 48.8002 100.553 46.37 93.3164 39.4507V33.8784H125.473L126.734 47.3449Z" fill="#2F2E41"/>
</svg>
