<svg width="460" height="203" viewBox="0 0 460 203" fill="none" xmlns="http://www.w3.org/2000/svg">
<g clip-path="url(#clip0_142_1918)">
<path d="M136.851 166.681C135.27 179.072 129.455 190.408 123.251 201.328C123.046 201.7 122.835 202.066 122.619 202.438H58.1409C56.8369 202.099 55.5497 201.728 54.2678 201.328C46.9853 199.111 40.11 195.728 33.9091 191.312C10.1878 174.222 1.05979 141.928 5.1827 112.99C7.74633 95.0121 15.6367 76.6565 31.0014 66.9737C39.1139 61.8521 49.5345 60.1875 58.8733 62.0907C59.1177 62.1351 59.3618 62.1906 59.6113 62.2405C67.6461 64.0495 74.804 68.544 78.8771 75.7853C86.2014 88.7973 81.8401 104.917 78.239 119.399C74.6488 133.882 72.701 151.216 83.1219 161.898C79.6815 151.771 83.0775 139.691 91.2953 132.844C97.5045 127.678 106.15 125.742 114.035 127.345C114.789 127.506 115.533 127.689 116.265 127.911C118.035 128.43 119.742 129.144 121.353 130.042C133.644 136.906 138.622 152.715 136.851 166.681Z" fill="#F2F2F2"/>
<path d="M98.6196 201.329C100.406 201.745 102.198 202.111 104.002 202.438H94.2526C92.9762 202.094 91.7055 201.728 90.4461 201.329C87.6771 200.463 84.9507 199.47 82.267 198.349C71.5023 193.832 61.5864 187.051 54.0844 178.029C50.4154 173.658 47.4193 168.763 45.1951 163.508C42.7833 157.567 41.2505 151.307 40.6452 144.925C39.2856 131.829 40.6728 118.373 43.2641 105.511C45.9383 92.18 50.255 79.232 56.1153 66.9632C56.82 65.4927 57.5488 64.0315 58.3016 62.5796C58.3533 62.46 58.4317 62.3539 58.5308 62.2693C58.6298 62.1847 58.7468 62.1238 58.873 62.0913C59.1291 62.0416 59.3945 62.0955 59.611 62.2411C59.8709 62.3902 60.0636 62.6334 60.1493 62.9204C60.235 63.2075 60.2072 63.5165 60.0716 63.7837C54.0292 75.5671 49.4489 88.0446 46.4325 100.939C43.4806 113.518 41.8048 126.68 42.3762 139.614C42.92 151.7 46.0775 163.585 53.2409 173.468C59.783 182.49 68.8165 189.604 78.8101 194.448C85.1355 197.474 91.7801 199.782 98.6196 201.329Z" fill="white"/>
<path d="M120.016 202.438H117.142C116.82 202.072 116.509 201.7 116.204 201.329C109.657 193.374 105.222 183.896 103.308 173.773C100.985 161.14 102.792 148.094 108.463 136.568C110.046 133.336 111.91 130.25 114.034 127.346C114.789 127.507 115.533 127.69 116.265 127.912C110.677 135.316 106.918 143.937 105.295 153.07C103.847 161.629 104.329 170.402 106.704 178.751C109.079 187.1 113.287 194.813 119.023 201.329C119.345 201.7 119.678 202.072 120.016 202.438Z" fill="white"/>
<path d="M378.947 193.001C379.364 196.271 380.899 199.263 382.536 202.145C382.591 202.243 382.646 202.34 382.703 202.438H399.72C400.064 202.349 400.404 202.25 400.742 202.145C402.664 201.56 404.479 200.667 406.115 199.502C412.376 194.991 414.785 186.468 413.697 178.831C413.02 174.086 410.938 169.242 406.883 166.686C404.681 165.345 402.054 164.885 399.527 165.398C399.462 165.409 399.398 165.424 399.332 165.437C398.28 165.641 397.284 166.064 396.407 166.68C395.531 167.296 394.795 168.091 394.248 169.012C392.315 172.446 393.466 176.7 394.416 180.522C395.363 184.345 395.878 188.92 393.127 191.739C393.53 190.56 393.612 189.295 393.364 188.074C393.117 186.853 392.548 185.72 391.717 184.791C390.887 183.862 389.824 183.172 388.638 182.79C387.451 182.409 386.185 182.35 384.969 182.62C384.77 182.662 384.573 182.71 384.38 182.769C383.913 182.906 383.462 183.094 383.037 183.331C379.794 185.143 378.48 189.315 378.947 193.001Z" fill="#F2F2F2"/>
<path d="M389.038 202.146C388.566 202.255 388.093 202.352 387.617 202.439H390.19C390.527 202.348 390.862 202.251 391.195 202.146C391.926 201.917 392.645 201.655 393.353 201.359C396.226 200.193 398.777 198.354 400.791 195.996C401.76 194.843 402.55 193.551 403.137 192.164C403.774 190.596 404.178 188.944 404.338 187.26C404.63 183.777 404.397 180.271 403.647 176.858C402.941 173.339 401.802 169.922 400.255 166.684C400.069 166.296 399.877 165.91 399.678 165.527C399.665 165.496 399.644 165.468 399.618 165.445C399.592 165.423 399.561 165.407 399.528 165.398C399.46 165.385 399.39 165.399 399.333 165.438C399.264 165.477 399.213 165.541 399.191 165.617C399.168 165.693 399.175 165.774 399.211 165.845C400.806 168.955 402.015 172.248 402.811 175.651C403.631 178.989 403.991 182.423 403.881 185.858C403.823 189.053 402.826 192.16 401.014 194.793C399.252 197.163 396.935 199.065 394.266 200.33C392.596 201.128 390.843 201.738 389.038 202.146Z" fill="white"/>
<path d="M383.391 202.438H384.149C384.234 202.342 384.316 202.244 384.397 202.146C386.125 200.046 387.295 197.545 387.8 194.873C388.413 191.539 387.936 188.096 386.44 185.054C386.022 184.201 385.53 183.387 384.969 182.62C384.77 182.663 384.574 182.711 384.381 182.769C385.855 184.724 386.848 186.999 387.276 189.409C387.658 191.668 387.531 193.984 386.904 196.187C386.277 198.39 385.166 200.426 383.653 202.146C383.568 202.244 383.48 202.342 383.391 202.438Z" fill="white"/>
<path d="M225.566 117.917H172.308L171.743 101.542C171.719 100.832 171.848 100.126 172.123 99.4707C172.398 98.8157 172.812 98.2281 173.335 97.7483C173.859 97.2685 174.48 96.9079 175.157 96.6913C175.833 96.4746 176.549 96.4072 177.254 96.4935L208.247 100.289H208.25C212.845 100.301 217.248 102.134 220.493 105.386C223.739 108.639 225.563 113.045 225.566 117.64V117.917Z" fill="#24BA63"/>
<path d="M201.829 59.832H164.683C164.189 59.8319 163.7 59.9291 163.244 60.1181C162.787 60.3071 162.373 60.5842 162.023 60.9335C161.674 61.2828 161.397 61.6975 161.208 62.1539C161.019 62.6104 160.922 63.0996 160.922 63.5936V100.739C160.922 101.233 161.019 101.722 161.208 102.178C161.397 102.635 161.674 103.05 162.023 103.399C162.373 103.748 162.787 104.025 163.244 104.214C163.7 104.403 164.189 104.5 164.683 104.5H201.829C202.323 104.5 202.812 104.403 203.268 104.214C203.725 104.025 204.139 103.748 204.489 103.399C204.838 103.05 205.115 102.635 205.304 102.178C205.493 101.722 205.59 101.233 205.59 100.739V63.5936C205.59 63.0996 205.493 62.6104 205.304 62.1539C205.115 61.6975 204.838 61.2828 204.489 60.9335C204.139 60.5841 203.725 60.3071 203.268 60.1181C202.812 59.9291 202.323 59.8319 201.829 59.832Z" fill="#CCCCCC"/>
<path d="M193.463 87.6092L175.925 91.0245C174.885 91.2259 173.807 91.0064 172.929 90.4142C172.05 89.8219 171.442 88.9054 171.238 87.8655L169.89 80.9427C169.689 79.9024 169.908 78.8247 170.501 77.946C171.093 77.0673 172.009 76.4595 173.049 76.2558L190.587 72.8405C191.628 72.6391 192.705 72.8587 193.584 73.4509C194.463 74.0431 195.07 74.9597 195.274 75.9995L196.622 82.9224C196.824 83.9627 196.604 85.0404 196.012 85.919C195.42 86.7977 194.503 87.4055 193.463 87.6092Z" fill="#3F3D56"/>
<path d="M189.955 79.4298L176.57 82.0362C176.326 82.0839 176.072 82.0324 175.865 81.893C175.658 81.7536 175.515 81.5378 175.468 81.293C175.42 81.0481 175.471 80.7944 175.611 80.5876C175.75 80.3808 175.966 80.2378 176.211 80.1901L189.595 77.5837C189.84 77.5361 190.094 77.5876 190.3 77.727C190.507 77.8664 190.65 78.0822 190.698 78.3271C190.745 78.5719 190.694 78.8256 190.555 79.0324C190.415 79.2392 190.199 79.3822 189.955 79.4298Z" fill="white"/>
<path d="M187.353 83.2892L180.43 84.6374C180.185 84.685 179.931 84.6335 179.724 84.4941C179.518 84.3547 179.375 84.1389 179.327 83.894C179.279 83.6492 179.331 83.3955 179.47 83.1887C179.61 82.9819 179.825 82.8389 180.07 82.7913L186.993 81.4431C187.114 81.4195 187.239 81.42 187.36 81.4446C187.481 81.4692 187.596 81.5173 187.698 81.5864C187.801 81.6554 187.889 81.7439 187.957 81.8469C188.025 81.9498 188.072 82.0652 188.096 82.1864C188.119 82.3076 188.119 82.4323 188.094 82.5533C188.07 82.6744 188.022 82.7893 187.953 82.8918C187.884 82.9942 187.795 83.082 187.692 83.1502C187.589 83.2184 187.474 83.2656 187.353 83.2892Z" fill="white"/>
<path d="M205.59 63.5936V68.5306H160.922V63.5936C160.922 63.0996 161.019 62.6104 161.208 62.1539C161.397 61.6975 161.674 61.2828 162.023 60.9335C162.373 60.5842 162.787 60.3071 163.244 60.1181C163.7 59.9291 164.189 59.8319 164.683 59.832H201.829C202.323 59.8319 202.812 59.9291 203.268 60.1181C203.725 60.3071 204.139 60.5842 204.489 60.9335C204.838 61.2828 205.115 61.6975 205.304 62.1539C205.493 62.6104 205.59 63.0996 205.59 63.5936Z" fill="#B3B3B3"/>
<path d="M294.788 70.0776C294.53 69.2452 294.093 68.4794 293.507 67.8343C292.921 67.1891 292.201 66.6803 291.398 66.3435C290.594 66.0068 289.726 65.8504 288.855 65.8854C287.984 65.9204 287.132 66.1458 286.358 66.5459L235.255 48.2109L233.004 60.9773L283.944 74.9856C284.703 76.2417 285.895 77.1759 287.296 77.6114C288.697 78.0468 290.21 77.9532 291.546 77.3482C292.883 76.7432 293.951 75.6689 294.549 74.3289C295.146 72.9889 295.232 71.4762 294.788 70.0776Z" fill="#FFB8B8"/>
<path opacity="0.2" d="M294.788 70.0776C294.53 69.2452 294.093 68.4794 293.507 67.8343C292.921 67.1891 292.201 66.6803 291.398 66.3435C290.594 66.0068 289.726 65.8504 288.855 65.8854C287.984 65.9204 287.132 66.1458 286.358 66.5459L235.255 48.2109L233.004 60.9773L283.944 74.9856C284.703 76.2417 285.895 77.1759 287.296 77.6114C288.697 78.0468 290.21 77.9532 291.546 77.3482C292.883 76.7432 293.951 75.6689 294.549 74.3289C295.146 72.9889 295.232 71.4762 294.788 70.0776Z" fill="black"/>
<path d="M244.326 50.5372L239.5 63.1443C239.363 63.503 239.15 63.8279 238.875 64.0969C238.601 64.3658 238.272 64.5725 237.911 64.7029C237.55 64.8333 237.165 64.8843 236.782 64.8524C236.399 64.8205 236.028 64.7065 235.693 64.5181L223.965 57.917C222.134 57.204 220.66 55.794 219.867 53.9962C219.074 52.1983 219.026 50.1593 219.734 48.3262C220.442 46.4931 221.847 45.0154 223.643 44.2172C225.438 43.419 227.477 43.3653 229.312 44.0679L242.409 46.9725C242.784 47.0558 243.137 47.2189 243.443 47.4508C243.749 47.6826 244.002 47.9777 244.184 48.316C244.365 48.6543 244.472 49.0278 244.497 49.4111C244.521 49.7944 244.463 50.1785 244.326 50.5372Z" fill="#24BA63"/>
<path d="M298.811 81.751L280.5 90.0743L282.904 99.125C287.547 116.603 288.779 134.811 286.533 152.755L299.921 155.551L311.019 127.252L307.134 95.0682L298.811 81.751Z" fill="#24BA63"/>
<path d="M334.74 123.645C322.709 123.645 312.904 132.391 312.429 143.343H357.051C356.576 132.391 346.771 123.645 334.74 123.645Z" fill="#3F3D56"/>
<path d="M325.374 125.532C324.748 76.0928 296.592 80.6411 296.592 80.6411C296.592 80.6411 297.118 96.0299 297.371 96.5085C315.314 130.456 285.702 170.255 248.009 162.933C247.298 162.795 246.615 162.655 245.961 162.513C241.185 161.516 236.968 158.737 234.168 154.741C231.368 150.746 230.195 145.834 230.888 141.004C234.601 111.187 216.133 111.715 216.133 111.715H189.129L175.105 99.0933C174.61 98.6478 174.014 98.3304 173.367 98.1687C172.721 98.0071 172.046 98.0062 171.399 98.1661C170.753 98.326 170.155 98.6418 169.659 99.086C169.163 99.5302 168.783 100.089 168.553 100.714L166.749 105.611C166.749 105.611 140.114 108.385 142.334 134.465H150.568C150.548 135.206 150.578 135.948 150.657 136.685L212.111 136.185C215.713 136.156 218.893 139.075 218.908 142.677C218.911 143.554 218.738 144.423 218.398 145.231C218.059 146.04 217.559 146.771 216.93 147.382C216.301 147.993 215.555 148.471 214.737 148.787C213.919 149.104 213.045 149.252 212.169 149.222L202.261 148.892C199.209 162.487 206.7 171.642 214.954 177.399C222.725 182.741 231.947 185.573 241.377 185.514H268.293C303.25 185.514 309.354 156.106 309.354 156.106C327.665 148.337 325.374 125.532 325.374 125.532Z" fill="#3F3D56"/>
<path d="M333.076 201.606C350.314 201.606 364.288 187.632 364.288 170.394C364.288 153.156 350.314 139.182 333.076 139.182C315.838 139.182 301.863 153.156 301.863 170.394C301.863 187.632 315.838 201.606 333.076 201.606Z" fill="#3F3D56"/>
<path d="M333.076 178.044C337.301 178.044 340.726 174.619 340.726 170.394C340.726 166.169 337.301 162.744 333.076 162.744C328.851 162.744 325.426 166.169 325.426 170.394C325.426 174.619 328.851 178.044 333.076 178.044Z" fill="white"/>
<path d="M175.488 201.607C195.331 201.607 211.417 185.521 211.417 165.678C211.417 145.835 195.331 129.749 175.488 129.749C155.645 129.749 139.56 145.835 139.56 165.678C139.56 185.521 155.645 201.607 175.488 201.607Z" fill="#3F3D56"/>
<path d="M175.488 174.483C180.351 174.483 184.294 170.541 184.294 165.677C184.294 160.814 180.351 156.871 175.488 156.871C170.624 156.871 166.682 160.814 166.682 165.677C166.682 170.541 170.624 174.483 175.488 174.483Z" fill="white"/>
<path d="M280.552 92.5334L273.963 74.6386C273.62 73.706 273.463 72.7148 273.503 71.7218C273.543 70.7288 273.778 69.7533 274.194 68.851C274.611 67.9487 275.201 67.1374 275.932 66.4633C276.662 65.7892 277.518 65.2655 278.45 64.9221L297.339 57.9687C298.98 57.3645 300.724 57.0893 302.471 57.159C304.218 57.2287 305.935 57.6419 307.522 58.375C309.11 59.108 310.538 60.1466 311.724 61.4314C312.91 62.7163 313.832 64.2221 314.436 65.8631C314.981 67.336 315.259 68.8941 315.258 70.4645C315.251 72.4585 314.799 74.4259 313.937 76.2237C313.074 78.0215 311.822 79.6044 310.27 80.8575C309.15 81.7564 307.89 82.4665 306.541 82.96L280.552 92.5334Z" fill="#3F3D56"/>
<path d="M314.98 70.4648C314.979 72.4182 314.539 74.3464 313.694 76.1075C312.849 77.8687 311.62 79.418 310.097 80.6414C307.761 80.0251 305.587 78.9074 303.726 77.366C301.865 75.8246 300.362 73.8965 299.322 71.7156C298.282 69.5347 297.729 67.1534 297.702 64.7373C297.675 62.3212 298.175 59.9282 299.166 57.7246C301.069 57.3107 303.041 57.3284 304.937 57.7762C306.832 58.2241 308.603 59.0908 310.12 60.3127C311.637 61.5346 312.861 63.0807 313.702 64.8375C314.543 66.5942 314.98 68.5171 314.98 70.4648Z" fill="#24BA63"/>
<path d="M147.05 138.071C151.34 138.071 154.818 133.848 154.818 128.638C154.818 123.428 151.34 119.205 147.05 119.205C142.759 119.205 139.281 123.428 139.281 128.638C139.281 133.848 142.759 138.071 147.05 138.071Z" fill="#24BA63"/>
<path d="M249.738 162.028H256.541L259.778 144.385L249.737 144.385L249.738 162.028Z" fill="#FFB8B8"/>
<path d="M248.003 159.808L261.4 159.808H261.401C262.522 159.808 263.632 160.028 264.668 160.457C265.704 160.887 266.645 161.515 267.438 162.308C268.23 163.101 268.859 164.042 269.288 165.078C269.717 166.114 269.938 167.224 269.938 168.345V168.623L248.003 168.623L248.003 159.808Z" fill="#2F2E41"/>
<path d="M257.634 154.787C257.555 154.787 257.476 154.784 257.396 154.776L247.981 154.09C247.6 154.055 247.233 153.933 246.907 153.733C246.581 153.533 246.305 153.261 246.101 152.938C245.897 152.615 245.769 152.249 245.729 151.869C245.689 151.488 245.736 151.104 245.868 150.745L258.467 122.438C258.557 122.185 258.594 121.917 258.575 121.65C258.556 121.382 258.482 121.122 258.358 120.885C258.234 120.644 258.061 120.433 257.849 120.265C257.638 120.097 257.393 119.975 257.131 119.908C251.207 118.359 236.006 114.236 222.847 109.411C217.209 107.344 213.659 104.356 212.294 100.532C210.494 95.4894 213.156 90.891 213.27 90.6981L213.36 90.5469L225.742 91.6724L239.165 92.8141L268.582 108.588C271.046 109.921 272.919 112.134 273.825 114.785C274.732 117.437 274.607 120.332 273.475 122.896L259.913 153.307C259.717 153.748 259.397 154.122 258.993 154.385C258.588 154.647 258.117 154.787 257.634 154.787Z" fill="#2F2E41"/>
<path d="M227.894 35.6682C235.421 35.6682 241.523 29.5665 241.523 22.0397C241.523 14.5128 235.421 8.41113 227.894 8.41113C220.367 8.41113 214.266 14.5128 214.266 22.0397C214.266 29.5665 220.367 35.6682 227.894 35.6682Z" fill="#FFB8B8"/>
<path d="M245.854 163.693H252.657L255.893 146.05L245.853 146.05L245.854 163.693Z" fill="#FFB8B8"/>
<path d="M244.118 161.473L257.515 161.473H257.516C258.637 161.473 259.747 161.693 260.783 162.123C261.819 162.552 262.76 163.18 263.553 163.973C264.346 164.766 264.975 165.707 265.404 166.743C265.833 167.779 266.054 168.889 266.054 170.01V170.288L244.119 170.289L244.118 161.473Z" fill="#2F2E41"/>
<path d="M253.75 156.452C253.67 156.452 253.591 156.449 253.511 156.441L244.096 155.756C243.716 155.72 243.348 155.598 243.022 155.398C242.696 155.198 242.42 154.926 242.216 154.603C242.012 154.28 241.885 153.914 241.844 153.534C241.804 153.153 241.851 152.769 241.983 152.41L254.582 124.103C254.672 123.85 254.709 123.582 254.69 123.315C254.672 123.047 254.598 122.787 254.473 122.55C254.349 122.31 254.176 122.098 253.964 121.93C253.753 121.762 253.508 121.64 253.246 121.573C247.322 120.024 232.121 115.901 218.962 111.076C213.324 109.009 209.774 106.021 208.409 102.197C206.609 97.1544 209.271 92.556 209.386 92.3631L209.475 92.2119L221.857 93.3374L235.28 94.4791L264.697 110.253C267.162 111.586 269.034 113.799 269.941 116.45C270.848 119.102 270.722 121.997 269.59 124.561L256.028 154.972C255.832 155.413 255.512 155.787 255.108 156.05C254.704 156.312 254.232 156.452 253.75 156.452Z" fill="#2F2E41"/>
<path d="M232.098 43.3963L217.671 38.4023C217.671 38.4023 208.614 45.3606 212.965 62.6223C215.236 71.53 214.575 80.9327 211.078 89.4345C210.657 90.4864 210.172 91.5114 209.625 92.5037C209.625 92.5037 225.717 111.925 240.699 97.4976L234.872 69.4759C234.872 69.4759 244.028 50.8873 232.098 43.3963Z" fill="#24BA63"/>
<path d="M229.587 36.1322C227.647 33.2289 226.116 29.2031 228.252 26.4406C230.36 23.7138 234.518 24.1156 237.746 22.909C242.243 21.2284 244.851 15.9456 244.038 11.2144C243.224 6.48327 239.427 2.5613 234.902 0.956555C230.378 -0.64819 225.276 -0.12629 220.845 1.72167C215.391 3.99654 210.712 8.39711 208.75 13.9715C206.789 19.5458 207.837 26.2389 211.907 30.5235C216.271 35.117 223.119 36.3412 229.454 36.2669" fill="#2F2E41"/>
<path d="M216.909 11.3662C214.465 13.3559 210.736 12.4721 208.112 10.7259C205.489 8.97964 203.36 6.49308 200.521 5.12395C195.516 2.71022 189.466 4.31479 184.595 6.98842C179.724 9.66205 175.406 13.3557 170.261 15.4538C165.116 17.552 158.551 17.6557 154.655 13.694C153.697 16.4716 153.618 19.4774 154.431 22.3013C155.244 25.1251 156.908 27.6295 159.196 29.4726C161.485 31.3158 164.286 32.408 167.218 32.6002C170.151 32.7924 173.071 32.0753 175.58 30.5466C181.217 27.1128 184.331 19.913 190.654 18.0177C194.153 16.9689 197.91 17.8136 201.446 18.7285C204.982 19.6434 208.67 20.632 212.238 19.8531C215.807 19.0743 219.145 15.8673 218.691 12.243L216.909 11.3662Z" fill="#2F2E41"/>
<path d="M294.111 69.5221C293.752 68.7279 293.224 68.0219 292.563 67.454C291.902 66.8861 291.124 66.4699 290.285 66.235C289.446 66 288.566 65.9519 287.706 66.094C286.846 66.2361 286.028 66.565 285.309 67.0576L232.334 55.168L231.676 68.1145L283.955 75.7306C284.863 76.8835 286.162 77.6635 287.606 77.9227C289.05 78.182 290.539 77.9025 291.791 77.1372C293.042 76.3719 293.97 75.174 294.398 73.7705C294.825 72.367 294.723 70.8554 294.111 69.5221Z" fill="#FFB8B8"/>
<path d="M241.622 56.3573L238.389 69.4635C238.297 69.8364 238.126 70.1851 237.887 70.4859C237.648 70.7866 237.347 71.0323 237.004 71.2063C236.662 71.3802 236.286 71.4783 235.902 71.4939C235.518 71.5095 235.136 71.4422 234.78 71.2965L222.327 66.193C220.421 65.7125 218.783 64.4953 217.773 62.8086C216.763 61.122 216.464 59.1035 216.94 57.1961C217.417 55.2888 218.63 53.6484 220.315 52.6348C221.999 51.6213 224.017 51.3174 225.925 51.7898L239.28 53.0564C239.663 53.0927 240.033 53.2111 240.365 53.4034C240.698 53.5957 240.985 53.8573 241.207 54.1706C241.429 54.4839 241.581 54.8413 241.653 55.2187C241.725 55.596 241.714 55.9844 241.622 56.3573Z" fill="#24BA63"/>
<path d="M287.991 79.8084C290.136 79.8084 291.875 78.0694 291.875 75.9242C291.875 73.7791 290.136 72.04 287.991 72.04C285.845 72.04 284.106 73.7791 284.106 75.9242C284.106 78.0694 285.845 79.8084 287.991 79.8084Z" fill="#24BA63"/>
</g>
<defs>
<clipPath id="clip0_142_1918">
<rect width="460" height="202.438" fill="white"/>
</clipPath>
</defs>
</svg>
