<?xml version="1.0" standalone="no"?>
<!DOCTYPE svg PUBLIC "-//W3C//DTD SVG 20010904//EN"
 "http://www.w3.org/TR/2001/REC-SVG-20010904/DTD/svg10.dtd">
<svg version="1.0" xmlns="http://www.w3.org/2000/svg"
 width="2208.000000pt" height="2395.000000pt" viewBox="0 0 2208.000000 2395.000000"
 preserveAspectRatio="xMidYMid meet">

<g transform="translate(0.000000,2395.000000) scale(0.100000,-0.100000)"
fill="#0C1177" stroke="none">
<path d="M17640 23934 c-308 -28 -596 -110 -907 -259 -495 -237 -871 -602
-1152 -1118 -132 -245 -239 -561 -273 -812 -18 -135 -18 -701 0 -845 138
-1095 785 -2357 1926 -3755 72 -88 157 -188 188 -222 59 -64 70 -91 43 -113
-11 -9 -1296 -13 -5767 -16 -3991 -3 -5781 -8 -5843 -15 -221 -26 -512 -95
-757 -178 -424 -145 -792 -351 -1157 -648 -137 -112 -444 -420 -547 -549 -445
-557 -704 -1172 -801 -1904 -26 -193 -26 -697 0 -895 120 -924 481 -1651 1133
-2285 628 -610 1336 -934 2254 -1032 89 -9 1454 -13 5925 -18 l5810 -6 125
-21 c747 -127 1421 -397 1948 -780 268 -195 626 -525 832 -768 441 -518 741
-1106 915 -1790 177 -701 178 -1389 0 -2110 -86 -348 -180 -604 -341 -925
-442 -881 -1124 -1558 -2007 -1996 -482 -238 -942 -374 -1497 -441 -136 -17
-569 -18 -7370 -23 -4184 -3 -7234 -1 -7247 4 -52 21 -42 44 77 181 936 1082
1635 2251 1929 3226 216 715 238 1401 61 1953 -121 378 -337 724 -642 1027
-702 700 -1589 932 -2583 675 -423 -109 -800 -338 -1145 -692 -254 -261 -426
-528 -556 -861 -107 -272 -185 -643 -201 -943 -5 -97 -2 -127 15 -190 12 -46
23 -125 27 -205 11 -210 53 -422 150 -761 274 -947 1041 -2222 1956 -3250 102
-115 224 -257 272 -316 118 -144 200 -202 329 -233 55 -13 947 -15 7364 -15
4922 0 7344 3 7435 10 965 74 1859 410 2603 979 406 310 790 713 1064 1119
367 544 625 1164 757 1817 69 342 90 594 82 1000 -10 539 -83 957 -255 1465
-412 1215 -1273 2200 -2432 2780 -552 277 -1025 411 -1695 482 -82 9 -1598 13
-5885 18 -4407 5 -5795 9 -5860 18 -255 36 -442 77 -634 139 -536 172 -928
414 -1342 827 -267 268 -458 525 -615 829 -186 363 -288 690 -356 1152 -28
189 -25 660 5 855 132 848 515 1548 1142 2085 540 463 1123 721 1810 801 121
14 741 16 6038 21 l5902 5 39 27 c37 25 115 113 483 541 717 836 1309 1734
1665 2528 219 490 348 934 409 1417 22 171 25 589 6 735 -77 572 -321 1082
-706 1479 -406 416 -940 691 -1511 777 -96 15 -535 27 -635 18z m425 -834
c295 -33 564 -132 815 -301 404 -272 671 -660 762 -1112 20 -99 23 -141 23
-362 0 -280 -9 -344 -71 -545 -86 -274 -231 -508 -450 -721 -509 -496 -1224
-644 -1889 -392 -530 201 -934 657 -1080 1219 -60 229 -74 517 -36 736 47 270
170 552 338 771 65 85 213 237 298 307 362 297 853 449 1290 400z m-15071
-16389 c773 -156 1345 -783 1426 -1561 69 -672 -227 -1299 -794 -1680 -172
-115 -408 -212 -636 -262 -92 -20 -133 -22 -340 -22 -267 0 -343 11 -565 85
-537 179 -949 587 -1124 1115 -73 218 -85 298 -86 559 0 257 11 343 71 541 85
282 220 510 428 722 291 298 631 464 1081 526 17 2 120 3 230 1 158 -2 223 -7
309 -24z"/>
</g>
</svg>
