<?xml version="1.0" standalone="no"?>
<!DOCTYPE svg PUBLIC "-//W3C//DTD SVG 20010904//EN"
 "http://www.w3.org/TR/2001/REC-SVG-20010904/DTD/svg10.dtd">
<svg version="1.0" xmlns="http://www.w3.org/2000/svg"
 width="3352.000000pt" height="1443.000000pt" viewBox="0 0 3352.000000 1443.000000"
 preserveAspectRatio="xMidYMid meet">

<g transform="translate(0.000000,1443.000000) scale(0.100000,-0.100000)"
fill="#fafafa" stroke="none">
<path d="M14950 12534 c-507 -34 -821 -81 -1147 -174 -298 -84 -596 -215 -813
-357 -534 -351 -838 -851 -922 -1513 -19 -153 -19 -5529 0 -5670 37 -271 102
-500 202 -706 427 -883 1461 -1344 3010 -1344 1257 0 2187 308 2713 898 218
244 385 576 457 907 57 265 54 157 57 1993 l4 1692 -1566 0 -1565 0 0 -675 0
-675 540 0 541 0 -4 -1022 c-3 -939 -5 -1029 -21 -1098 -84 -353 -296 -543
-706 -632 -95 -20 -132 -22 -385 -23 -296 0 -359 7 -530 57 -334 97 -537 330
-584 671 -15 110 -15 5464 0 5574 57 414 332 661 811 728 151 21 448 21 590 0
439 -65 676 -242 784 -585 38 -119 44 -222 44 -737 l0 -503 1026 0 1026 0 -5
548 c-4 576 -7 614 -57 847 -81 373 -266 719 -523 978 -452 454 -1121 716
-2049 803 -153 14 -799 27 -928 18z"/>
<path d="M8720 12445 c-240 -38 -516 -181 -695 -360 -147 -147 -288 -390 -342
-590 -26 -95 -27 -111 -27 -340 0 -225 1 -248 27 -369 114 -535 451 -1144 980
-1774 45 -55 76 -100 73 -108 -4 -12 -437 -14 -2923 -17 l-2918 -3 -114 -27
c-397 -93 -701 -264 -971 -543 -339 -352 -520 -802 -520 -1294 0 -611 279
-1167 767 -1529 232 -173 467 -275 768 -333 l110 -22 2980 -6 2980 -6 121 -27
c502 -111 848 -298 1183 -636 410 -414 635 -961 635 -1541 -1 -530 -184 -1024
-532 -1440 -357 -426 -895 -709 -1464 -770 -74 -8 -4681 -14 -7290 -10 -35 0
-16 32 93 163 506 601 841 1212 955 1742 32 147 44 441 25 576 -39 262 -155
491 -354 696 -209 215 -445 343 -717 388 -191 32 -468 9 -662 -55 -294 -98
-584 -355 -727 -644 -105 -215 -170 -521 -143 -684 6 -37 15 -110 21 -163 11
-101 54 -280 97 -408 157 -458 520 -1047 944 -1526 58 -66 125 -144 149 -173
24 -29 64 -65 90 -80 l46 -27 3695 -3 c4037 -3 3811 -6 4079 54 736 164 1333
637 1658 1312 171 353 255 752 240 1132 -15 364 -94 671 -258 999 -169 339
-401 619 -699 842 -328 246 -653 388 -1055 462 l-120 22 -2965 5 c-3242 7
-2995 2 -3221 64 -300 81 -546 233 -780 481 -206 217 -349 498 -416 814 -24
113 -27 147 -27 331 0 175 3 220 22 309 82 375 246 668 513 914 207 191 442
324 693 392 215 59 27 55 3251 61 1628 3 2969 7 2980 9 20 4 280 300 434 493
314 397 591 863 725 1223 159 428 186 827 79 1147 -68 204 -160 351 -312 503
-206 206 -452 334 -721 375 -116 17 -326 17 -440 -1z m429 -426 c91 -21 221
-78 298 -130 114 -78 248 -228 307 -346 69 -137 100 -344 77 -514 -38 -288
-219 -536 -486 -669 -136 -67 -246 -93 -395 -92 -380 2 -715 240 -836 595 -53
155 -66 304 -38 448 62 327 303 595 624 693 155 48 287 52 449 15z m-7559
-8194 c436 -140 693 -562 615 -1010 -52 -295 -264 -556 -546 -668 -116 -47
-194 -61 -329 -61 -243 0 -448 82 -618 247 -179 174 -272 394 -272 641 1 383
244 724 600 841 114 38 162 44 315 41 131 -3 161 -7 235 -31z"/>
<path d="M19820 7655 l0 -4745 2865 0 2865 0 0 680 0 680 -1780 0 -1780 0 0
4065 0 4065 -1085 0 -1085 0 0 -4745z"/>
<path d="M26423 8638 c3 -4115 -2 -3789 57 -4063 182 -843 821 -1419 1846
-1666 580 -139 1371 -177 2064 -99 791 89 1386 319 1820 704 297 263 522 654
610 1061 59 274 54 -52 57 4063 l3 3762 -1045 0 -1045 0 0 -3727 c0 -4020 2
-3823 -50 -3983 -99 -297 -306 -460 -686 -537 -129 -26 -599 -26 -728 0 -436
89 -654 293 -720 676 -15 86 -16 438 -16 3833 l0 3738 -1085 0 -1085 0 3
-3762z"/>
<path d="M26499 2053 c-46 -54 -90 -106 -98 -115 -13 -17 -6 -18 106 -18 l119
0 140 106 c76 58 143 110 149 115 5 5 -58 9 -162 9 l-171 0 -83 -97z"/>
<path d="M12468 1840 c-226 -41 -339 -167 -326 -365 10 -151 91 -253 328 -409
228 -151 276 -202 287 -309 11 -108 -42 -161 -162 -161 -124 0 -165 42 -165
169 l0 65 -151 0 -152 0 6 -87 c7 -108 20 -148 66 -209 78 -102 231 -151 441
-141 220 11 345 75 405 208 25 57 27 69 23 168 -3 95 -7 112 -33 161 -45 83
-128 159 -292 266 -228 150 -284 213 -285 315 0 91 47 133 151 133 114 1 161
-44 161 -154 l0 -50 151 0 152 0 -6 73 c-13 168 -80 254 -239 308 -71 24 -275
35 -360 19z"/>
<path d="M13585 1844 c-159 -25 -266 -92 -317 -199 l-28 -60 0 -465 0 -465 28
-60 c44 -91 111 -143 237 -181 86 -27 334 -27 420 0 126 38 193 90 237 181
l28 60 0 465 0 465 -28 60 c-43 90 -110 142 -232 180 -55 16 -279 29 -345 19z
m236 -221 c59 -35 60 -40 57 -517 l-3 -436 -31 -31 c-61 -61 -188 -63 -253 -4
l-36 33 -3 437 c-3 471 -2 481 50 514 54 34 165 36 219 4z"/>
<path d="M16829 1835 c-127 -25 -220 -89 -266 -183 l-28 -57 0 -475 0 -475 28
-57 c64 -130 213 -198 433 -198 217 0 369 70 430 198 25 52 28 70 32 205 l4
147 -151 0 -151 0 0 -125 c0 -142 -10 -174 -63 -202 -43 -24 -155 -23 -191 0
-63 41 -61 28 -61 508 0 428 0 438 21 466 30 41 71 57 139 57 121 0 155 -43
155 -199 l0 -95 151 0 152 0 -5 123 c-4 106 -8 129 -32 179 -45 96 -131 154
-269 182 -90 19 -236 19 -328 1z"/>
<path d="M18525 1844 c-159 -25 -266 -92 -317 -199 l-28 -60 0 -465 0 -465 28
-60 c44 -91 111 -143 237 -181 86 -27 334 -27 420 0 126 38 193 90 237 181
l28 60 0 465 0 465 -28 60 c-43 90 -110 142 -232 180 -55 16 -279 29 -345 19z
m236 -221 c59 -35 60 -40 57 -517 l-3 -436 -31 -31 c-61 -61 -188 -63 -253 -4
l-36 33 -3 437 c-3 471 -2 481 50 514 54 34 165 36 219 4z"/>
<path d="M21898 1840 c-226 -41 -339 -167 -326 -365 10 -151 91 -253 328 -409
228 -151 276 -202 287 -309 11 -108 -42 -161 -162 -161 -124 0 -165 42 -165
169 l0 65 -151 0 -152 0 6 -87 c7 -108 20 -148 66 -209 78 -102 231 -151 441
-141 220 11 345 75 405 208 25 57 27 69 23 168 -3 95 -7 112 -33 161 -45 83
-128 159 -292 266 -228 150 -284 213 -285 315 0 91 47 133 151 133 114 1 161
-44 161 -154 l0 -50 151 0 152 0 -6 73 c-13 168 -80 254 -239 308 -71 24 -275
35 -360 19z"/>
<path d="M24455 1844 c-159 -25 -266 -92 -317 -199 l-28 -60 0 -465 0 -465 28
-60 c44 -91 111 -143 237 -181 86 -27 334 -27 420 0 126 38 193 90 237 181
l28 60 0 465 0 465 -28 60 c-43 90 -110 142 -232 180 -55 16 -279 29 -345 19z
m236 -221 c59 -35 60 -40 57 -517 l-3 -436 -31 -31 c-61 -61 -188 -63 -253 -4
l-36 33 -3 437 c-3 471 -2 481 50 514 54 34 165 36 219 4z"/>
<path d="M25576 1840 c-99 -18 -168 -51 -227 -109 -91 -91 -89 -79 -89 -611 0
-532 -2 -520 89 -610 92 -92 222 -127 426 -117 205 10 323 69 385 191 l35 69
3 278 4 279 -231 0 -231 0 0 -100 0 -100 80 0 80 0 0 -155 c0 -178 -9 -213
-62 -241 -45 -24 -161 -24 -206 0 -62 32 -63 38 -60 521 l3 435 31 31 c61 61
188 63 253 4 l36 -33 3 -101 4 -101 150 0 151 0 -5 108 c-10 195 -78 289 -251
344 -71 23 -288 33 -371 18z"/>
<path d="M27228 1840 c-226 -41 -339 -167 -326 -365 10 -151 91 -253 328 -409
228 -151 276 -202 287 -309 11 -108 -42 -161 -162 -161 -124 0 -165 42 -165
169 l0 65 -151 0 -152 0 6 -87 c7 -108 20 -148 66 -209 78 -102 231 -151 441
-141 220 11 345 75 405 208 25 57 27 69 23 168 -3 95 -7 112 -33 161 -45 83
-128 159 -292 266 -228 150 -284 213 -285 315 0 91 47 133 151 133 114 1 161
-44 161 -154 l0 -50 151 0 152 0 -6 73 c-13 168 -80 254 -239 308 -71 24 -275
35 -360 19z"/>
<path d="M29899 1835 c-127 -25 -220 -89 -266 -183 l-28 -57 0 -475 0 -475 28
-57 c64 -130 213 -198 433 -198 217 0 369 70 430 198 25 52 28 70 32 205 l4
147 -151 0 -151 0 0 -125 c0 -142 -10 -174 -63 -202 -43 -24 -155 -23 -191 0
-63 41 -61 28 -61 508 0 428 0 438 21 466 30 41 71 57 139 57 121 0 155 -43
155 -199 l0 -95 151 0 152 0 -5 123 c-4 106 -8 129 -32 179 -45 96 -131 154
-269 182 -90 19 -236 19 -328 1z"/>
<path d="M32138 1840 c-226 -41 -339 -167 -326 -365 10 -151 91 -253 328 -409
228 -151 276 -202 287 -309 11 -108 -42 -161 -162 -161 -124 0 -165 42 -165
169 l0 65 -151 0 -152 0 6 -87 c7 -108 20 -148 66 -209 78 -102 231 -151 441
-141 220 11 345 75 405 208 25 57 27 69 23 168 -3 95 -7 112 -33 161 -45 83
-128 159 -292 266 -228 150 -284 213 -285 315 0 91 47 133 151 133 114 1 161
-44 161 -154 l0 -50 151 0 152 0 -6 73 c-13 168 -80 254 -239 308 -71 24 -275
35 -360 19z"/>
<path d="M14410 1120 l0 -710 415 0 415 0 0 100 0 100 -257 2 -258 3 -3 608
-2 607 -155 0 -155 0 0 -710z"/>
<path d="M15390 1247 c0 -675 -4 -645 89 -737 92 -92 222 -127 426 -117 236
12 381 102 414 257 7 33 11 247 11 615 l0 565 -150 0 -149 0 -3 -574 c-3 -565
-3 -575 -24 -603 -11 -15 -34 -35 -50 -43 -41 -21 -150 -19 -192 4 -63 33 -62
26 -62 651 l0 565 -155 0 -155 0 0 -583z"/>
<path d="M17650 1120 l0 -710 155 0 155 0 0 710 0 710 -155 0 -155 0 0 -710z"/>
<path d="M19350 1120 l0 -710 140 0 140 0 2 517 3 517 189 -517 189 -517 163
0 164 0 0 710 0 710 -140 0 -140 0 0 -422 c0 -232 -4 -418 -8 -413 -5 6 -76
196 -157 423 l-149 412 -198 0 -198 0 0 -710z"/>
<path d="M20580 1120 l0 -710 430 0 430 0 0 100 0 100 -272 2 -273 3 0 215 0
215 218 3 217 2 0 100 0 100 -220 0 -220 0 2 188 3 187 273 3 272 2 0 100 0
100 -430 0 -430 0 0 -710z"/>
<path d="M23150 1120 l0 -710 415 0 415 0 0 100 0 100 -257 2 -258 3 -3 608
-2 607 -155 0 -155 0 0 -710z"/>
<path d="M26400 1120 l0 -710 155 0 155 0 0 710 0 710 -155 0 -155 0 0 -710z"/>
<path d="M27930 1730 l0 -100 168 -2 167 -3 3 -607 2 -608 155 0 155 0 0 610
0 610 165 0 165 0 0 100 0 100 -490 0 -490 0 0 -100z"/>
<path d="M29070 1120 l0 -710 155 0 155 0 0 710 0 710 -155 0 -155 0 0 -710z"/>
<path d="M30805 1143 c-87 -379 -160 -698 -163 -711 l-4 -22 145 0 c130 0 146
2 151 18 2 9 14 62 25 117 12 55 23 110 26 123 5 22 7 22 184 22 l178 0 28
-140 28 -140 158 0 c88 0 159 3 158 8 0 4 -73 322 -162 707 l-162 700 -216 3
-215 2 -159 -687z m430 106 c36 -178 67 -334 70 -346 l5 -23 -141 0 -141 0 5
28 c37 200 131 671 134 669 2 -2 32 -150 68 -328z"/>
</g>
</svg>
